STARTFONT 2.1
COMMENT
COMMENT Converted from OpenType font "NotoSans-Medium.ttf" by "otf2bdf 3.0".
COMMENT
FONT -FreeType-Noto Sans Medium-Medium-R-Normal--25-180-100-100-P-130-ISO10646-1
SIZE 18 100 100
FONTBOUNDINGBOX 86 44 -16 -10
STARTPROPERTIES 19
FOUNDRY "FreeType"
FAMILY_NAME "Noto Sans Medium"
WEIGHT_NAME "Medium"
SLANT "R"
SETWIDTH_NAME "Normal"
ADD_STYLE_NAME ""
PIXEL_SIZE 25
POINT_SIZE 180
RESOLUTION_X 100
RESOLUTION_Y 100
SPACING "P"
AVERAGE_WIDTH 130
CHARSET_REGISTRY "ISO10646"
CHARSET_ENCODING "1"
FONT_ASCENT 26
FONT_DESCENT 7
COPYRIGHT "Copyright 2015-2021 Google LLC. All Rights Reserved."
_OTF_FONTFILE "NotoSans-Medium.ttf"
_OTF_PSNAME "NotoSans-Medium"
ENDPROPERTIES
CHARS 3053
STARTCHAR 0000
ENCODING 0
SWIDTH 0 0
DWIDTH 0 0
BBX 0 0 0 0
BITMAP
ENDCHAR
STARTCHAR 000D
ENCODING 13
SWIDTH 280 0
DWIDTH 7 0
BBX 0 0 0 0
BITMAP
ENDCHAR
STARTCHAR 0020
ENCODING 32
SWIDTH 280 0
DWIDTH 7 0
BBX 0 0 0 0
BITMAP
ENDCHAR
STARTCHAR 0021
ENCODING 33
SWIDTH 280 0
DWIDTH 7 0
BBX 3 18 2 0
BITMAP
E0
E0
E0
E0
E0
E0
E0
E0
E0
E0
E0
C0
C0
00
00
E0
E0
E0
ENDCHAR
STARTCHAR 0022
ENCODING 34
SWIDTH 440 0
DWIDTH 11 0
BBX 7 7 2 11
BITMAP
CE
CE
C6
C6
C6
C6
C6
ENDCHAR
STARTCHAR 0023
ENCODING 35
SWIDTH 640 0
DWIDTH 16 0
BBX 15 18 1 0
BITMAP
0630
0630
0630
0E30
0C30
7FFE
7FFE
0C60
0C60
1860
18C0
FFFC
FFFC
18C0
30C0
3180
3180
3180
ENDCHAR
STARTCHAR 0024
ENCODING 36
SWIDTH 560 0
DWIDTH 14 0
BBX 12 20 1 -1
BITMAP
0600
0600
1FC0
3FF0
7EE0
E600
E600
7600
7E00
3F80
0FE0
07E0
0670
0670
8670
F7E0
FFE0
3F00
0600
0600
ENDCHAR
STARTCHAR 0025
ENCODING 37
SWIDTH 840 0
DWIDTH 21 0
BBX 19 18 1 0
BITMAP
3C0700
7E0600
E60C00
C70C00
C31800
C33800
C33000
C77780
666FC0
7EECE0
3CCC60
019C60
019C60
031C60
030C60
060C60
0E0FC0
0C07C0
ENDCHAR
STARTCHAR 0026
ENCODING 38
SWIDTH 720 0
DWIDTH 18 0
BBX 17 18 1 0
BITMAP
0F8000
1FE000
38E000
306000
306000
38E000
1DC000
1F8000
1F0000
3F8300
73C700
E1E700
E0FE00
E07C00
E03C00
707E00
7FFF00
1FC780
ENDCHAR
STARTCHAR 0027
ENCODING 39
SWIDTH 240 0
DWIDTH 6 0
BBX 2 7 2 11
BITMAP
C0
C0
C0
C0
C0
C0
C0
ENDCHAR
STARTCHAR 0028
ENCODING 40
SWIDTH 320 0
DWIDTH 8 0
BBX 6 22 1 -4
BITMAP
1C
18
38
30
70
60
60
E0
E0
E0
E0
E0
E0
E0
E0
E0
60
70
70
38
18
1C
ENDCHAR
STARTCHAR 0029
ENCODING 41
SWIDTH 320 0
DWIDTH 8 0
BBX 6 22 1 -4
BITMAP
C0
60
70
30
38
38
18
18
1C
1C
1C
1C
1C
1C
1C
18
38
38
30
70
60
C0
ENDCHAR
STARTCHAR 002A
ENCODING 42
SWIDTH 560 0
DWIDTH 14 0
BBX 12 11 1 8
BITMAP
0E00
0600
0600
8610
F7F0
FFF0
0E00
1F00
1B80
39C0
3180
ENDCHAR
STARTCHAR 002B
ENCODING 43
SWIDTH 560 0
DWIDTH 14 0
BBX 12 12 1 3
BITMAP
0600
0600
0600
0600
0600
FFF0
FFF0
0600
0600
0600
0600
0600
ENDCHAR
STARTCHAR 002C
ENCODING 44
SWIDTH 280 0
DWIDTH 7 0
BBX 4 6 1 -3
BITMAP
70
70
60
60
E0
C0
ENDCHAR
STARTCHAR 002D
ENCODING 45
SWIDTH 320 0
DWIDTH 8 0
BBX 6 2 1 6
BITMAP
FC
FC
ENDCHAR
STARTCHAR 002E
ENCODING 46
SWIDTH 280 0
DWIDTH 7 0
BBX 3 3 2 0
BITMAP
E0
E0
E0
ENDCHAR
STARTCHAR 002F
ENCODING 47
SWIDTH 400 0
DWIDTH 10 0
BBX 9 18 0 0
BITMAP
0180
0380
0380
0300
0700
0600
0E00
0E00
0C00
1C00
1C00
1800
3800
3000
3000
7000
6000
E000
ENDCHAR
STARTCHAR 0030
ENCODING 48
SWIDTH 560 0
DWIDTH 14 0
BBX 12 18 1 0
BITMAP
1F80
3FC0
78E0
7060
6070
E070
E070
E070
E070
E070
E070
E070
E070
6070
7060
70E0
3FC0
1F80
ENDCHAR
STARTCHAR 0031
ENCODING 49
SWIDTH 560 0
DWIDTH 14 0
BBX 7 18 2 0
BITMAP
06
1E
3E
76
E6
46
06
06
06
06
06
06
06
06
06
06
06
06
ENDCHAR
STARTCHAR 0032
ENCODING 50
SWIDTH 560 0
DWIDTH 14 0
BBX 12 18 1 0
BITMAP
1F80
7FC0
F1E0
40E0
0060
0060
0060
00E0
01C0
0380
0780
0700
0E00
1C00
3800
7000
FFF0
FFF0
ENDCHAR
STARTCHAR 0033
ENCODING 51
SWIDTH 560 0
DWIDTH 14 0
BBX 12 18 1 0
BITMAP
3F80
FFC0
70E0
4060
0060
0060
00E0
03C0
1F00
1FC0
00E0
0070
0070
0070
0070
C0E0
FFE0
7F80
ENDCHAR
STARTCHAR 0034
ENCODING 52
SWIDTH 560 0
DWIDTH 14 0
BBX 14 18 0 0
BITMAP
00E0
00E0
01E0
03E0
0360
0660
0E60
0C60
1860
3860
7060
6060
FFFC
FFFC
0060
0060
0060
0060
ENDCHAR
STARTCHAR 0035
ENCODING 53
SWIDTH 560 0
DWIDTH 14 0
BBX 12 18 1 0
BITMAP
7FE0
7FE0
7FE0
7000
7000
7000
7000
7F80
7FE0
21E0
0070
0070
0070
0070
0070
C0E0
FFC0
7F80
ENDCHAR
STARTCHAR 0036
ENCODING 54
SWIDTH 560 0
DWIDTH 14 0
BBX 12 18 1 0
BITMAP
07E0
1FE0
3C00
3800
7000
6000
6000
EFC0
FFE0
F070
E070
E030
E030
6070
7070
78E0
3FE0
1FC0
ENDCHAR
STARTCHAR 0037
ENCODING 55
SWIDTH 560 0
DWIDTH 14 0
BBX 12 18 1 0
BITMAP
FFF0
FFF0
FFF0
0070
00E0
00E0
01C0
01C0
0180
0380
0300
0700
0700
0E00
0E00
1C00
1C00
3800
ENDCHAR
STARTCHAR 0038
ENCODING 56
SWIDTH 560 0
DWIDTH 14 0
BBX 12 18 1 0
BITMAP
1F80
3FE0
70E0
6070
6070
6060
70E0
3FC0
1F00
3FC0
71E0
6070
E070
E030
E070
7070
7FE0
3FC0
ENDCHAR
STARTCHAR 0039
ENCODING 57
SWIDTH 560 0
DWIDTH 14 0
BBX 12 18 1 0
BITMAP
1F80
3FC0
71E0
E060
E070
E070
E070
E070
70F0
7FB0
3F70
0070
0070
0060
00E0
01C0
7F80
7F00
ENDCHAR
STARTCHAR 003A
ENCODING 58
SWIDTH 280 0
DWIDTH 7 0
BBX 3 14 2 0
BITMAP
40
E0
E0
C0
00
00
00
00
00
00
00
E0
E0
E0
ENDCHAR
STARTCHAR 003B
ENCODING 59
SWIDTH 280 0
DWIDTH 7 0
BBX 4 17 1 -3
BITMAP
20
70
70
60
00
00
00
00
00
00
00
70
70
60
E0
C0
C0
ENDCHAR
STARTCHAR 003C
ENCODING 60
SWIDTH 560 0
DWIDTH 14 0
BBX 12 12 1 3
BITMAP
0030
00F0
03E0
0F80
3E00
F000
F000
7C00
0F80
03E0
00F0
0030
ENDCHAR
STARTCHAR 003D
ENCODING 61
SWIDTH 560 0
DWIDTH 14 0
BBX 12 7 1 5
BITMAP
FFF0
FFF0
0000
0000
0000
FFF0
FFF0
ENDCHAR
STARTCHAR 003E
ENCODING 62
SWIDTH 560 0
DWIDTH 14 0
BBX 12 12 1 3
BITMAP
C000
F000
7C00
0F00
03C0
00F0
0070
03E0
0F80
7C00
F000
C000
ENDCHAR
STARTCHAR 003F
ENCODING 63
SWIDTH 440 0
DWIDTH 11 0
BBX 11 18 0 0
BITMAP
3F00
FFC0
61C0
00C0
00E0
00C0
01C0
0380
0700
0E00
0C00
1C00
1C00
0000
0000
1C00
1C00
1C00
ENDCHAR
STARTCHAR 0040
ENCODING 64
SWIDTH 880 0
DWIDTH 22 0
BBX 20 20 1 -2
BITMAP
00FC00
07FF00
0F0380
1C00C0
380060
30FE60
61FE30
638E30
630E30
E70E30
C60E30
C70C30
E30E60
63BFE0
61F3C0
700000
300000
1C0100
0FFE00
03FC00
ENDCHAR
STARTCHAR 0041
ENCODING 65
SWIDTH 640 0
DWIDTH 16 0
BBX 16 18 0 0
BITMAP
01C0
03C0
03C0
07E0
0760
0670
0E70
0E30
0C38
1C38
1FFC
3FFC
3FFC
300E
700E
7006
6007
E007
ENDCHAR
STARTCHAR 0042
ENCODING 66
SWIDTH 640 0
DWIDTH 16 0
BBX 13 18 2 0
BITMAP
FF80
FFE0
E1F0
E070
E038
E030
E070
E1E0
FF80
FFF0
E070
E038
E038
E038
E038
E0F0
FFF0
FFC0
ENDCHAR
STARTCHAR 0043
ENCODING 67
SWIDTH 640 0
DWIDTH 16 0
BBX 14 18 1 0
BITMAP
03F8
0FFC
1F18
3800
7800
7000
7000
6000
E000
E000
6000
7000
7000
7000
3800
3E08
1FF8
07F8
ENDCHAR
STARTCHAR 0044
ENCODING 68
SWIDTH 720 0
DWIDTH 18 0
BBX 15 18 2 0
BITMAP
FF80
FFE0
E3F8
E038
E01C
E01C
E00E
E00E
E00E
E00E
E00E
E00E
E01C
E01C
E038
E1F8
FFE0
FF80
ENDCHAR
STARTCHAR 0045
ENCODING 69
SWIDTH 560 0
DWIDTH 14 0
BBX 10 18 2 0
BITMAP
FFC0
FFC0
E000
E000
E000
E000
E000
E000
FFC0
FFC0
E000
E000
E000
E000
E000
E000
FFC0
FFC0
ENDCHAR
STARTCHAR 0046
ENCODING 70
SWIDTH 520 0
DWIDTH 13 0
BBX 10 18 2 0
BITMAP
FFC0
FFC0
E000
E000
E000
E000
E000
E000
FFC0
FFC0
FFC0
E000
E000
E000
E000
E000
E000
E000
ENDCHAR
STARTCHAR 0047
ENCODING 71
SWIDTH 720 0
DWIDTH 18 0
BBX 15 18 1 0
BITMAP
03FC
0FFE
1F0C
3C00
7800
7000
7000
6000
E07E
E07E
607E
7006
7006
7006
3806
3E06
1FFE
07FE
ENDCHAR
STARTCHAR 0048
ENCODING 72
SWIDTH 760 0
DWIDTH 19 0
BBX 14 18 2 0
BITMAP
E00C
E00C
E00C
E00C
E00C
E00C
E00C
E00C
FFFC
FFFC
E00C
E00C
E00C
E00C
E00C
E00C
E00C
E00C
ENDCHAR
STARTCHAR 0049
ENCODING 73
SWIDTH 360 0
DWIDTH 9 0
BBX 7 18 1 0
BITMAP
FE
FE
38
38
38
38
38
38
38
38
38
38
38
38
38
38
FE
FE
ENDCHAR
STARTCHAR 004A
ENCODING 74
SWIDTH 280 0
DWIDTH 7 0
BBX 7 23 -2 -5
BITMAP
0E
0E
0E
0E
0E
0E
0E
0E
0E
0E
0E
0E
0E
0E
0E
0E
0E
0E
0E
0E
BC
FC
F0
ENDCHAR
STARTCHAR 004B
ENCODING 75
SWIDTH 640 0
DWIDTH 16 0
BBX 14 18 2 0
BITMAP
E03C
E070
E0F0
E0E0
E1C0
E380
E700
EE00
FE00
FF00
F780
E380
E1C0
E1E0
E0E0
E070
E038
E03C
ENDCHAR
STARTCHAR 004C
ENCODING 76
SWIDTH 520 0
DWIDTH 13 0
BBX 11 18 2 0
BITMAP
E000
E000
E000
E000
E000
E000
E000
E000
E000
E000
E000
E000
E000
E000
E000
E000
FFE0
FFE0
ENDCHAR
STARTCHAR 004D
ENCODING 77
SWIDTH 920 0
DWIDTH 23 0
BBX 19 18 2 0
BITMAP
F001E0
F803E0
F803E0
F807E0
FC06E0
EC06E0
EC0EE0
EE0CE0
E60CE0
E71CE0
E718E0
E318E0
E3B8E0
E1B0E0
E1F0E0
E1E0E0
E0E0E0
E0E0E0
ENDCHAR
STARTCHAR 004E
ENCODING 78
SWIDTH 760 0
DWIDTH 19 0
BBX 15 18 2 0
BITMAP
F006
F006
F806
FC06
FC06
EE06
E706
E706
E386
E386
E1C6
E0E6
E0E6
E076
E03E
E03E
E01E
E01E
ENDCHAR
STARTCHAR 004F
ENCODING 79
SWIDTH 800 0
DWIDTH 20 0
BBX 17 18 1 0
BITMAP
07F000
0FFC00
3E3E00
380700
700700
700380
700380
600380
E00380
E00380
600380
700380
700380
700700
380700
3C1E00
1FFC00
07F800
ENDCHAR
STARTCHAR 0050
ENCODING 80
SWIDTH 600 0
DWIDTH 15 0
BBX 12 18 2 0
BITMAP
FF00
FFC0
E3E0
E070
E070
E070
E070
E070
E0E0
FFE0
FF80
E000
E000
E000
E000
E000
E000
E000
ENDCHAR
STARTCHAR 0051
ENCODING 81
SWIDTH 800 0
DWIDTH 20 0
BBX 17 22 1 -4
BITMAP
07F000
0FFC00
3E3E00
380700
700700
700380
700380
600380
E00380
E00380
600380
700380
700380
700700
380700
3C1E00
1FFC00
07F800
003800
003C00
001E00
000F00
ENDCHAR
STARTCHAR 0052
ENCODING 82
SWIDTH 640 0
DWIDTH 16 0
BBX 14 18 2 0
BITMAP
FF00
FFE0
E3E0
E070
E070
E070
E070
E070
E3E0
FFC0
FF80
E180
E1C0
E0E0
E0E0
E070
E038
E03C
ENDCHAR
STARTCHAR 0053
ENCODING 83
SWIDTH 560 0
DWIDTH 14 0
BBX 12 18 1 0
BITMAP
1FC0
3FE0
78E0
6000
E000
6000
7000
7C00
3F00
0FC0
03E0
00E0
0070
0070
0060
C0E0
FFC0
7F80
ENDCHAR
STARTCHAR 0054
ENCODING 84
SWIDTH 560 0
DWIDTH 14 0
BBX 14 18 0 0
BITMAP
FFFC
FFFC
0300
0300
0300
0300
0300
0300
0300
0300
0300
0300
0300
0300
0300
0300
0300
0300
ENDCHAR
STARTCHAR 0055
ENCODING 85
SWIDTH 720 0
DWIDTH 18 0
BBX 14 18 2 0
BITMAP
E00C
E00C
E00C
E00C
E00C
E00C
E00C
E00C
E00C
E00C
E00C
E00C
E01C
E01C
701C
7838
3FF0
1FE0
ENDCHAR
STARTCHAR 0056
ENCODING 86
SWIDTH 600 0
DWIDTH 15 0
BBX 15 18 0 0
BITMAP
E00E
E00E
700E
701C
301C
381C
3838
1838
1C30
1C70
0C70
0E60
0EE0
06E0
07C0
07C0
03C0
0380
ENDCHAR
STARTCHAR 0057
ENCODING 87
SWIDTH 960 0
DWIDTH 24 0
BBX 23 18 0 0
BITMAP
E0380E
60380E
703C0E
707C0C
706C1C
306E1C
386E1C
38E618
38C638
18C738
1DC338
1DC330
1D83F0
0D83F0
0D81F0
0F01E0
0F01E0
0700E0
ENDCHAR
STARTCHAR 0058
ENCODING 88
SWIDTH 600 0
DWIDTH 15 0
BBX 15 18 0 0
BITMAP
F00E
701C
3838
1C38
1C70
0E60
06E0
07C0
0380
07C0
07C0
0EE0
0C70
1C70
3838
381C
701C
E00E
ENDCHAR
STARTCHAR 0059
ENCODING 89
SWIDTH 600 0
DWIDTH 15 0
BBX 15 18 0 0
BITMAP
E01E
701C
7038
3838
3870
1C70
1CE0
0EE0
07C0
07C0
0380
0380
0380
0380
0380
0380
0380
0380
ENDCHAR
STARTCHAR 005A
ENCODING 90
SWIDTH 560 0
DWIDTH 14 0
BBX 12 18 1 0
BITMAP
FFF0
FFF0
0070
00E0
00E0
01C0
0380
0380
0700
0E00
0E00
1C00
3800
3800
7000
E000
FFF0
FFF0
ENDCHAR
STARTCHAR 005B
ENCODING 91
SWIDTH 320 0
DWIDTH 8 0
BBX 6 22 2 -4
BITMAP
FC
FC
C0
C0
C0
C0
C0
C0
C0
C0
C0
C0
C0
C0
C0
C0
C0
C0
C0
C0
FC
FC
ENDCHAR
STARTCHAR 005C
ENCODING 92
SWIDTH 400 0
DWIDTH 10 0
BBX 9 18 0 0
BITMAP
E000
6000
7000
7000
3000
3800
1800
1800
1C00
0C00
0E00
0E00
0600
0700
0300
0300
0380
0180
ENDCHAR
STARTCHAR 005D
ENCODING 93
SWIDTH 320 0
DWIDTH 8 0
BBX 5 22 1 -4
BITMAP
F8
F8
18
18
18
18
18
18
18
18
18
18
18
18
18
18
18
18
18
18
F8
F8
ENDCHAR
STARTCHAR 005E
ENCODING 94
SWIDTH 560 0
DWIDTH 14 0
BBX 12 11 1 7
BITMAP
0600
0E00
0F00
0F00
1980
1980
30C0
30C0
6060
6060
C030
ENDCHAR
STARTCHAR 005F
ENCODING 95
SWIDTH 440 0
DWIDTH 11 0
BBX 11 2 0 -4
BITMAP
FFE0
FFE0
ENDCHAR
STARTCHAR 0060
ENCODING 96
SWIDTH 320 0
DWIDTH 8 0
BBX 6 4 1 15
BITMAP
E0
70
38
1C
ENDCHAR
STARTCHAR 0061
ENCODING 97
SWIDTH 560 0
DWIDTH 14 0
BBX 11 14 1 0
BITMAP
0700
3FC0
39E0
00E0
0060
0060
1FE0
7FE0
F060
E060
E0E0
E1E0
7FE0
3E60
ENDCHAR
STARTCHAR 0062
ENCODING 98
SWIDTH 640 0
DWIDTH 16 0
BBX 12 19 2 0
BITMAP
E000
E000
E000
E000
E000
E700
FFC0
FFE0
F070
E070
E070
E070
E070
E070
E070
E070
F0E0
DFE0
CFC0
ENDCHAR
STARTCHAR 0063
ENCODING 99
SWIDTH 480 0
DWIDTH 12 0
BBX 10 14 1 0
BITMAP
0780
1FC0
3FC0
7000
7000
E000
E000
E000
E000
E000
7000
7840
3FC0
1FC0
ENDCHAR
STARTCHAR 0064
ENCODING 100
SWIDTH 640 0
DWIDTH 16 0
BBX 12 19 1 0
BITMAP
0030
0030
0030
0030
0030
0630
3FB0
7DF0
7070
6070
E030
E030
E030
E030
E030
7070
7070
3FF0
1F30
ENDCHAR
STARTCHAR 0065
ENCODING 101
SWIDTH 560 0
DWIDTH 14 0
BBX 12 14 1 0
BITMAP
0700
1FC0
39E0
7070
6070
E070
FFF0
FFF0
E000
6000
7000
7820
3FE0
1FE0
ENDCHAR
STARTCHAR 0066
ENCODING 102
SWIDTH 360 0
DWIDTH 9 0
BBX 10 19 0 0
BITMAP
0FC0
1FC0
1C00
1800
1800
1800
FF80
FF80
1800
1800
1800
1800
1800
1800
1800
1800
1800
1800
1800
ENDCHAR
STARTCHAR 0067
ENCODING 103
SWIDTH 640 0
DWIDTH 16 0
BBX 12 20 1 -6
BITMAP
0600
3FB0
7FF0
7070
6070
E030
E030
E030
E030
E030
7070
7070
3FF0
1FB0
0030
0030
0070
60F0
7FE0
3F80
ENDCHAR
STARTCHAR 0068
ENCODING 104
SWIDTH 640 0
DWIDTH 16 0
BBX 12 19 2 0
BITMAP
E000
E000
E000
E000
E000
E700
FFE0
FDE0
F070
E070
E070
E070
E070
E070
E070
E070
E070
E070
E070
ENDCHAR
STARTCHAR 0069
ENCODING 105
SWIDTH 280 0
DWIDTH 7 0
BBX 3 19 2 0
BITMAP
40
E0
E0
00
00
00
E0
E0
E0
E0
E0
E0
E0
E0
E0
E0
E0
E0
E0
ENDCHAR
STARTCHAR 006A
ENCODING 106
SWIDTH 280 0
DWIDTH 7 0
BBX 6 25 -1 -6
BITMAP
08
1C
1C
00
00
00
1C
1C
1C
1C
1C
1C
1C
1C
1C
1C
1C
1C
1C
1C
1C
1C
38
F8
F0
ENDCHAR
STARTCHAR 006B
ENCODING 107
SWIDTH 560 0
DWIDTH 14 0
BBX 12 19 2 0
BITMAP
E000
E000
E000
E000
E000
E000
E1E0
E1C0
E380
E700
EE00
FC00
FE00
F700
E700
E380
E1C0
E0E0
E0F0
ENDCHAR
STARTCHAR 006C
ENCODING 108
SWIDTH 280 0
DWIDTH 7 0
BBX 3 19 2 0
BITMAP
E0
E0
E0
E0
E0
E0
E0
E0
E0
E0
E0
E0
E0
E0
E0
E0
E0
E0
E0
ENDCHAR
STARTCHAR 006D
ENCODING 109
SWIDTH 960 0
DWIDTH 24 0
BBX 20 14 2 0
BITMAP
070380
DFCFE0
FFFDE0
F0F070
E0F070
E06070
E06070
E06070
E06070
E06070
E06070
E06070
E06070
E06070
ENDCHAR
STARTCHAR 006E
ENCODING 110
SWIDTH 640 0
DWIDTH 16 0
BBX 12 14 2 0
BITMAP
0780
DFE0
FDE0
F070
E070
E070
E070
E070
E070
E070
E070
E070
E070
E070
ENDCHAR
STARTCHAR 006F
ENCODING 111
SWIDTH 600 0
DWIDTH 15 0
BBX 13 14 1 0
BITMAP
0700
1FE0
3DF0
7070
6038
E038
E038
E038
E038
6038
7030
7870
3FE0
1FC0
ENDCHAR
STARTCHAR 0070
ENCODING 112
SWIDTH 640 0
DWIDTH 16 0
BBX 12 20 2 -6
BITMAP
0700
DFC0
FFE0
F0F0
E070
E070
E070
E070
E070
E070
E070
F0E0
FFE0
EFC0
E000
E000
E000
E000
E000
E000
ENDCHAR
STARTCHAR 0071
ENCODING 113
SWIDTH 640 0
DWIDTH 16 0
BBX 12 20 1 -6
BITMAP
0600
3FB0
7DF0
7070
6070
E030
E030
E030
E030
E030
7070
7070
3FF0
1F30
0030
0030
0030
0030
0030
0030
ENDCHAR
STARTCHAR 0072
ENCODING 114
SWIDTH 440 0
DWIDTH 11 0
BBX 8 14 2 0
BITMAP
07
CF
DF
F0
E0
E0
E0
E0
E0
E0
E0
E0
E0
E0
ENDCHAR
STARTCHAR 0073
ENCODING 115
SWIDTH 480 0
DWIDTH 12 0
BBX 10 14 1 0
BITMAP
1F00
7FC0
FB80
E000
E000
7800
7E00
1F80
07C0
01C0
01C0
81C0
FF80
FF00
ENDCHAR
STARTCHAR 0074
ENCODING 116
SWIDTH 400 0
DWIDTH 10 0
BBX 9 17 0 0
BITMAP
1800
1800
1800
3800
FF80
FF80
3800
3800
3800
3800
3800
3800
3800
3800
3800
1F80
0F80
ENDCHAR
STARTCHAR 0075
ENCODING 117
SWIDTH 640 0
DWIDTH 16 0
BBX 12 13 2 0
BITMAP
E070
E070
E070
E070
E070
E070
E070
E070
E070
E0F0
F0F0
7FF0
3F70
ENDCHAR
STARTCHAR 0076
ENCODING 118
SWIDTH 520 0
DWIDTH 13 0
BBX 13 13 0 0
BITMAP
E038
6030
7070
3070
3860
38E0
18E0
1DC0
1DC0
0D80
0D80
0780
0700
ENDCHAR
STARTCHAR 0077
ENCODING 119
SWIDTH 800 0
DWIDTH 20 0
BBX 20 14 0 0
BITMAP
E07070
60F070
60F060
70F0E0
71F8E0
3198E0
3998C0
399DC0
3B8DC0
1B0D80
1B0D80
1F0F80
0E0780
0E0700
ENDCHAR
STARTCHAR 0078
ENCODING 120
SWIDTH 560 0
DWIDTH 14 0
BBX 13 13 0 0
BITMAP
7078
3870
1CE0
1DC0
0FC0
0780
0780
0F80
1DC0
1CE0
3860
7070
F038
ENDCHAR
STARTCHAR 0079
ENCODING 121
SWIDTH 520 0
DWIDTH 13 0
BBX 13 19 0 -6
BITMAP
E038
7030
7070
3070
3860
38E0
18E0
1CC0
0DC0
0D80
0F80
0780
0700
0700
0700
0E00
1E00
FC00
F800
ENDCHAR
STARTCHAR 007A
ENCODING 122
SWIDTH 480 0
DWIDTH 12 0
BBX 10 13 1 0
BITMAP
FFC0
FFC0
0380
0700
0700
0E00
1C00
1800
3800
7000
E000
FFC0
FFC0
ENDCHAR
STARTCHAR 007B
ENCODING 123
SWIDTH 400 0
DWIDTH 10 0
BBX 8 22 1 -4
BITMAP
07
1F
1C
18
18
18
18
18
18
38
F0
F0
78
18
18
18
18
18
18
1C
1F
07
ENDCHAR
STARTCHAR 007C
ENCODING 124
SWIDTH 560 0
DWIDTH 14 0
BBX 2 25 6 -6
BITMAP
C0
C0
C0
C0
C0
C0
C0
C0
C0
C0
C0
C0
C0
C0
C0
C0
C0
C0
C0
C0
C0
C0
C0
C0
C0
ENDCHAR
STARTCHAR 007D
ENCODING 125
SWIDTH 400 0
DWIDTH 10 0
BBX 8 22 1 -4
BITMAP
C0
F0
78
38
38
38
38
38
38
1C
0F
0F
1C
38
38
38
38
38
38
78
F0
E0
ENDCHAR
STARTCHAR 007E
ENCODING 126
SWIDTH 560 0
DWIDTH 14 0
BBX 12 4 1 7
BITMAP
3010
FE10
FFF0
81E0
ENDCHAR
STARTCHAR 00A0
ENCODING 160
SWIDTH 280 0
DWIDTH 7 0
BBX 0 0 0 0
BITMAP
ENDCHAR
STARTCHAR 00A1
ENCODING 161
SWIDTH 280 0
DWIDTH 7 0
BBX 3 19 2 -5
BITMAP
40
E0
E0
E0
00
00
C0
C0
C0
E0
E0
E0
E0
E0
E0
E0
E0
E0
E0
ENDCHAR
STARTCHAR 00A2
ENCODING 162
SWIDTH 560 0
DWIDTH 14 0
BBX 10 18 2 0
BITMAP
0600
0600
1FC0
3FC0
7840
7000
E000
E000
E000
E000
E000
E000
7000
7DC0
3FC0
0F80
0600
0600
ENDCHAR
STARTCHAR 00A3
ENCODING 163
SWIDTH 560 0
DWIDTH 14 0
BBX 13 18 1 0
BITMAP
07E0
1FF0
1C20
3800
3800
3800
3800
3800
FFC0
FFC0
3800
3800
3800
3800
3000
6000
FFF8
FFF8
ENDCHAR
STARTCHAR 00A4
ENCODING 164
SWIDTH 560 0
DWIDTH 14 0
BBX 12 11 1 3
BITMAP
E770
7FE0
39C0
3060
6060
6060
6060
30C0
7FE0
EF70
4020
ENDCHAR
STARTCHAR 00A5
ENCODING 165
SWIDTH 560 0
DWIDTH 14 0
BBX 14 18 0 0
BITMAP
E01C
7018
7038
3830
1870
1C60
0CE0
0EC0
07C0
3FF0
3FF0
0300
0300
3FF0
3FF0
0300
0300
0300
ENDCHAR
STARTCHAR 00A6
ENCODING 166
SWIDTH 560 0
DWIDTH 14 0
BBX 2 25 6 -6
BITMAP
C0
C0
C0
C0
C0
C0
C0
C0
C0
C0
00
00
00
00
00
C0
C0
C0
C0
C0
C0
C0
C0
C0
C0
ENDCHAR
STARTCHAR 00A7
ENCODING 167
SWIDTH 520 0
DWIDTH 13 0
BBX 10 19 1 0
BITMAP
3F80
7FC0
6080
6000
7000
3C00
3F00
6380
61C0
60C0
70C0
7DC0
1F80
0780
01C0
00C0
81C0
FF80
7F00
ENDCHAR
STARTCHAR 00A8
ENCODING 168
SWIDTH 600 0
DWIDTH 15 0
BBX 7 2 4 16
BITMAP
CE
CE
ENDCHAR
STARTCHAR 00A9
ENCODING 169
SWIDTH 840 0
DWIDTH 21 0
BBX 19 18 1 0
BITMAP
03F800
0F1E00
180300
304180
61F880
4310C0
460040
C60040
C60060
C60060
C60040
C60040
4308C0
63F8C0
306180
180300
0E0E00
07F800
ENDCHAR
STARTCHAR 00AA
ENCODING 170
SWIDTH 360 0
DWIDTH 9 0
BBX 7 9 1 9
BITMAP
7C
EE
06
3E
FE
C6
C6
FE
20
ENDCHAR
STARTCHAR 00AB
ENCODING 171
SWIDTH 560 0
DWIDTH 14 0
BBX 12 11 1 1
BITMAP
0860
1CF0
38C0
71C0
6380
E700
7380
39C0
38E0
1C70
0840
ENDCHAR
STARTCHAR 00AC
ENCODING 172
SWIDTH 560 0
DWIDTH 14 0
BBX 12 7 1 3
BITMAP
FFF0
FFF0
0030
0030
0030
0030
0030
ENDCHAR
STARTCHAR 00AD
ENCODING 173
SWIDTH 320 0
DWIDTH 8 0
BBX 6 2 1 6
BITMAP
FC
FC
ENDCHAR
STARTCHAR 00AE
ENCODING 174
SWIDTH 840 0
DWIDTH 21 0
BBX 19 18 1 0
BITMAP
03F800
0F1E00
180300
300180
63F080
4338C0
431840
C31840
C33860
C3F060
C33040
C33040
4318C0
6318C0
330D80
180300
0E0E00
07F800
ENDCHAR
STARTCHAR 00AF
ENCODING 175
SWIDTH 520 0
DWIDTH 13 0
BBX 13 2 0 19
BITMAP
FFF8
FFF8
ENDCHAR
STARTCHAR 00B0
ENCODING 176
SWIDTH 440 0
DWIDTH 11 0
BBX 8 8 1 10
BITMAP
3E
7F
C3
C1
C3
63
7E
1C
ENDCHAR
STARTCHAR 00B1
ENCODING 177
SWIDTH 560 0
DWIDTH 14 0
BBX 12 15 1 0
BITMAP
0600
0600
0600
0600
0600
FFF0
FFF0
0600
0600
0600
0600
0600
0000
FFF0
FFF0
ENDCHAR
STARTCHAR 00B2
ENCODING 178
SWIDTH 360 0
DWIDTH 9 0
BBX 7 11 1 10
BITMAP
FC
EE
06
06
0C
1C
38
70
E0
FE
FE
ENDCHAR
STARTCHAR 00B3
ENCODING 179
SWIDTH 360 0
DWIDTH 9 0
BBX 7 11 1 10
BITMAP
FC
CE
06
06
7C
7C
06
06
86
FC
78
ENDCHAR
STARTCHAR 00B4
ENCODING 180
SWIDTH 320 0
DWIDTH 8 0
BBX 6 4 1 15
BITMAP
3C
70
60
C0
ENDCHAR
STARTCHAR 00B5
ENCODING 181
SWIDTH 640 0
DWIDTH 16 0
BBX 12 19 2 -6
BITMAP
E070
E070
E070
E070
E070
E070
E070
E070
E070
E070
F0F0
FFF0
FF30
E000
E000
E000
E000
E000
E000
ENDCHAR
STARTCHAR 00B6
ENCODING 182
SWIDTH 640 0
DWIDTH 16 0
BBX 13 22 1 -3
BITMAP
1FF8
3FF8
7F98
7F98
FF98
FF98
FF98
FF98
7F98
7F98
7F98
3F98
0198
0198
0198
0198
0198
0198
0198
0198
0198
0198
ENDCHAR
STARTCHAR 00B7
ENCODING 183
SWIDTH 280 0
DWIDTH 7 0
BBX 3 3 2 7
BITMAP
E0
E0
E0
ENDCHAR
STARTCHAR 00B8
ENCODING 184
SWIDTH 200 0
DWIDTH 5 0
BBX 5 6 0 -6
BITMAP
30
70
38
18
F8
F0
ENDCHAR
STARTCHAR 00B9
ENCODING 185
SWIDTH 360 0
DWIDTH 9 0
BBX 5 11 1 10
BITMAP
18
78
F8
58
18
18
18
18
18
18
18
ENDCHAR
STARTCHAR 00BA
ENCODING 186
SWIDTH 400 0
DWIDTH 10 0
BBX 8 9 1 9
BITMAP
3C
FE
C2
C3
C3
C3
C6
7E
10
ENDCHAR
STARTCHAR 00BB
ENCODING 187
SWIDTH 560 0
DWIDTH 14 0
BBX 12 11 1 1
BITMAP
4300
E700
7380
39C0
1CE0
1C70
38E0
39C0
7380
E700
4100
ENDCHAR
STARTCHAR 00BC
ENCODING 188
SWIDTH 760 0
DWIDTH 19 0
BBX 18 18 1 0
BITMAP
180600
780C00
F80C00
981800
183800
183000
186000
186380
18C780
19C780
198F80
031B80
031B80
063380
0E7FC0
0C7FC0
180380
380380
ENDCHAR
STARTCHAR 00BD
ENCODING 189
SWIDTH 800 0
DWIDTH 20 0
BBX 18 18 1 0
BITMAP
380E00
780C00
D81800
983800
183000
186000
186000
18CF00
19DFC0
1990C0
1B80C0
0301C0
060180
060300
0C0600
1C0C00
181FC0
301FC0
ENDCHAR
STARTCHAR 00BE
ENCODING 190
SWIDTH 800 0
DWIDTH 20 0
BBX 19 18 1 0
BITMAP
7C0300
FE0600
860600
060C00
1C1C00
7C1800
063000
063180
866380
FEE380
FCC780
018D80
019980
031980
073FE0
063FE0
0E0180
1C0180
ENDCHAR
STARTCHAR 00BF
ENCODING 191
SWIDTH 440 0
DWIDTH 11 0
BBX 10 19 1 -5
BITMAP
0400
0E00
0E00
0E00
0000
0000
0E00
0E00
0C00
1C00
3800
7000
E000
C000
C000
C080
FF80
7FC0
1E00
ENDCHAR
STARTCHAR 00C0
ENCODING 192
SWIDTH 640 0
DWIDTH 16 0
BBX 16 23 0 0
BITMAP
0700
0380
0180
00C0
0000
01C0
03C0
03C0
07E0
0760
0670
0E70
0E30
0C38
1C38
1FFC
3FFC
3FFC
300E
700E
7006
6007
E007
ENDCHAR
STARTCHAR 00C1
ENCODING 193
SWIDTH 640 0
DWIDTH 16 0
BBX 16 23 0 0
BITMAP
0070
00E0
01C0
0180
0000
01C0
03C0
03C0
07E0
0760
0670
0E70
0E30
0C38
1C38
1FFC
3FFC
3FFC
300E
700E
7006
6007
E007
ENDCHAR
STARTCHAR 00C2
ENCODING 194
SWIDTH 640 0
DWIDTH 16 0
BBX 16 23 0 0
BITMAP
03C0
07E0
0670
0C38
0000
01C0
03C0
03C0
07E0
0760
0670
0E70
0E30
0C38
1C38
1FFC
3FFC
3FFC
300E
700E
7006
6007
E007
ENDCHAR
STARTCHAR 00C3
ENCODING 195
SWIDTH 640 0
DWIDTH 16 0
BBX 16 23 0 0
BITMAP
0218
0F98
0FF0
1860
0000
01C0
03C0
03C0
07E0
0760
0670
0E70
0E30
0C38
1C38
1FFC
3FFC
3FFC
300E
700E
7006
6007
E007
ENDCHAR
STARTCHAR 00C4
ENCODING 196
SWIDTH 640 0
DWIDTH 16 0
BBX 16 22 0 0
BITMAP
0E70
0670
0000
0000
01C0
03C0
03C0
07E0
0760
0670
0E70
0E30
0C38
1C38
1FFC
3FFC
3FFC
300E
700E
7006
6007
E007
ENDCHAR
STARTCHAR 00C5
ENCODING 197
SWIDTH 640 0
DWIDTH 16 0
BBX 16 22 0 0
BITMAP
0080
03C0
0660
0660
03E0
03C0
03C0
07E0
0760
0670
0E70
0E30
0C38
1C38
1FFC
3FFC
3FFC
300E
700E
7006
6007
E007
ENDCHAR
STARTCHAR 00C6
ENCODING 198
SWIDTH 920 0
DWIDTH 23 0
BBX 21 18 0 0
BITMAP
00FFF8
00FFF8
01FC00
019C00
039C00
039C00
071C00
071C00
0E1FF8
0E1FF8
1FFC00
1FFC00
1FFC00
381C00
301C00
701C00
601FF8
E01FF8
ENDCHAR
STARTCHAR 00C7
ENCODING 199
SWIDTH 640 0
DWIDTH 16 0
BBX 14 24 1 -6
BITMAP
03F8
0FFC
1F18
3800
7800
7000
7000
6000
E000
E000
6000
7000
7000
7000
3800
3E08
1FF8
07F8
0180
01C0
00E0
0060
03E0
03C0
ENDCHAR
STARTCHAR 00C8
ENCODING 200
SWIDTH 560 0
DWIDTH 14 0
BBX 10 23 2 0
BITMAP
3800
1C00
0E00
0700
0000
FFC0
FFC0
E000
E000
E000
E000
E000
E000
FFC0
FFC0
E000
E000
E000
E000
E000
E000
FFC0
FFC0
ENDCHAR
STARTCHAR 00C9
ENCODING 201
SWIDTH 560 0
DWIDTH 14 0
BBX 10 23 2 0
BITMAP
03C0
0380
0700
0C00
0000
FFC0
FFC0
E000
E000
E000
E000
E000
E000
FFC0
FFC0
E000
E000
E000
E000
E000
E000
FFC0
FFC0
ENDCHAR
STARTCHAR 00CA
ENCODING 202
SWIDTH 560 0
DWIDTH 14 0
BBX 10 23 2 0
BITMAP
0E00
1F00
3B80
60C0
0000
FFC0
FFC0
E000
E000
E000
E000
E000
E000
FFC0
FFC0
E000
E000
E000
E000
E000
E000
FFC0
FFC0
ENDCHAR
STARTCHAR 00CB
ENCODING 203
SWIDTH 560 0
DWIDTH 14 0
BBX 10 22 2 0
BITMAP
3980
3180
0000
0000
FFC0
FFC0
E000
E000
E000
E000
E000
E000
FFC0
FFC0
E000
E000
E000
E000
E000
E000
FFC0
FFC0
ENDCHAR
STARTCHAR 00CC
ENCODING 204
SWIDTH 360 0
DWIDTH 9 0
BBX 7 23 1 0
BITMAP
E0
70
38
18
00
FE
FE
38
38
38
38
38
38
38
38
38
38
38
38
38
38
FE
FE
ENDCHAR
STARTCHAR 00CD
ENCODING 205
SWIDTH 360 0
DWIDTH 9 0
BBX 8 23 1 0
BITMAP
0F
1C
18
30
00
FE
FE
38
38
38
38
38
38
38
38
38
38
38
38
38
38
FE
FE
ENDCHAR
STARTCHAR 00CE
ENCODING 206
SWIDTH 360 0
DWIDTH 9 0
BBX 9 23 0 0
BITMAP
1C00
3E00
7700
C180
0000
7F00
7F00
1C00
1C00
1C00
1C00
1C00
1C00
1C00
1C00
1C00
1C00
1C00
1C00
1C00
1C00
7F00
7F00
ENDCHAR
STARTCHAR 00CF
ENCODING 207
SWIDTH 360 0
DWIDTH 9 0
BBX 7 22 1 0
BITMAP
CE
C6
00
00
FE
FE
38
38
38
38
38
38
38
38
38
38
38
38
38
38
FE
FE
ENDCHAR
STARTCHAR 00D0
ENCODING 208
SWIDTH 720 0
DWIDTH 18 0
BBX 16 18 1 0
BITMAP
7FC0
7FF0
71FC
701C
700E
700E
7007
7007
FF07
FF07
7007
7007
700E
700E
701C
70FC
7FF0
7FC0
ENDCHAR
STARTCHAR 00D1
ENCODING 209
SWIDTH 760 0
DWIDTH 19 0
BBX 15 23 2 0
BITMAP
0410
0F30
1FF0
10E0
0000
F006
F006
F806
FC06
FC06
EE06
E706
E706
E386
E386
E1C6
E0E6
E0E6
E076
E03E
E03E
E01E
E01E
ENDCHAR
STARTCHAR 00D2
ENCODING 210
SWIDTH 800 0
DWIDTH 20 0
BBX 17 23 1 0
BITMAP
078000
038000
01C000
006000
000000
07F000
0FFC00
3E3E00
380700
700700
700380
700380
600380
E00380
E00380
600380
700380
700380
700700
380700
3C1E00
1FFC00
07F800
ENDCHAR
STARTCHAR 00D3
ENCODING 211
SWIDTH 800 0
DWIDTH 20 0
BBX 17 23 1 0
BITMAP
007800
007000
00E000
01C000
000000
07F000
0FFC00
3E3E00
380700
700700
700380
700380
600380
E00380
E00380
600380
700380
700380
700700
380700
3C1E00
1FFC00
07F800
ENDCHAR
STARTCHAR 00D4
ENCODING 212
SWIDTH 800 0
DWIDTH 20 0
BBX 17 23 1 0
BITMAP
01E000
03E000
073000
0E1800
000000
07F000
0FFC00
3E3E00
380700
700700
700380
700380
600380
E00380
E00380
600380
700380
700380
700700
380700
3C1E00
1FFC00
07F800
ENDCHAR
STARTCHAR 00D5
ENCODING 213
SWIDTH 800 0
DWIDTH 20 0
BBX 17 23 1 0
BITMAP
010C00
07C800
0FF800
0C7000
000000
07F000
0FFC00
3E3E00
380700
700700
700380
700380
600380
E00380
E00380
600380
700380
700380
700700
380700
3C1E00
1FFC00
07F800
ENDCHAR
STARTCHAR 00D6
ENCODING 214
SWIDTH 800 0
DWIDTH 20 0
BBX 17 22 1 0
BITMAP
073800
073000
000000
000000
07F000
0FFC00
3E3E00
380700
700700
700380
700380
600380
E00380
E00380
600380
700380
700380
700700
380700
3C1E00
1FFC00
07F800
ENDCHAR
STARTCHAR 00D7
ENCODING 215
SWIDTH 560 0
DWIDTH 14 0
BBX 11 11 2 3
BITMAP
C0C0
E1E0
7380
3F00
1E00
1E00
3F00
7380
E1C0
C0E0
4040
ENDCHAR
STARTCHAR 00D8
ENCODING 216
SWIDTH 800 0
DWIDTH 20 0
BBX 17 20 1 -1
BITMAP
000200
07F300
0FFE00
3E1E00
381F00
701F00
703380
707380
606380
E0C380
E1C380
618380
730380
770380
7E0700
3C0700
3E1E00
3FFC00
37F800
100000
ENDCHAR
STARTCHAR 00D9
ENCODING 217
SWIDTH 720 0
DWIDTH 18 0
BBX 14 23 2 0
BITMAP
0E00
0700
0300
0180
0000
E00C
E00C
E00C
E00C
E00C
E00C
E00C
E00C
E00C
E00C
E00C
E00C
E01C
E01C
701C
7838
3FF0
1FE0
ENDCHAR
STARTCHAR 00DA
ENCODING 218
SWIDTH 720 0
DWIDTH 18 0
BBX 14 23 2 0
BITMAP
00E0
01C0
0180
0300
0000
E00C
E00C
E00C
E00C
E00C
E00C
E00C
E00C
E00C
E00C
E00C
E00C
E01C
E01C
701C
7838
3FF0
1FE0
ENDCHAR
STARTCHAR 00DB
ENCODING 219
SWIDTH 720 0
DWIDTH 18 0
BBX 14 23 2 0
BITMAP
0780
07C0
0CE0
1870
0000
E00C
E00C
E00C
E00C
E00C
E00C
E00C
E00C
E00C
E00C
E00C
E00C
E01C
E01C
701C
7838
3FF0
1FE0
ENDCHAR
STARTCHAR 00DC
ENCODING 220
SWIDTH 720 0
DWIDTH 18 0
BBX 14 22 2 0
BITMAP
0CE0
0CE0
0000
0000
E00C
E00C
E00C
E00C
E00C
E00C
E00C
E00C
E00C
E00C
E00C
E00C
E01C
E01C
701C
7838
3FF0
1FE0
ENDCHAR
STARTCHAR 00DD
ENCODING 221
SWIDTH 600 0
DWIDTH 15 0
BBX 15 23 0 0
BITMAP
00E0
01C0
0180
0300
0000
E01E
701C
7038
3838
3870
1C70
1CE0
0EE0
07C0
07C0
0380
0380
0380
0380
0380
0380
0380
0380
ENDCHAR
STARTCHAR 00DE
ENCODING 222
SWIDTH 600 0
DWIDTH 15 0
BBX 12 18 2 0
BITMAP
E000
E000
E000
FF00
FFC0
E3E0
E070
E070
E070
E070
E070
E0E0
FFE0
FF80
E000
E000
E000
E000
ENDCHAR
STARTCHAR 00DF
ENCODING 223
SWIDTH 640 0
DWIDTH 16 0
BBX 13 19 2 0
BITMAP
1F80
7FE0
F0F0
E070
E070
E0E0
E1C0
E380
E300
E380
E3C0
E1E0
E0F0
E038
E018
E018
E438
E7F8
E7F0
ENDCHAR
STARTCHAR 00E0
ENCODING 224
SWIDTH 560 0
DWIDTH 14 0
BBX 11 19 1 0
BITMAP
1C00
0E00
0600
0300
0000
0700
3FC0
39E0
00E0
0060
0060
1FE0
7FE0
F060
E060
E0E0
E1E0
7FE0
3E60
ENDCHAR
STARTCHAR 00E1
ENCODING 225
SWIDTH 560 0
DWIDTH 14 0
BBX 11 19 1 0
BITMAP
01C0
0380
0300
0600
0000
0700
3FC0
39E0
00E0
0060
0060
1FE0
7FE0
F060
E060
E0E0
E1E0
7FE0
3E60
ENDCHAR
STARTCHAR 00E2
ENCODING 226
SWIDTH 560 0
DWIDTH 14 0
BBX 11 19 1 0
BITMAP
0F00
0F80
19C0
30E0
0000
0700
3FC0
39E0
00E0
0060
0060
1FE0
7FE0
F060
E060
E0E0
E1E0
7FE0
3E60
ENDCHAR
STARTCHAR 00E3
ENCODING 227
SWIDTH 560 0
DWIDTH 14 0
BBX 11 19 1 0
BITMAP
0860
3E60
3FC0
6180
0000
0700
3FC0
39E0
00E0
0060
0060
1FE0
7FE0
F060
E060
E0E0
E1E0
7FE0
3E60
ENDCHAR
STARTCHAR 00E4
ENCODING 228
SWIDTH 560 0
DWIDTH 14 0
BBX 11 18 1 0
BITMAP
39C0
19C0
0000
0000
0700
3FC0
39E0
00E0
0060
0060
1FE0
7FE0
F060
E060
E0E0
E1E0
7FE0
3E60
ENDCHAR
STARTCHAR 00E5
ENCODING 229
SWIDTH 560 0
DWIDTH 14 0
BBX 11 21 1 0
BITMAP
0200
0F80
1980
1980
0F80
0700
0000
0700
3FC0
39E0
00E0
0060
0060
1FE0
7FE0
F060
E060
E0E0
E1E0
7FE0
3E60
ENDCHAR
STARTCHAR 00E6
ENCODING 230
SWIDTH 880 0
DWIDTH 22 0
BBX 20 14 1 0
BITMAP
0E0700
7FDFC0
39F9E0
00F060
00E070
00E070
1FFFF0
7FFFF0
F0E000
E0E000
E0F000
E1F820
7FBFE0
3F0FE0
ENDCHAR
STARTCHAR 00E7
ENCODING 231
SWIDTH 480 0
DWIDTH 12 0
BBX 10 20 1 -6
BITMAP
0780
1FC0
3FC0
7000
7000
E000
E000
E000
E000
E000
7000
7840
3FC0
1FC0
0600
0700
0B80
0180
0F80
0F00
ENDCHAR
STARTCHAR 00E8
ENCODING 232
SWIDTH 560 0
DWIDTH 14 0
BBX 12 19 1 0
BITMAP
1C00
0E00
0600
0300
0000
0700
1FC0
39E0
7070
6070
E070
FFF0
FFF0
E000
6000
7000
7820
3FE0
1FE0
ENDCHAR
STARTCHAR 00E9
ENCODING 233
SWIDTH 560 0
DWIDTH 14 0
BBX 12 19 1 0
BITMAP
01C0
0380
0300
0600
0000
0700
1FC0
39E0
7070
6070
E070
FFF0
FFF0
E000
6000
7000
7820
3FE0
1FE0
ENDCHAR
STARTCHAR 00EA
ENCODING 234
SWIDTH 560 0
DWIDTH 14 0
BBX 12 19 1 0
BITMAP
0F00
0F80
19C0
30E0
0000
0700
1FC0
39E0
7070
6070
E070
FFF0
FFF0
E000
6000
7000
7820
3FE0
1FE0
ENDCHAR
STARTCHAR 00EB
ENCODING 235
SWIDTH 560 0
DWIDTH 14 0
BBX 12 18 1 0
BITMAP
39C0
19C0
0000
0000
0700
1FC0
39E0
7070
6070
E070
FFF0
FFF0
E000
6000
7000
7820
3FE0
1FE0
ENDCHAR
STARTCHAR 00EC
ENCODING 236
SWIDTH 280 0
DWIDTH 7 0
BBX 5 19 0 0
BITMAP
E0
70
38
18
00
00
38
38
38
38
38
38
38
38
38
38
38
38
38
ENDCHAR
STARTCHAR 00ED
ENCODING 237
SWIDTH 280 0
DWIDTH 7 0
BBX 6 19 2 0
BITMAP
3C
70
60
C0
00
00
E0
E0
E0
E0
E0
E0
E0
E0
E0
E0
E0
E0
E0
ENDCHAR
STARTCHAR 00EE
ENCODING 238
SWIDTH 280 0
DWIDTH 7 0
BBX 9 19 -1 0
BITMAP
3C00
3E00
6700
C180
0000
0000
1C00
1C00
1C00
1C00
1C00
1C00
1C00
1C00
1C00
1C00
1C00
1C00
1C00
ENDCHAR
STARTCHAR 00EF
ENCODING 239
SWIDTH 280 0
DWIDTH 7 0
BBX 7 18 0 0
BITMAP
CE
C6
00
00
00
38
38
38
38
38
38
38
38
38
38
38
38
38
ENDCHAR
STARTCHAR 00F0
ENCODING 240
SWIDTH 600 0
DWIDTH 15 0
BBX 13 19 1 0
BITMAP
0C20
1EE0
07C0
0FC0
1CE0
08E0
0070
0FB0
3FF8
78F8
7038
E038
E038
E038
E038
6030
7070
3FE0
1FC0
ENDCHAR
STARTCHAR 00F1
ENCODING 241
SWIDTH 640 0
DWIDTH 16 0
BBX 12 19 2 0
BITMAP
0860
3E40
7FC0
6380
0000
0780
DFE0
FDE0
F070
E070
E070
E070
E070
E070
E070
E070
E070
E070
E070
ENDCHAR
STARTCHAR 00F2
ENCODING 242
SWIDTH 600 0
DWIDTH 15 0
BBX 13 19 1 0
BITMAP
1C00
0E00
0700
0380
0000
0700
1FE0
3DF0
7070
6038
E038
E038
E038
E038
6038
7030
7870
3FE0
1FC0
ENDCHAR
STARTCHAR 00F3
ENCODING 243
SWIDTH 600 0
DWIDTH 15 0
BBX 13 19 1 0
BITMAP
01E0
01C0
0380
0600
0000
0700
1FE0
3DF0
7070
6038
E038
E038
E038
E038
6038
7030
7870
3FE0
1FC0
ENDCHAR
STARTCHAR 00F4
ENCODING 244
SWIDTH 600 0
DWIDTH 15 0
BBX 13 19 1 0
BITMAP
0700
0F80
1DC0
3060
0000
0700
1FE0
3DF0
7070
6038
E038
E038
E038
E038
6038
7030
7870
3FE0
1FC0
ENDCHAR
STARTCHAR 00F5
ENCODING 245
SWIDTH 600 0
DWIDTH 15 0
BBX 13 19 1 0
BITMAP
0820
1E60
3FE0
21C0
0000
0700
1FE0
3DF0
7070
6038
E038
E038
E038
E038
6038
7030
7870
3FE0
1FC0
ENDCHAR
STARTCHAR 00F6
ENCODING 246
SWIDTH 600 0
DWIDTH 15 0
BBX 13 18 1 0
BITMAP
1CC0
1CC0
0000
0000
0700
1FE0
3DF0
7070
6038
E038
E038
E038
E038
6038
7030
7870
3FE0
1FC0
ENDCHAR
STARTCHAR 00F7
ENCODING 247
SWIDTH 560 0
DWIDTH 14 0
BBX 12 12 1 3
BITMAP
0200
0700
0700
0200
0000
FFF0
FFF0
0000
0000
0600
0700
0600
ENDCHAR
STARTCHAR 00F8
ENCODING 248
SWIDTH 600 0
DWIDTH 15 0
BBX 13 15 1 -1
BITMAP
0730
1FF0
3DE0
70F0
61F8
E1B8
E338
E738
E638
6C38
7C30
7870
3FE0
7FC0
2000
ENDCHAR
STARTCHAR 00F9
ENCODING 249
SWIDTH 640 0
DWIDTH 16 0
BBX 12 19 2 0
BITMAP
3C00
1C00
0600
0300
0000
0000
E070
E070
E070
E070
E070
E070
E070
E070
E070
E0F0
F0F0
7FF0
3F70
ENDCHAR
STARTCHAR 00FA
ENCODING 250
SWIDTH 640 0
DWIDTH 16 0
BBX 12 19 2 0
BITMAP
01C0
0380
0700
0E00
0000
0000
E070
E070
E070
E070
E070
E070
E070
E070
E070
E0F0
F0F0
7FF0
3F70
ENDCHAR
STARTCHAR 00FB
ENCODING 251
SWIDTH 640 0
DWIDTH 16 0
BBX 12 19 2 0
BITMAP
0F00
1F80
3980
70C0
0000
0000
E070
E070
E070
E070
E070
E070
E070
E070
E070
E0F0
F0F0
7FF0
3F70
ENDCHAR
STARTCHAR 00FC
ENCODING 252
SWIDTH 640 0
DWIDTH 16 0
BBX 12 18 2 0
BITMAP
39C0
3980
0000
0000
0000
E070
E070
E070
E070
E070
E070
E070
E070
E070
E0F0
F0F0
7FF0
3F70
ENDCHAR
STARTCHAR 00FD
ENCODING 253
SWIDTH 520 0
DWIDTH 13 0
BBX 13 25 0 -6
BITMAP
01E0
01C0
0380
0600
0000
0000
E038
7030
7070
3070
3860
38E0
18E0
1CC0
0DC0
0D80
0F80
0780
0700
0700
0700
0E00
1E00
FC00
F800
ENDCHAR
STARTCHAR 00FE
ENCODING 254
SWIDTH 640 0
DWIDTH 16 0
BBX 12 25 2 -6
BITMAP
E000
E000
E000
E000
E000
E700
FFC0
FFE0
F070
E070
E070
E070
E070
E070
E070
E070
F0E0
FFE0
EFC0
E000
E000
E000
E000
E000
E000
ENDCHAR
STARTCHAR 00FF
ENCODING 255
SWIDTH 520 0
DWIDTH 13 0
BBX 13 24 0 -6
BITMAP
1CC0
18C0
0000
0000
0000
E038
7030
7070
3070
3860
38E0
18E0
1CC0
0DC0
0D80
0F80
0780
0700
0700
0700
0E00
1E00
FC00
F800
ENDCHAR
STARTCHAR 0100
ENCODING 256
SWIDTH 640 0
DWIDTH 16 0
BBX 16 21 0 0
BITMAP
0FF0
0FF0
0000
01C0
03C0
03C0
07E0
0760
0670
0E70
0E30
0C38
1C38
1FFC
3FFC
3FFC
300E
700E
7006
6007
E007
ENDCHAR
STARTCHAR 0101
ENCODING 257
SWIDTH 560 0
DWIDTH 14 0
BBX 11 17 1 0
BITMAP
3FC0
3FC0
0000
0700
3FC0
39E0
00E0
0060
0060
1FE0
7FE0
F060
E060
E0E0
E1E0
7FE0
3E60
ENDCHAR
STARTCHAR 0102
ENCODING 258
SWIDTH 640 0
DWIDTH 16 0
BBX 16 23 0 0
BITMAP
0C10
0C30
07E0
03C0
0000
01C0
03C0
03C0
07E0
0760
0670
0E70
0E30
0C38
1C38
1FFC
3FFC
3FFC
300E
700E
7006
6007
E007
ENDCHAR
STARTCHAR 0103
ENCODING 259
SWIDTH 560 0
DWIDTH 14 0
BBX 11 19 1 0
BITMAP
3040
30C0
1F80
0F00
0000
0700
3FC0
39E0
00E0
0060
0060
1FE0
7FE0
F060
E060
E0E0
E1E0
7FE0
3E60
ENDCHAR
STARTCHAR 0104
ENCODING 260
SWIDTH 640 0
DWIDTH 16 0
BBX 16 24 0 -6
BITMAP
01C0
03C0
03C0
07E0
0760
0670
0E70
0E30
0C38
1C38
1FFC
3FFC
3FFC
300E
700E
7006
6007
E007
0006
000C
000C
000C
000F
0007
ENDCHAR
STARTCHAR 0105
ENCODING 261
SWIDTH 560 0
DWIDTH 14 0
BBX 12 20 1 -6
BITMAP
0700
3FC0
39E0
00E0
0060
0060
1FE0
7FE0
F060
E060
E0E0
E1E0
7FE0
3E60
0060
00C0
00C0
00C0
00F0
0070
ENDCHAR
STARTCHAR 0106
ENCODING 262
SWIDTH 640 0
DWIDTH 16 0
BBX 14 23 1 0
BITMAP
0078
0060
00C0
0180
0000
03F8
0FFC
1F18
3800
7800
7000
7000
6000
E000
E000
6000
7000
7000
7000
3800
3E08
1FF8
07F8
ENDCHAR
STARTCHAR 0107
ENCODING 263
SWIDTH 480 0
DWIDTH 12 0
BBX 10 19 1 0
BITMAP
01C0
0380
0700
0600
0000
0780
1FC0
3FC0
7000
7000
E000
E000
E000
E000
E000
7000
7840
3FC0
1FC0
ENDCHAR
STARTCHAR 0108
ENCODING 264
SWIDTH 640 0
DWIDTH 16 0
BBX 14 23 1 0
BITMAP
01C0
03E0
0670
0C18
0000
03F8
0FFC
1F18
3800
7800
7000
7000
6000
E000
E000
6000
7000
7000
7000
3800
3E08
1FF8
07F8
ENDCHAR
STARTCHAR 0109
ENCODING 265
SWIDTH 480 0
DWIDTH 12 0
BBX 11 19 1 0
BITMAP
0F00
1F80
19C0
30E0
0000
0780
1FC0
3FC0
7000
7000
E000
E000
E000
E000
E000
7000
7840
3FC0
1FC0
ENDCHAR
STARTCHAR 010A
ENCODING 266
SWIDTH 640 0
DWIDTH 16 0
BBX 14 23 1 0
BITMAP
0080
01C0
01C0
0000
0000
03F8
0FFC
1F18
3800
7800
7000
7000
6000
E000
E000
6000
7000
7000
7000
3800
3E08
1FF8
07F8
ENDCHAR
STARTCHAR 010B
ENCODING 267
SWIDTH 480 0
DWIDTH 12 0
BBX 10 19 1 0
BITMAP
0200
0700
0700
0000
0000
0780
1FC0
3FC0
7000
7000
E000
E000
E000
E000
E000
7000
7840
3FC0
1FC0
ENDCHAR
STARTCHAR 010C
ENCODING 268
SWIDTH 640 0
DWIDTH 16 0
BBX 14 23 1 0
BITMAP
0E38
0770
03E0
01C0
0000
03F8
0FFC
1F18
3800
7800
7000
7000
6000
E000
E000
6000
7000
7000
7000
3800
3E08
1FF8
07F8
ENDCHAR
STARTCHAR 010D
ENCODING 269
SWIDTH 480 0
DWIDTH 12 0
BBX 11 19 1 0
BITMAP
30E0
1980
0F80
0F00
0000
0780
1FC0
3FC0
7000
7000
E000
E000
E000
E000
E000
7000
7840
3FC0
1FC0
ENDCHAR
STARTCHAR 010E
ENCODING 270
SWIDTH 720 0
DWIDTH 18 0
BBX 15 23 2 0
BITMAP
1870
0CC0
0780
0780
0000
FF80
FFE0
E3F8
E038
E01C
E01C
E00E
E00E
E00E
E00E
E00E
E00E
E01C
E01C
E038
E1F8
FFE0
FF80
ENDCHAR
STARTCHAR 010F
ENCODING 271
SWIDTH 640 0
DWIDTH 16 0
BBX 17 19 1 0
BITMAP
003380
003300
003300
003600
003000
063000
3FB000
7DF000
707000
607000
E03000
E03000
E03000
E03000
E03000
707000
707000
3FF000
1F3000
ENDCHAR
STARTCHAR 0110
ENCODING 272
SWIDTH 720 0
DWIDTH 18 0
BBX 16 18 1 0
BITMAP
7FC0
7FF0
71FC
701C
700E
700E
7007
7007
FF07
FF07
7007
7007
700E
700E
701C
70FC
7FF0
7FC0
ENDCHAR
STARTCHAR 0111
ENCODING 273
SWIDTH 640 0
DWIDTH 16 0
BBX 14 19 1 0
BITMAP
0030
0030
07FC
07FC
0030
0030
1FB0
3FF0
7070
7070
E030
E030
E030
E030
E030
7070
7070
3FF0
1F30
ENDCHAR
STARTCHAR 0112
ENCODING 274
SWIDTH 560 0
DWIDTH 14 0
BBX 10 21 2 0
BITMAP
3F80
3F80
0000
FFC0
FFC0
E000
E000
E000
E000
E000
E000
FFC0
FFC0
E000
E000
E000
E000
E000
E000
FFC0
FFC0
ENDCHAR
STARTCHAR 0113
ENCODING 275
SWIDTH 560 0
DWIDTH 14 0
BBX 12 17 1 0
BITMAP
3FC0
3FC0
0000
0700
1FC0
39E0
7070
6070
E070
FFF0
FFF0
E000
6000
7000
7820
3FE0
1FE0
ENDCHAR
STARTCHAR 0114
ENCODING 276
SWIDTH 560 0
DWIDTH 14 0
BBX 10 23 2 0
BITMAP
60C0
3180
3F80
0E00
0000
FFC0
FFC0
E000
E000
E000
E000
E000
E000
FFC0
FFC0
E000
E000
E000
E000
E000
E000
FFC0
FFC0
ENDCHAR
STARTCHAR 0115
ENCODING 277
SWIDTH 560 0
DWIDTH 14 0
BBX 12 19 1 0
BITMAP
3040
30C0
1F80
0F00
0000
0700
1FC0
39E0
7070
6070
E070
FFF0
FFF0
E000
6000
7000
7820
3FE0
1FE0
ENDCHAR
STARTCHAR 0116
ENCODING 278
SWIDTH 560 0
DWIDTH 14 0
BBX 10 23 2 0
BITMAP
0400
0E00
0E00
0000
0000
FFC0
FFC0
E000
E000
E000
E000
E000
E000
FFC0
FFC0
E000
E000
E000
E000
E000
E000
FFC0
FFC0
ENDCHAR
STARTCHAR 0117
ENCODING 279
SWIDTH 560 0
DWIDTH 14 0
BBX 12 19 1 0
BITMAP
0200
0700
0700
0000
0000
0700
1FC0
39E0
7070
6070
E070
FFF0
FFF0
E000
6000
7000
7820
3FE0
1FE0
ENDCHAR
STARTCHAR 0118
ENCODING 280
SWIDTH 560 0
DWIDTH 14 0
BBX 10 24 2 -6
BITMAP
FFC0
FFC0
E000
E000
E000
E000
E000
E000
FFC0
FFC0
E000
E000
E000
E000
E000
E000
FFC0
FFC0
0180
0300
0300
0300
03C0
01C0
ENDCHAR
STARTCHAR 0119
ENCODING 281
SWIDTH 560 0
DWIDTH 14 0
BBX 12 20 1 -6
BITMAP
0700
1FC0
39E0
7070
6070
E070
FFF0
FFF0
E000
6000
7000
7820
3FE0
1FE0
00C0
0180
0180
0180
01E0
00E0
ENDCHAR
STARTCHAR 011A
ENCODING 282
SWIDTH 560 0
DWIDTH 14 0
BBX 10 23 2 0
BITMAP
71C0
3B80
1F00
0E00
0000
FFC0
FFC0
E000
E000
E000
E000
E000
E000
FFC0
FFC0
E000
E000
E000
E000
E000
E000
FFC0
FFC0
ENDCHAR
STARTCHAR 011B
ENCODING 283
SWIDTH 560 0
DWIDTH 14 0
BBX 12 19 1 0
BITMAP
30E0
1DC0
0F80
0700
0000
0700
1FC0
39E0
7070
6070
E070
FFF0
FFF0
E000
6000
7000
7820
3FE0
1FE0
ENDCHAR
STARTCHAR 011C
ENCODING 284
SWIDTH 720 0
DWIDTH 18 0
BBX 15 23 1 0
BITMAP
01E0
03F0
0338
061C
0000
03FC
0FFE
1F0C
3C00
7800
7000
7000
6000
E07E
E07E
607E
7006
7006
7006
3806
3E06
1FFE
07FE
ENDCHAR
STARTCHAR 011D
ENCODING 285
SWIDTH 640 0
DWIDTH 16 0
BBX 12 25 1 -6
BITMAP
0700
0F80
1DC0
3060
0000
0600
3FB0
7FF0
7070
6070
E030
E030
E030
E030
E030
7070
7070
3FF0
1FB0
0030
0030
0070
60F0
7FE0
3F80
ENDCHAR
STARTCHAR 011E
ENCODING 286
SWIDTH 720 0
DWIDTH 18 0
BBX 15 23 1 0
BITMAP
0608
0618
03F0
01E0
0000
03FC
0FFE
1F0C
3C00
7800
7000
7000
6000
E07E
E07E
607E
7006
7006
7006
3806
3E06
1FFE
07FE
ENDCHAR
STARTCHAR 011F
ENCODING 287
SWIDTH 640 0
DWIDTH 16 0
BBX 12 25 1 -6
BITMAP
3060
18C0
1FC0
0F00
0000
0600
3FB0
7FF0
7070
6070
E030
E030
E030
E030
E030
7070
7070
3FF0
1FB0
0030
0030
0070
60F0
7FE0
3F80
ENDCHAR
STARTCHAR 0120
ENCODING 288
SWIDTH 720 0
DWIDTH 18 0
BBX 15 23 1 0
BITMAP
0040
00E0
00E0
0000
0000
03FC
0FFE
1F0C
3C00
7800
7000
7000
6000
E07E
E07E
607E
7006
7006
7006
3806
3E06
1FFE
07FE
ENDCHAR
STARTCHAR 0121
ENCODING 289
SWIDTH 640 0
DWIDTH 16 0
BBX 12 25 1 -6
BITMAP
0200
0700
0700
0000
0000
0600
3FB0
7FF0
7070
6070
E030
E030
E030
E030
E030
7070
7070
3FF0
1FB0
0030
0030
0070
60F0
7FE0
3F80
ENDCHAR
STARTCHAR 0122
ENCODING 290
SWIDTH 720 0
DWIDTH 18 0
BBX 15 24 1 -6
BITMAP
03FC
0FFE
1F0C
3C00
7800
7000
7000
6000
E07E
E07E
607E
7006
7006
7006
3806
3E06
1FFE
07FE
0000
0020
00C0
00C0
0180
0180
ENDCHAR
STARTCHAR 0123
ENCODING 291
SWIDTH 640 0
DWIDTH 16 0
BBX 12 25 1 -6
BITMAP
0300
0300
0700
0600
0000
0600
3FB0
7FF0
7070
6070
E030
E030
E030
E030
E030
7070
7070
3FF0
1FB0
0030
0030
0070
60F0
7FE0
3F80
ENDCHAR
STARTCHAR 0124
ENCODING 292
SWIDTH 760 0
DWIDTH 19 0
BBX 14 23 2 0
BITMAP
0780
07C0
0CE0
1830
0000
E00C
E00C
E00C
E00C
E00C
E00C
E00C
E00C
FFFC
FFFC
E00C
E00C
E00C
E00C
E00C
E00C
E00C
E00C
ENDCHAR
STARTCHAR 0125
ENCODING 293
SWIDTH 640 0
DWIDTH 16 0
BBX 15 25 -1 0
BITMAP
1C00
3E00
7700
C180
0000
0000
1C00
1C00
1C00
1C00
1C00
1CE0
1FFC
1FBC
1E0E
1C0E
1C0E
1C0E
1C0E
1C0E
1C0E
1C0E
1C0E
1C0E
1C0E
ENDCHAR
STARTCHAR 0126
ENCODING 294
SWIDTH 760 0
DWIDTH 19 0
BBX 19 18 0 0
BITMAP
380300
380300
380300
FFFFE0
FFFFE0
380300
380300
380300
3FFF00
3FFF00
380300
380300
380300
380300
380300
380300
380300
380300
ENDCHAR
STARTCHAR 0127
ENCODING 295
SWIDTH 640 0
DWIDTH 16 0
BBX 14 19 0 0
BITMAP
3800
3800
FFC0
FFC0
3800
3800
3BF0
3FF8
3C38
381C
381C
381C
381C
381C
381C
381C
381C
381C
381C
ENDCHAR
STARTCHAR 0128
ENCODING 296
SWIDTH 360 0
DWIDTH 9 0
BBX 9 23 0 0
BITMAP
2080
7980
DF80
8700
0000
7F00
7F00
1C00
1C00
1C00
1C00
1C00
1C00
1C00
1C00
1C00
1C00
1C00
1C00
1C00
1C00
7F00
7F00
ENDCHAR
STARTCHAR 0129
ENCODING 297
SWIDTH 280 0
DWIDTH 7 0
BBX 9 19 -1 0
BITMAP
2080
F980
DF80
8700
0000
0000
1C00
1C00
1C00
1C00
1C00
1C00
1C00
1C00
1C00
1C00
1C00
1C00
1C00
ENDCHAR
STARTCHAR 012A
ENCODING 298
SWIDTH 360 0
DWIDTH 9 0
BBX 7 21 1 0
BITMAP
FE
FE
00
FE
FE
38
38
38
38
38
38
38
38
38
38
38
38
38
38
FE
FE
ENDCHAR
STARTCHAR 012B
ENCODING 299
SWIDTH 280 0
DWIDTH 7 0
BBX 7 17 0 0
BITMAP
FE
FE
00
00
38
38
38
38
38
38
38
38
38
38
38
38
38
ENDCHAR
STARTCHAR 012C
ENCODING 300
SWIDTH 360 0
DWIDTH 9 0
BBX 9 23 0 0
BITMAP
C180
6300
7F00
3C00
0000
7F00
7F00
1C00
1C00
1C00
1C00
1C00
1C00
1C00
1C00
1C00
1C00
1C00
1C00
1C00
1C00
7F00
7F00
ENDCHAR
STARTCHAR 012D
ENCODING 301
SWIDTH 280 0
DWIDTH 7 0
BBX 9 19 -1 0
BITMAP
C180
C300
7F00
3C00
0000
0000
1C00
1C00
1C00
1C00
1C00
1C00
1C00
1C00
1C00
1C00
1C00
1C00
1C00
ENDCHAR
STARTCHAR 012E
ENCODING 302
SWIDTH 360 0
DWIDTH 9 0
BBX 7 24 1 -6
BITMAP
FE
FE
38
38
38
38
38
38
38
38
38
38
38
38
38
38
FE
FE
0C
18
18
38
1E
0C
ENDCHAR
STARTCHAR 012F
ENCODING 303
SWIDTH 280 0
DWIDTH 7 0
BBX 4 25 1 -6
BITMAP
20
70
70
00
00
00
70
70
70
70
70
70
70
70
70
70
70
70
70
60
C0
C0
C0
F0
70
ENDCHAR
STARTCHAR 0130
ENCODING 304
SWIDTH 360 0
DWIDTH 9 0
BBX 7 23 1 0
BITMAP
10
38
38
00
00
FE
FE
38
38
38
38
38
38
38
38
38
38
38
38
38
38
FE
FE
ENDCHAR
STARTCHAR 0131
ENCODING 305
SWIDTH 280 0
DWIDTH 7 0
BBX 3 13 2 0
BITMAP
E0
E0
E0
E0
E0
E0
E0
E0
E0
E0
E0
E0
E0
ENDCHAR
STARTCHAR 0132
ENCODING 306
SWIDTH 640 0
DWIDTH 16 0
BBX 13 23 1 -5
BITMAP
FE38
FE38
3838
3838
3838
3838
3838
3838
3838
3838
3838
3838
3838
3838
3838
3838
FE38
FE38
0038
0038
02F0
03F0
03C0
ENDCHAR
STARTCHAR 0133
ENCODING 307
SWIDTH 560 0
DWIDTH 14 0
BBX 10 25 2 -6
BITMAP
4080
E1C0
E1C0
0000
0000
0000
E1C0
E1C0
E1C0
E1C0
E1C0
E1C0
E1C0
E1C0
E1C0
E1C0
E1C0
E1C0
E1C0
01C0
01C0
0180
0380
1F80
1F00
ENDCHAR
STARTCHAR 0134
ENCODING 308
SWIDTH 280 0
DWIDTH 7 0
BBX 10 28 -2 -5
BITMAP
0E00
1F00
3980
60C0
0000
0E00
0E00
0E00
0E00
0E00
0E00
0E00
0E00
0E00
0E00
0E00
0E00
0E00
0E00
0E00
0E00
0E00
0E00
0E00
0E00
BC00
FC00
F000
ENDCHAR
STARTCHAR 0135
ENCODING 309
SWIDTH 280 0
DWIDTH 7 0
BBX 9 25 -1 -6
BITMAP
3C00
3E00
6700
C180
0000
0000
1C00
1C00
1C00
1C00
1C00
1C00
1C00
1C00
1C00
1C00
1C00
1C00
1C00
1C00
1C00
1C00
3800
F800
F000
ENDCHAR
STARTCHAR 0136
ENCODING 310
SWIDTH 640 0
DWIDTH 16 0
BBX 14 24 2 -6
BITMAP
E03C
E070
E0F0
E0E0
E1C0
E380
E700
EE00
FE00
FF00
F780
E380
E1C0
E1E0
E0E0
E070
E038
E03C
0000
0000
0700
0600
0600
0400
ENDCHAR
STARTCHAR 0137
ENCODING 311
SWIDTH 560 0
DWIDTH 14 0
BBX 12 25 2 -6
BITMAP
E000
E000
E000
E000
E000
E000
E1E0
E1C0
E380
E700
EE00
FC00
FE00
F700
E700
E380
E1C0
E0E0
E0F0
0000
0200
0C00
0C00
1800
1800
ENDCHAR
STARTCHAR 0138
ENCODING 312
SWIDTH 560 0
DWIDTH 14 0
BBX 12 13 2 0
BITMAP
E0E0
E1C0
E380
E700
EE00
FC00
FE00
F700
E700
E380
E1C0
E0E0
E0F0
ENDCHAR
STARTCHAR 0139
ENCODING 313
SWIDTH 520 0
DWIDTH 13 0
BBX 11 23 2 0
BITMAP
3C00
3800
7000
C000
0000
E000
E000
E000
E000
E000
E000
E000
E000
E000
E000
E000
E000
E000
E000
E000
E000
FFE0
FFE0
ENDCHAR
STARTCHAR 013A
ENCODING 314
SWIDTH 280 0
DWIDTH 7 0
BBX 6 25 2 0
BITMAP
3C
70
60
C0
00
00
E0
E0
E0
E0
E0
E0
E0
E0
E0
E0
E0
E0
E0
E0
E0
E0
E0
E0
E0
ENDCHAR
STARTCHAR 013B
ENCODING 315
SWIDTH 520 0
DWIDTH 13 0
BBX 11 24 2 -6
BITMAP
E000
E000
E000
E000
E000
E000
E000
E000
E000
E000
E000
E000
E000
E000
E000
E000
FFE0
FFE0
0000
0000
0600
0E00
0C00
0800
ENDCHAR
STARTCHAR 013C
ENCODING 316
SWIDTH 280 0
DWIDTH 7 0
BBX 3 25 2 -6
BITMAP
E0
E0
E0
E0
E0
E0
E0
E0
E0
E0
E0
E0
E0
E0
E0
E0
E0
E0
E0
00
00
E0
C0
C0
80
ENDCHAR
STARTCHAR 013D
ENCODING 317
SWIDTH 520 0
DWIDTH 13 0
BBX 11 18 2 0
BITMAP
E0E0
E0C0
E0C0
E080
E000
E000
E000
E000
E000
E000
E000
E000
E000
E000
E000
E000
FFE0
FFE0
ENDCHAR
STARTCHAR 013E
ENCODING 318
SWIDTH 280 0
DWIDTH 7 0
BBX 7 19 2 0
BITMAP
EE
EE
EC
E8
E0
E0
E0
E0
E0
E0
E0
E0
E0
E0
E0
E0
E0
E0
E0
ENDCHAR
STARTCHAR 013F
ENCODING 319
SWIDTH 520 0
DWIDTH 13 0
BBX 11 18 2 0
BITMAP
E000
E000
E000
E000
E000
E000
E000
E100
E380
E180
E000
E000
E000
E000
E000
E000
FFE0
FFE0
ENDCHAR
STARTCHAR 0140
ENCODING 320
SWIDTH 280 0
DWIDTH 7 0
BBX 7 19 2 0
BITMAP
E0
E0
E0
E0
E0
E0
E0
E0
EC
EE
EE
E0
E0
E0
E0
E0
E0
E0
E0
ENDCHAR
STARTCHAR 0141
ENCODING 321
SWIDTH 520 0
DWIDTH 13 0
BBX 13 18 0 0
BITMAP
3800
3800
3800
3800
3800
3800
3900
3B80
3F00
3C00
F800
7800
7800
3800
3800
3800
3FF8
3FF8
ENDCHAR
STARTCHAR 0142
ENCODING 322
SWIDTH 280 0
DWIDTH 7 0
BBX 7 19 0 0
BITMAP
38
38
38
38
38
38
38
3C
3E
3C
78
F8
78
38
38
38
38
38
38
ENDCHAR
STARTCHAR 0143
ENCODING 323
SWIDTH 760 0
DWIDTH 19 0
BBX 15 23 2 0
BITMAP
00F0
00E0
01C0
0300
0000
F006
F006
F806
FC06
FC06
EE06
E706
E706
E386
E386
E1C6
E0E6
E0E6
E076
E03E
E03E
E01E
E01E
ENDCHAR
STARTCHAR 0144
ENCODING 324
SWIDTH 640 0
DWIDTH 16 0
BBX 12 19 2 0
BITMAP
01C0
0380
0700
0E00
0000
0780
DFE0
FDE0
F070
E070
E070
E070
E070
E070
E070
E070
E070
E070
E070
ENDCHAR
STARTCHAR 0145
ENCODING 325
SWIDTH 760 0
DWIDTH 19 0
BBX 15 24 2 -6
BITMAP
F006
F006
F806
FC06
FC06
EE06
E706
E706
E386
E386
E1C6
E0E6
E0E6
E076
E03E
E03E
E01E
E01E
0000
0000
0180
0380
0300
0200
ENDCHAR
STARTCHAR 0146
ENCODING 326
SWIDTH 640 0
DWIDTH 16 0
BBX 12 20 2 -6
BITMAP
0780
DFE0
FDE0
F070
E070
E070
E070
E070
E070
E070
E070
E070
E070
E070
0000
0100
0600
0600
0C00
0C00
ENDCHAR
STARTCHAR 0147
ENCODING 327
SWIDTH 760 0
DWIDTH 19 0
BBX 15 23 2 0
BITMAP
1C70
0EE0
07C0
0380
0000
F006
F006
F806
FC06
FC06
EE06
E706
E706
E386
E386
E1C6
E0E6
E0E6
E076
E03E
E03E
E01E
E01E
ENDCHAR
STARTCHAR 0148
ENCODING 328
SWIDTH 640 0
DWIDTH 16 0
BBX 12 19 2 0
BITMAP
70C0
1B80
1F00
0F00
0000
0780
DFE0
FDE0
F070
E070
E070
E070
E070
E070
E070
E070
E070
E070
E070
ENDCHAR
STARTCHAR 0149
ENCODING 329
SWIDTH 720 0
DWIDTH 18 0
BBX 16 18 0 0
BITMAP
7000
7000
6000
6000
E078
CDFE
0FDE
0F07
0E07
0E07
0E07
0E07
0E07
0E07
0E07
0E07
0E07
0E07
ENDCHAR
STARTCHAR 014A
ENCODING 330
SWIDTH 760 0
DWIDTH 19 0
BBX 15 23 2 -5
BITMAP
F006
F806
F806
FC06
FE06
EE06
E706
E786
E386
E1C6
E1E6
E0E6
E076
E03E
E03E
E01E
E00E
E00E
0006
000E
009E
00FC
00F0
ENDCHAR
STARTCHAR 014B
ENCODING 331
SWIDTH 640 0
DWIDTH 16 0
BBX 12 20 2 -6
BITMAP
0780
DFE0
FDE0
F070
E070
E070
E070
E070
E070
E070
E070
E070
E070
E070
0070
0070
0070
00F0
03E0
03C0
ENDCHAR
STARTCHAR 014C
ENCODING 332
SWIDTH 800 0
DWIDTH 20 0
BBX 17 21 1 0
BITMAP
07F800
07F800
000000
07F000
0FFC00
3E3E00
380700
700700
700380
700380
600380
E00380
E00380
600380
700380
700380
700700
380700
3C1E00
1FFC00
07F800
ENDCHAR
STARTCHAR 014D
ENCODING 333
SWIDTH 600 0
DWIDTH 15 0
BBX 13 17 1 0
BITMAP
1FC0
1FC0
0000
0700
1FE0
3DF0
7070
6038
E038
E038
E038
E038
6038
7030
7870
3FE0
1FC0
ENDCHAR
STARTCHAR 014E
ENCODING 334
SWIDTH 800 0
DWIDTH 20 0
BBX 17 23 1 0
BITMAP
041800
061800
07F000
01E000
000000
07F000
0FFC00
3E3E00
380700
700700
700380
700380
600380
E00380
E00380
600380
700380
700380
700700
380700
3C1E00
1FFC00
07F800
ENDCHAR
STARTCHAR 014F
ENCODING 335
SWIDTH 600 0
DWIDTH 15 0
BBX 13 19 1 0
BITMAP
3060
18C0
1FC0
0F80
0000
0700
1FE0
3DF0
7070
6038
E038
E038
E038
E038
6038
7030
7870
3FE0
1FC0
ENDCHAR
STARTCHAR 0150
ENCODING 336
SWIDTH 800 0
DWIDTH 20 0
BBX 17 23 1 0
BITMAP
03BC00
073000
067000
0C4000
000000
07F000
0FFC00
3E3E00
380700
700700
700380
700380
600380
E00380
E00380
600380
700380
700380
700700
380700
3C1E00
1FFC00
07F800
ENDCHAR
STARTCHAR 0151
ENCODING 337
SWIDTH 600 0
DWIDTH 15 0
BBX 13 19 1 0
BITMAP
0EE0
1CC0
1980
3300
0000
0700
1FE0
3DF0
7070
6038
E038
E038
E038
E038
6038
7030
7870
3FE0
1FC0
ENDCHAR
STARTCHAR 0152
ENCODING 338
SWIDTH 960 0
DWIDTH 24 0
BBX 21 18 1 0
BITMAP
07FFF8
1FFFF8
3E1C00
381C00
701C00
701C00
701C00
601C00
E01FF8
E01FF8
601C00
701C00
701C00
701C00
381C00
3C1C00
1FFFF8
07FFF8
ENDCHAR
STARTCHAR 0153
ENCODING 339
SWIDTH 960 0
DWIDTH 24 0
BBX 22 14 1 0
BITMAP
070380
1FCFF0
3DEE78
707C38
603818
E0381C
E03FFC
E03FFC
E03800
603800
707800
707C08
3FEFF8
1FC7F8
ENDCHAR
STARTCHAR 0154
ENCODING 340
SWIDTH 640 0
DWIDTH 16 0
BBX 14 23 2 0
BITMAP
01C0
0380
0700
0600
0000
FF00
FFE0
E3E0
E070
E070
E070
E070
E070
E3E0
FFC0
FF80
E180
E1C0
E0E0
E0E0
E070
E038
E03C
ENDCHAR
STARTCHAR 0155
ENCODING 341
SWIDTH 440 0
DWIDTH 11 0
BBX 8 19 2 0
BITMAP
07
0E
1C
18
00
07
CF
DF
F0
E0
E0
E0
E0
E0
E0
E0
E0
E0
E0
ENDCHAR
STARTCHAR 0156
ENCODING 342
SWIDTH 640 0
DWIDTH 16 0
BBX 14 24 2 -6
BITMAP
FF00
FFE0
E3E0
E070
E070
E070
E070
E070
E3E0
FFC0
FF80
E180
E1C0
E0E0
E0E0
E070
E038
E03C
0000
0000
0700
0600
0600
0400
ENDCHAR
STARTCHAR 0157
ENCODING 343
SWIDTH 440 0
DWIDTH 11 0
BBX 8 20 2 -6
BITMAP
07
CF
DF
F0
E0
E0
E0
E0
E0
E0
E0
E0
E0
E0
00
00
E0
C0
C0
80
ENDCHAR
STARTCHAR 0158
ENCODING 344
SWIDTH 640 0
DWIDTH 16 0
BBX 14 23 2 0
BITMAP
70E0
1980
0F00
0F00
0000
FF00
FFE0
E3E0
E070
E070
E070
E070
E070
E3E0
FFC0
FF80
E180
E1C0
E0E0
E0E0
E070
E038
E03C
ENDCHAR
STARTCHAR 0159
ENCODING 345
SWIDTH 440 0
DWIDTH 11 0
BBX 9 19 2 0
BITMAP
C380
6600
3C00
3C00
0000
0700
CF00
DF00
F000
E000
E000
E000
E000
E000
E000
E000
E000
E000
E000
ENDCHAR
STARTCHAR 015A
ENCODING 346
SWIDTH 560 0
DWIDTH 14 0
BBX 12 23 1 0
BITMAP
01C0
0380
0700
0600
0000
1FC0
3FE0
78E0
6000
E000
6000
7000
7C00
3F00
0FC0
03E0
00E0
0070
0070
0060
C0E0
FFC0
7F80
ENDCHAR
STARTCHAR 015B
ENCODING 347
SWIDTH 480 0
DWIDTH 12 0
BBX 10 19 1 0
BITMAP
0380
0700
0E00
0C00
0000
1F00
7FC0
FB80
E000
E000
7800
7E00
1F80
07C0
01C0
01C0
81C0
FF80
FF00
ENDCHAR
STARTCHAR 015C
ENCODING 348
SWIDTH 560 0
DWIDTH 14 0
BBX 12 23 1 0
BITMAP
0F00
1F80
19C0
30E0
0000
1FC0
3FE0
78E0
6000
E000
6000
7000
7C00
3F00
0FC0
03E0
00E0
0070
0070
0060
C0E0
FFC0
7F80
ENDCHAR
STARTCHAR 015D
ENCODING 349
SWIDTH 480 0
DWIDTH 12 0
BBX 10 19 1 0
BITMAP
1E00
3F00
3380
61C0
0000
1F00
7FC0
FB80
E000
E000
7800
7E00
1F80
07C0
01C0
01C0
81C0
FF80
FF00
ENDCHAR
STARTCHAR 015E
ENCODING 350
SWIDTH 560 0
DWIDTH 14 0
BBX 12 24 1 -6
BITMAP
1FC0
3FE0
78E0
6000
E000
6000
7000
7C00
3F00
0FC0
03E0
00E0
0070
0070
0060
C0E0
FFC0
7F80
0400
0E00
0700
0300
1F00
1E00
ENDCHAR
STARTCHAR 015F
ENCODING 351
SWIDTH 480 0
DWIDTH 12 0
BBX 10 20 1 -6
BITMAP
1F00
7FC0
FB80
E000
E000
7800
7E00
1F80
07C0
01C0
01C0
81C0
FF80
FF00
0C00
1C00
0600
0300
1E00
1C00
ENDCHAR
STARTCHAR 0160
ENCODING 352
SWIDTH 560 0
DWIDTH 14 0
BBX 12 23 1 0
BITMAP
30E0
1980
0F80
0F00
0000
1FC0
3FE0
78E0
6000
E000
6000
7000
7C00
3F00
0FC0
03E0
00E0
0070
0070
0060
C0E0
FFC0
7F80
ENDCHAR
STARTCHAR 0161
ENCODING 353
SWIDTH 480 0
DWIDTH 12 0
BBX 10 19 1 0
BITMAP
61C0
3300
1E00
1E00
0000
1F00
7FC0
FB80
E000
E000
7800
7E00
1F80
07C0
01C0
01C0
81C0
FF80
FF00
ENDCHAR
STARTCHAR 0162
ENCODING 354
SWIDTH 560 0
DWIDTH 14 0
BBX 14 24 0 -6
BITMAP
FFFC
FFFC
0300
0300
0300
0300
0300
0300
0300
0300
0300
0300
0300
0300
0300
0300
0300
0300
0300
0700
01C0
00C0
0780
0700
ENDCHAR
STARTCHAR 0163
ENCODING 355
SWIDTH 400 0
DWIDTH 10 0
BBX 9 23 0 -6
BITMAP
1800
1800
1800
3800
FF80
FF80
3800
3800
3800
3800
3800
3800
3800
3800
3800
1F80
0F80
0400
0E00
0700
0300
1F00
1E00
ENDCHAR
STARTCHAR 0164
ENCODING 356
SWIDTH 560 0
DWIDTH 14 0
BBX 14 23 0 0
BITMAP
3870
0CC0
0780
0780
0000
FFFC
FFFC
0300
0300
0300
0300
0300
0300
0300
0300
0300
0300
0300
0300
0300
0300
0300
0300
ENDCHAR
STARTCHAR 0165
ENCODING 357
SWIDTH 400 0
DWIDTH 10 0
BBX 13 19 0 0
BITMAP
0038
0030
1870
1860
1800
3800
FF80
FF80
3800
3800
3800
3800
3800
3800
3800
3800
3800
1F80
0F80
ENDCHAR
STARTCHAR 0166
ENCODING 358
SWIDTH 560 0
DWIDTH 14 0
BBX 14 18 0 0
BITMAP
FFFC
FFFC
FFFC
0300
0300
0300
0300
0300
3FF0
3FF0
0300
0300
0300
0300
0300
0300
0300
0300
ENDCHAR
STARTCHAR 0167
ENCODING 359
SWIDTH 400 0
DWIDTH 10 0
BBX 9 17 0 0
BITMAP
1800
1800
1800
3800
FF80
FF80
3800
3800
7F80
7F80
3800
3800
3800
3800
3800
1F80
0F80
ENDCHAR
STARTCHAR 0168
ENCODING 360
SWIDTH 720 0
DWIDTH 18 0
BBX 14 23 2 0
BITMAP
0410
1F30
1FE0
10C0
0000
E00C
E00C
E00C
E00C
E00C
E00C
E00C
E00C
E00C
E00C
E00C
E00C
E01C
E01C
701C
7838
3FF0
1FE0
ENDCHAR
STARTCHAR 0169
ENCODING 361
SWIDTH 640 0
DWIDTH 16 0
BBX 12 19 2 0
BITMAP
0860
3E40
7FC0
6380
0000
0000
E070
E070
E070
E070
E070
E070
E070
E070
E070
E0F0
F0F0
7FF0
3F70
ENDCHAR
STARTCHAR 016A
ENCODING 362
SWIDTH 720 0
DWIDTH 18 0
BBX 14 21 2 0
BITMAP
1FE0
1FE0
0000
E00C
E00C
E00C
E00C
E00C
E00C
E00C
E00C
E00C
E00C
E00C
E00C
E01C
E01C
701C
7838
3FF0
1FE0
ENDCHAR
STARTCHAR 016B
ENCODING 363
SWIDTH 640 0
DWIDTH 16 0
BBX 12 17 2 0
BITMAP
3FC0
3FC0
0000
0000
E070
E070
E070
E070
E070
E070
E070
E070
E070
E0F0
F0F0
7FF0
3F70
ENDCHAR
STARTCHAR 016C
ENCODING 364
SWIDTH 720 0
DWIDTH 18 0
BBX 14 23 2 0
BITMAP
1820
1860
0FE0
0780
0000
E00C
E00C
E00C
E00C
E00C
E00C
E00C
E00C
E00C
E00C
E00C
E00C
E01C
E01C
701C
7838
3FF0
1FE0
ENDCHAR
STARTCHAR 016D
ENCODING 365
SWIDTH 640 0
DWIDTH 16 0
BBX 12 19 2 0
BITMAP
20C0
30C0
3F80
0F00
0000
0000
E070
E070
E070
E070
E070
E070
E070
E070
E070
E0F0
F0F0
7FF0
3F70
ENDCHAR
STARTCHAR 016E
ENCODING 366
SWIDTH 720 0
DWIDTH 18 0
BBX 14 25 2 0
BITMAP
0300
07C0
0CC0
0CC0
07C0
0380
0000
E00C
E00C
E00C
E00C
E00C
E00C
E00C
E00C
E00C
E00C
E00C
E00C
E01C
E01C
701C
7838
3FF0
1FE0
ENDCHAR
STARTCHAR 016F
ENCODING 367
SWIDTH 640 0
DWIDTH 16 0
BBX 12 21 2 0
BITMAP
0400
1F00
1980
1980
1F00
0E00
0000
0000
E070
E070
E070
E070
E070
E070
E070
E070
E070
E0F0
F0F0
7FF0
3F70
ENDCHAR
STARTCHAR 0170
ENCODING 368
SWIDTH 720 0
DWIDTH 18 0
BBX 14 23 2 0
BITMAP
0E70
0CE0
18C0
3180
0000
E00C
E00C
E00C
E00C
E00C
E00C
E00C
E00C
E00C
E00C
E00C
E00C
E01C
E01C
701C
7838
3FF0
1FE0
ENDCHAR
STARTCHAR 0171
ENCODING 369
SWIDTH 640 0
DWIDTH 16 0
BBX 12 19 2 0
BITMAP
1CE0
39C0
3380
6300
0000
0000
E070
E070
E070
E070
E070
E070
E070
E070
E070
E0F0
F0F0
7FF0
3F70
ENDCHAR
STARTCHAR 0172
ENCODING 370
SWIDTH 720 0
DWIDTH 18 0
BBX 14 24 2 -6
BITMAP
E00C
E00C
E00C
E00C
E00C
E00C
E00C
E00C
E00C
E00C
E00C
E00C
E01C
E01C
701C
7838
3FF0
1FE0
0060
00C0
00C0
00C0
00F0
0070
ENDCHAR
STARTCHAR 0173
ENCODING 371
SWIDTH 640 0
DWIDTH 16 0
BBX 12 19 2 -6
BITMAP
E070
E070
E070
E070
E070
E070
E070
E070
E070
E0F0
F0F0
7FF0
3F70
0060
00C0
0180
01C0
00F0
0060
ENDCHAR
STARTCHAR 0174
ENCODING 372
SWIDTH 960 0
DWIDTH 24 0
BBX 23 23 0 0
BITMAP
003C00
007C00
00E600
01C300
000000
E0380E
60380E
703C0E
707C0C
706C1C
306E1C
386E1C
38E618
38C638
18C738
1DC338
1DC330
1D83F0
0D83F0
0D81F0
0F01E0
0F01E0
0700E0
ENDCHAR
STARTCHAR 0175
ENCODING 373
SWIDTH 800 0
DWIDTH 20 0
BBX 20 19 0 0
BITMAP
00F000
01F800
019C00
030E00
000000
E07070
60F070
60F060
70F0E0
71F8E0
3198E0
3998C0
399DC0
3B8DC0
1B0D80
1B0D80
1F0F80
0E0780
0E0700
ENDCHAR
STARTCHAR 0176
ENCODING 374
SWIDTH 600 0
DWIDTH 15 0
BBX 15 23 0 0
BITMAP
0780
07C0
0CE0
1870
0000
E01E
701C
7038
3838
3870
1C70
1CE0
0EE0
07C0
07C0
0380
0380
0380
0380
0380
0380
0380
0380
ENDCHAR
STARTCHAR 0177
ENCODING 375
SWIDTH 520 0
DWIDTH 13 0
BBX 13 25 0 -6
BITMAP
0700
0F80
1DC0
3060
0000
0000
E038
7030
7070
3070
3860
38E0
18E0
1CC0
0DC0
0D80
0F80
0780
0700
0700
0700
0E00
1E00
FC00
F800
ENDCHAR
STARTCHAR 0178
ENCODING 376
SWIDTH 600 0
DWIDTH 15 0
BBX 15 22 0 0
BITMAP
0CE0
0CE0
0000
0000
E01E
701C
7038
3838
3870
1C70
1CE0
0EE0
07C0
07C0
0380
0380
0380
0380
0380
0380
0380
0380
ENDCHAR
STARTCHAR 0179
ENCODING 377
SWIDTH 560 0
DWIDTH 14 0
BBX 12 23 1 0
BITMAP
01C0
0380
0300
0600
0000
FFF0
FFF0
0070
00E0
00E0
01C0
0380
0380
0700
0E00
0E00
1C00
3800
3800
7000
E000
FFF0
FFF0
ENDCHAR
STARTCHAR 017A
ENCODING 378
SWIDTH 480 0
DWIDTH 12 0
BBX 10 19 1 0
BITMAP
0380
0700
0E00
1C00
0000
0000
FFC0
FFC0
0380
0700
0700
0E00
1C00
1800
3800
7000
E000
FFC0
FFC0
ENDCHAR
STARTCHAR 017B
ENCODING 379
SWIDTH 560 0
DWIDTH 14 0
BBX 12 23 1 0
BITMAP
0200
0700
0700
0000
0000
FFF0
FFF0
0070
00E0
00E0
01C0
0380
0380
0700
0E00
0E00
1C00
3800
3800
7000
E000
FFF0
FFF0
ENDCHAR
STARTCHAR 017C
ENCODING 380
SWIDTH 480 0
DWIDTH 12 0
BBX 10 19 1 0
BITMAP
0800
1C00
0C00
0000
0000
0000
FFC0
FFC0
0380
0700
0700
0E00
1C00
1800
3800
7000
E000
FFC0
FFC0
ENDCHAR
STARTCHAR 017D
ENCODING 381
SWIDTH 560 0
DWIDTH 14 0
BBX 12 23 1 0
BITMAP
30E0
1DC0
0F80
0700
0000
FFF0
FFF0
0070
00E0
00E0
01C0
0380
0380
0700
0E00
0E00
1C00
3800
3800
7000
E000
FFF0
FFF0
ENDCHAR
STARTCHAR 017E
ENCODING 382
SWIDTH 480 0
DWIDTH 12 0
BBX 10 19 1 0
BITMAP
E180
3300
1E00
1E00
0000
0000
FFC0
FFC0
0380
0700
0700
0E00
1C00
1800
3800
7000
E000
FFC0
FFC0
ENDCHAR
STARTCHAR 017F
ENCODING 383
SWIDTH 360 0
DWIDTH 9 0
BBX 7 19 2 0
BITMAP
3E
7E
E0
E0
E0
E0
E0
E0
E0
E0
E0
E0
E0
E0
E0
E0
E0
E0
E0
ENDCHAR
STARTCHAR 0180
ENCODING 384
SWIDTH 640 0
DWIDTH 16 0
BBX 14 19 0 0
BITMAP
3800
3800
FFC0
FFC0
3800
3880
3FF0
3FF8
3C3C
381C
381C
381C
381C
381C
381C
381C
3C38
37F8
33F0
ENDCHAR
STARTCHAR 0181
ENCODING 385
SWIDTH 760 0
DWIDTH 19 0
BBX 17 18 0 0
BITMAP
3FF800
7FFF00
F61F00
E60380
E60380
060380
060300
061F00
07FC00
07FF00
060380
060380
060380
060380
060380
060780
07FF00
07FC00
ENDCHAR
STARTCHAR 0182
ENCODING 386
SWIDTH 640 0
DWIDTH 16 0
BBX 12 18 2 0
BITMAP
FFE0
FFE0
E000
E000
E000
E000
E000
FC00
FFC0
FFE0
E070
E070
E030
E070
E070
E1F0
FFE0
FF80
ENDCHAR
STARTCHAR 0183
ENCODING 387
SWIDTH 640 0
DWIDTH 16 0
BBX 12 19 2 0
BITMAP
FFE0
FFE0
E000
E000
E000
E200
FFC0
FFE0
F0F0
E070
E070
E070
E070
E070
E070
E070
F0E0
DFE0
CFC0
ENDCHAR
STARTCHAR 0184
ENCODING 388
SWIDTH 640 0
DWIDTH 16 0
BBX 13 18 2 0
BITMAP
E000
E000
E000
E000
E000
E000
E000
FC00
FFC0
FFF0
E070
E038
E038
E038
E038
7070
7FF0
1FC0
ENDCHAR
STARTCHAR 0185
ENCODING 389
SWIDTH 600 0
DWIDTH 15 0
BBX 12 19 2 0
BITMAP
E000
E000
E000
E000
E000
E700
FFC0
FFE0
F0F0
E070
E070
E070
E070
E070
E070
E070
70E0
3FE0
1F80
ENDCHAR
STARTCHAR 0186
ENCODING 390
SWIDTH 640 0
DWIDTH 16 0
BBX 13 18 1 0
BITMAP
7F80
FFC0
E3E0
0070
0078
0038
0038
0038
0038
0038
0038
0038
0038
0078
0070
C1E0
FFC0
FF80
ENDCHAR
STARTCHAR 0187
ENCODING 391
SWIDTH 640 0
DWIDTH 16 0
BBX 16 22 1 0
BITMAP
0003
000F
000F
000C
03FC
0FFC
1F18
3800
7800
7000
7000
6000
E000
E000
6000
7000
7000
7000
3800
3E08
1FF8
07F8
ENDCHAR
STARTCHAR 0188
ENCODING 392
SWIDTH 520 0
DWIDTH 13 0
BBX 13 19 1 0
BITMAP
0078
0078
00E0
00C0
00C0
07C0
1FC0
3FC0
7000
7000
E000
E000
E000
E000
E000
7000
7840
3FC0
1FC0
ENDCHAR
STARTCHAR 0189
ENCODING 393
SWIDTH 720 0
DWIDTH 18 0
BBX 16 18 1 0
BITMAP
7FC0
7FF0
71FC
701C
700E
700E
7007
7007
FF07
FF07
7007
7007
700E
700E
701C
70FC
7FF0
7FC0
ENDCHAR
STARTCHAR 018A
ENCODING 394
SWIDTH 840 0
DWIDTH 21 0
BBX 19 18 0 0
BITMAP
3FF800
7FFF00
F61F80
E603C0
E601C0
0600E0
0600E0
0600E0
0600E0
0600E0
0600E0
0600E0
0600E0
0601C0
0603C0
061F80
07FF00
07F800
ENDCHAR
STARTCHAR 018B
ENCODING 395
SWIDTH 640 0
DWIDTH 16 0
BBX 12 18 1 0
BITMAP
7FF0
7FF0
0070
0070
0070
0070
0070
01F0
1FF0
7FF0
7070
E070
E070
E070
F070
7870
3FF0
1FF0
ENDCHAR
STARTCHAR 018C
ENCODING 396
SWIDTH 640 0
DWIDTH 16 0
BBX 12 19 1 0
BITMAP
3FF0
3FF0
0030
0030
0030
0E30
3FB0
7FF0
7070
6070
E030
E030
E030
E030
E030
7070
7070
3FF0
1F30
ENDCHAR
STARTCHAR 018D
ENCODING 397
SWIDTH 600 0
DWIDTH 15 0
BBX 12 20 2 -6
BITMAP
0F00
3FC0
7BE0
E0F0
E070
C070
C070
C070
E070
E0E0
79C0
3F80
0F00
0780
01C0
01C0
41C0
FFC0
7F80
1E00
ENDCHAR
STARTCHAR 018E
ENCODING 398
SWIDTH 560 0
DWIDTH 14 0
BBX 11 18 1 0
BITMAP
FFE0
FFE0
00E0
00E0
00E0
00E0
00E0
00E0
7FE0
7FE0
00E0
00E0
00E0
00E0
00E0
00E0
FFE0
FFE0
ENDCHAR
STARTCHAR 018F
ENCODING 399
SWIDTH 760 0
DWIDTH 19 0
BBX 16 18 2 0
BITMAP
3FE0
7FF0
7078
801C
000E
000E
000E
0006
FFFF
FFFF
C006
E006
E00E
E00E
701C
783C
3FF8
0FE0
ENDCHAR
STARTCHAR 0190
ENCODING 400
SWIDTH 600 0
DWIDTH 15 0
BBX 13 18 1 0
BITMAP
0FE0
3FF8
7838
7010
7000
7000
3800
3E00
07E0
3FE0
7800
6000
E000
E000
E000
7818
3FF8
1FF0
ENDCHAR
STARTCHAR 0191
ENCODING 401
SWIDTH 600 0
DWIDTH 15 0
BBX 15 24 0 -6
BITMAP
07FE
07FE
0700
0700
0700
0700
0700
07FC
07FC
07FC
0700
0700
0700
0700
0700
0700
0700
0700
0700
C700
C700
EE00
FE00
7C00
ENDCHAR
STARTCHAR 0192
ENCODING 402
SWIDTH 440 0
DWIDTH 11 0
BBX 12 25 0 -6
BITMAP
01F0
03F0
0700
0700
0700
0700
1FE0
1FE0
0700
0700
0700
0700
0700
0700
0700
0700
0700
0700
0700
0700
C700
C700
CE00
FE00
7C00
ENDCHAR
STARTCHAR 0193
ENCODING 403
SWIDTH 720 0
DWIDTH 18 0
BBX 18 22 1 0
BITMAP
000180
0007C0
0007C0
000600
03FE00
0FFE00
1F0C00
3C0000
780000
700000
700000
600000
E07E00
E07E00
607E00
700600
700600
700600
380600
3E0600
1FFE00
07FE00
ENDCHAR
STARTCHAR 0194
ENCODING 404
SWIDTH 600 0
DWIDTH 15 0
BBX 15 24 0 -6
BITMAP
E00E
601C
701C
701C
3038
3838
1830
1C70
1C60
0CE0
0EE0
0EC0
07C0
0780
0380
0380
0780
07C0
06C0
0EC0
0EC0
0EC0
07C0
0380
ENDCHAR
STARTCHAR 0195
ENCODING 405
SWIDTH 960 0
DWIDTH 24 0
BBX 20 19 2 0
BITMAP
E00000
E00000
E00000
E00000
E00000
E70000
FFC070
FFE070
F0E070
E0E070
E06070
E06070
E06070
E06070
E06070
E07070
E070E0
E07FE0
E01FC0
ENDCHAR
STARTCHAR 0196
ENCODING 406
SWIDTH 360 0
DWIDTH 9 0
BBX 7 18 2 0
BITMAP
E0
E0
E0
E0
E0
E0
E0
E0
E0
E0
E0
E0
E0
E0
E0
F0
7E
3E
ENDCHAR
STARTCHAR 0197
ENCODING 407
SWIDTH 360 0
DWIDTH 9 0
BBX 7 18 1 0
BITMAP
FE
FE
38
38
38
38
38
38
FE
FE
38
38
38
38
38
38
FE
FE
ENDCHAR
STARTCHAR 0198
ENCODING 408
SWIDTH 640 0
DWIDTH 16 0
BBX 14 18 2 0
BITMAP
E038
E078
E0E0
E1C0
E1C0
E380
E700
EE00
FE00
FF00
F780
E380
E1C0
E0E0
E0E0
E070
E038
E03C
ENDCHAR
STARTCHAR 0199
ENCODING 409
SWIDTH 560 0
DWIDTH 14 0
BBX 12 19 2 0
BITMAP
7800
F800
E000
E000
E000
E000
E1E0
E1C0
E380
E700
EE00
FC00
FE00
F700
E700
E380
E1C0
E0E0
E0F0
ENDCHAR
STARTCHAR 019A
ENCODING 410
SWIDTH 280 0
DWIDTH 7 0
BBX 7 19 0 0
BITMAP
38
38
38
38
38
38
38
38
FE
FE
FE
38
38
38
38
38
38
38
38
ENDCHAR
STARTCHAR 019B
ENCODING 411
SWIDTH 560 0
DWIDTH 14 0
BBX 14 19 0 0
BITMAP
7C00
7C40
0FC0
1F80
3F00
0300
0780
0780
0780
0FC0
0DC0
1CC0
18E0
38E0
3860
7070
7070
603C
E03C
ENDCHAR
STARTCHAR 019C
ENCODING 412
SWIDTH 1040 0
DWIDTH 26 0
BBX 21 18 2 0
BITMAP
E07018
E07018
E07018
E07018
E07018
E07018
E07018
E07018
E07018
E07018
E07018
E07018
E07018
E07038
E07038
70F878
7FBFD8
3F1F98
ENDCHAR
STARTCHAR 019D
ENCODING 413
SWIDTH 760 0
DWIDTH 19 0
BBX 17 24 0 -6
BITMAP
3C0180
3C0180
3E0180
3F0180
3F0180
3B8180
39C180
39C180
38E180
38E180
387180
383980
383980
381D80
380F80
380F80
380780
380780
380000
380000
380000
F80000
F00000
E00000
ENDCHAR
STARTCHAR 019E
ENCODING 414
SWIDTH 640 0
DWIDTH 16 0
BBX 12 20 2 -6
BITMAP
0780
DFC0
FFE0
F0E0
E060
E070
E070
E070
E070
E070
E070
E070
E070
E070
0070
0070
0070
0070
0070
0070
ENDCHAR
STARTCHAR 019F
ENCODING 415
SWIDTH 800 0
DWIDTH 20 0
BBX 17 18 1 0
BITMAP
07F000
0FFC00
3E1E00
380700
700700
700380
700380
600380
FFFF80
FFFF80
600380
700380
700380
700700
380700
3C1E00
1FFC00
07F800
ENDCHAR
STARTCHAR 01A0
ENCODING 416
SWIDTH 800 0
DWIDTH 20 0
BBX 20 19 1 0
BITMAP
000070
07F0E0
1FFCE0
3E3FC0
380780
700700
700380
700380
600380
E00380
E00380
600380
700380
700380
700700
380700
3C1E00
1FFC00
07F800
ENDCHAR
STARTCHAR 01A1
ENCODING 417
SWIDTH 640 0
DWIDTH 16 0
BBX 16 16 1 0
BITMAP
0007
0007
0706
1FEE
3DFC
7070
6038
E038
E038
E038
E038
6038
7030
7870
3FE0
1FC0
ENDCHAR
STARTCHAR 01A2
ENCODING 418
SWIDTH 1080 0
DWIDTH 27 0
BBX 24 18 1 0
BITMAP
07F0FC
1FFDFE
3E3F8F
380E07
700707
700707
700707
600707
E00307
E00307
600707
700707
700707
700707
380E07
3C1E07
1FFC07
07F007
ENDCHAR
STARTCHAR 01A3
ENCODING 419
SWIDTH 880 0
DWIDTH 22 0
BBX 19 20 1 -6
BITMAP
070700
1FDFC0
3FFFC0
7070E0
6070E0
E070E0
E030E0
E030E0
E070E0
6070E0
7070E0
70E0E0
3FE0E0
1F80E0
0000E0
0000E0
0000E0
0000E0
0000E0
0000E0
ENDCHAR
STARTCHAR 01A4
ENCODING 420
SWIDTH 720 0
DWIDTH 18 0
BBX 16 18 0 0
BITMAP
3FF8
7FFE
F63F
E607
E607
0603
0607
0607
060F
07FE
07F8
0600
0600
0600
0600
0600
0600
0600
ENDCHAR
STARTCHAR 01A5
ENCODING 421
SWIDTH 640 0
DWIDTH 16 0
BBX 12 25 2 -6
BITMAP
7800
F800
E000
E000
E000
E700
FFC0
FFE0
F0F0
E070
E070
E070
E070
E070
E070
E070
F0E0
FFE0
EFC0
E000
E000
E000
E000
E000
E000
ENDCHAR
STARTCHAR 01A6
ENCODING 422
SWIDTH 640 0
DWIDTH 16 0
BBX 14 21 2 -3
BITMAP
E000
E000
E000
FFC0
FFE0
E0F0
E070
E070
E070
E070
E0E0
FFC0
FF80
E380
E1C0
E1C0
E0E0
E070
0070
0038
003C
ENDCHAR
STARTCHAR 01A7
ENCODING 423
SWIDTH 560 0
DWIDTH 14 0
BBX 12 18 1 0
BITMAP
3F80
7FC0
31E0
0060
0070
0060
00E0
03E0
0FC0
3F00
7800
F000
E000
E000
E000
7070
7FF0
1FE0
ENDCHAR
STARTCHAR 01A8
ENCODING 424
SWIDTH 480 0
DWIDTH 12 0
BBX 10 14 1 0
BITMAP
1E00
7F80
73C0
01C0
01C0
03C0
1F80
7E00
F800
E000
E000
E040
7FC0
3FC0
ENDCHAR
STARTCHAR 01A9
ENCODING 425
SWIDTH 560 0
DWIDTH 14 0
BBX 12 18 1 0
BITMAP
FFF0
FFF0
F000
7000
3800
1C00
0E00
0700
0700
0700
0E00
1C00
1800
3800
7000
E000
FFF0
FFF0
ENDCHAR
STARTCHAR 01AA
ENCODING 426
SWIDTH 360 0
DWIDTH 9 0
BBX 11 25 0 -6
BITMAP
7800
FC00
CE00
CE00
FE00
1E00
0E00
0E00
0E00
0E00
0E00
0E00
0E00
0E00
0E00
0E00
0E00
0E00
0E00
0E00
0E00
0E00
0E00
07E0
03E0
ENDCHAR
STARTCHAR 01AB
ENCODING 427
SWIDTH 400 0
DWIDTH 10 0
BBX 9 23 0 -6
BITMAP
1800
1800
1800
3800
FF80
FF80
3800
3800
3800
3800
3800
3800
3800
3800
3800
1F80
0F80
0180
0180
0180
0380
0F80
0F00
ENDCHAR
STARTCHAR 01AC
ENCODING 428
SWIDTH 600 0
DWIDTH 15 0
BBX 14 18 0 0
BITMAP
3FFC
7FFC
F380
E380
E380
0380
0380
0380
0380
0380
0380
0380
0380
0380
0380
0380
0380
0380
ENDCHAR
STARTCHAR 01AD
ENCODING 429
SWIDTH 400 0
DWIDTH 10 0
BBX 9 19 0 0
BITMAP
0F00
1F00
3800
3800
3800
3800
FF80
FF80
3800
3800
3800
3800
3800
3800
3800
3800
3800
1F80
0F80
ENDCHAR
STARTCHAR 01AE
ENCODING 430
SWIDTH 560 0
DWIDTH 14 0
BBX 14 24 0 -6
BITMAP
FFFC
FFFC
0300
0300
0300
0300
0300
0300
0300
0300
0300
0300
0300
0300
0300
0300
0300
0300
0300
0300
0300
0390
03E0
01E0
ENDCHAR
STARTCHAR 01AF
ENCODING 431
SWIDTH 800 0
DWIDTH 20 0
BBX 19 19 2 0
BITMAP
0000E0
E00CE0
E00CC0
E00FC0
E00F80
E00C00
E00C00
E00C00
E00C00
E00C00
E00C00
E00C00
E00C00
E01C00
E01C00
701C00
783800
3FF000
1FE000
ENDCHAR
STARTCHAR 01B0
ENCODING 432
SWIDTH 680 0
DWIDTH 17 0
BBX 16 16 2 0
BITMAP
0003
0007
0007
E076
E07E
E078
E070
E070
E070
E070
E070
E070
E0F0
F0F0
7FF0
3F70
ENDCHAR
STARTCHAR 01B1
ENCODING 433
SWIDTH 800 0
DWIDTH 20 0
BBX 18 18 1 0
BITMAP
FE3FC0
FE3FC0
0E3800
1C0C00
380600
300700
700300
700380
600380
600380
E00380
600380
700380
700780
780700
3C1E00
1FFC00
07F800
ENDCHAR
STARTCHAR 01B2
ENCODING 434
SWIDTH 720 0
DWIDTH 18 0
BBX 14 18 2 0
BITMAP
E0F8
E0FC
E09C
E00C
E00C
E00C
E00C
E00C
E00C
E00C
E00C
E00C
E01C
E01C
701C
7838
3FF0
1FE0
ENDCHAR
STARTCHAR 01B3
ENCODING 435
SWIDTH 600 0
DWIDTH 15 0
BBX 15 18 0 0
BITMAP
E01E
703E
7038
3830
3870
1C60
1CE0
0EC0
07C0
0780
0380
0380
0380
0380
0380
0380
0380
0380
ENDCHAR
STARTCHAR 01B4
ENCODING 436
SWIDTH 560 0
DWIDTH 14 0
BBX 14 20 0 -6
BITMAP
001C
E03C
703C
7070
3070
3860
38E0
1CE0
1CC0
0DC0
0D80
0F80
0780
0700
0700
0700
0E00
1E00
7C00
7800
ENDCHAR
STARTCHAR 01B5
ENCODING 437
SWIDTH 560 0
DWIDTH 14 0
BBX 12 18 1 0
BITMAP
FFF0
FFF0
0070
00E0
00E0
01C0
0380
0380
7FE0
7FE0
0E00
1C00
3800
3800
7000
E000
FFF0
FFF0
ENDCHAR
STARTCHAR 01B6
ENCODING 438
SWIDTH 480 0
DWIDTH 12 0
BBX 10 13 1 0
BITMAP
FFC0
FFC0
0380
0700
0700
FFC0
FFC0
1800
3800
7000
E000
FFC0
FFC0
ENDCHAR
STARTCHAR 01B7
ENCODING 439
SWIDTH 600 0
DWIDTH 15 0
BBX 12 18 1 0
BITMAP
FFF0
FFF0
00E0
01C0
0380
0700
0E00
1C00
1F80
1FE0
00F0
0070
0030
0030
0070
80F0
FFE0
FF80
ENDCHAR
STARTCHAR 01B8
ENCODING 440
SWIDTH 600 0
DWIDTH 15 0
BBX 13 18 1 0
BITMAP
7FF0
7FF0
7800
3C00
1E00
0F00
0380
0F80
3F80
7C00
7000
E000
E000
E000
7000
7818
3FF8
1FF0
ENDCHAR
STARTCHAR 01B9
ENCODING 441
SWIDTH 520 0
DWIDTH 13 0
BBX 12 19 1 -6
BITMAP
7FE0
7FE0
3800
1800
1C00
0E00
0700
0F80
3F80
7800
E000
E000
E000
E000
E000
E000
7870
3FF0
1FE0
ENDCHAR
STARTCHAR 01BA
ENCODING 442
SWIDTH 520 0
DWIDTH 13 0
BBX 11 19 1 -6
BITMAP
FFC0
FFC0
0380
0F00
1C00
3E00
3F80
03C0
00E0
00E0
00E0
00E0
1FC0
7F80
FC00
C000
E080
FF80
3F00
ENDCHAR
STARTCHAR 01BB
ENCODING 443
SWIDTH 560 0
DWIDTH 14 0
BBX 12 19 1 0
BITMAP
1F00
7FC0
F1C0
40E0
00E0
00E0
00E0
01C0
01C0
7FF0
0700
0700
0E00
1C00
3800
7000
E000
FFF0
FFF0
ENDCHAR
STARTCHAR 01BC
ENCODING 444
SWIDTH 600 0
DWIDTH 15 0
BBX 12 18 1 0
BITMAP
FFF0
FFF0
FFF0
3800
3800
3800
3800
3F80
3FE0
00F0
0070
0070
0030
0070
0070
C0E0
FFE0
FF80
ENDCHAR
STARTCHAR 01BD
ENCODING 445
SWIDTH 520 0
DWIDTH 13 0
BBX 11 13 1 0
BITMAP
FFC0
FFC0
3000
3000
3E00
3F80
07C0
00E0
00E0
00E0
81C0
FFC0
FF00
ENDCHAR
STARTCHAR 01BE
ENCODING 446
SWIDTH 480 0
DWIDTH 12 0
BBX 10 17 1 0
BITMAP
1800
1800
1800
3800
FF80
FF80
3800
3800
3800
1E00
0F00
0780
01C0
01C0
81C0
FF80
FF00
ENDCHAR
STARTCHAR 01BF
ENCODING 447
SWIDTH 600 0
DWIDTH 15 0
BBX 12 20 2 -6
BITMAP
0700
DFC0
FFE0
F0E0
E070
E070
E070
E070
E060
E0E0
E1C0
E7C0
FF00
FE00
E000
E000
E000
E000
E000
E000
ENDCHAR
STARTCHAR 01C0
ENCODING 448
SWIDTH 320 0
DWIDTH 8 0
BBX 2 19 3 0
BITMAP
C0
C0
C0
C0
C0
C0
C0
C0
C0
C0
C0
C0
C0
C0
C0
C0
C0
C0
C0
ENDCHAR
STARTCHAR 01C1
ENCODING 449
SWIDTH 560 0
DWIDTH 14 0
BBX 8 19 3 0
BITMAP
C3
C3
C3
C3
C3
C3
C3
C3
C3
C3
C3
C3
C3
C3
C3
C3
C3
C3
C3
ENDCHAR
STARTCHAR 01C2
ENCODING 450
SWIDTH 520 0
DWIDTH 13 0
BBX 9 19 2 0
BITMAP
1C00
1C00
1C00
1C00
1C00
1C00
FF80
FF80
1C00
1C00
FF80
FF80
1C00
1C00
1C00
1C00
1C00
1C00
1C00
ENDCHAR
STARTCHAR 01C3
ENCODING 451
SWIDTH 280 0
DWIDTH 7 0
BBX 3 18 2 0
BITMAP
E0
E0
E0
E0
E0
E0
E0
E0
E0
E0
E0
C0
C0
00
00
E0
E0
E0
ENDCHAR
STARTCHAR 01C4
ENCODING 452
SWIDTH 1280 0
DWIDTH 32 0
BBX 30 23 2 0
BITMAP
00001C70
00000EE0
000007C0
00000380
00000000
FF807FF8
FFE07FF8
E3F80038
E0380070
E01C0070
E01C00E0
E00E01C0
E00E01C0
E00E0380
E00E0700
E00E0700
E00E0E00
E01C1C00
E01C1C00
E0383800
E1F87000
FFE07FFC
FF807FFC
ENDCHAR
STARTCHAR 01C5
ENCODING 453
SWIDTH 1200 0
DWIDTH 30 0
BBX 27 19 2 0
BITMAP
000030E0
FF801DC0
FFE00F80
E3F80700
E0380000
E01C0000
E01C3FE0
E00E3FE0
E00E01C0
E00E01C0
E00E0380
E00E0700
E00E0600
E01C0E00
E01C1C00
E0383800
E1F83800
FFE07FE0
FF807FE0
ENDCHAR
STARTCHAR 01C6
ENCODING 454
SWIDTH 1080 0
DWIDTH 27 0
BBX 25 19 1 0
BITMAP
0030E380
00307700
00303E00
00301C00
00300000
06300000
3FB0FF80
7DF0FF80
70700380
60700700
E0300E00
E0300C00
E0301C00
E0303800
E0307000
70707000
7070E000
3FF1FF80
1F31FF80
ENDCHAR
STARTCHAR 01C7
ENCODING 455
SWIDTH 840 0
DWIDTH 21 0
BBX 16 23 2 -5
BITMAP
E003
E003
E003
E003
E003
E003
E003
E003
E003
E003
E003
E003
E003
E003
E003
E003
FFE3
FFE3
0003
0007
004F
007E
007C
ENDCHAR
STARTCHAR 01C8
ENCODING 456
SWIDTH 800 0
DWIDTH 20 0
BBX 16 25 2 -6
BITMAP
0002
E007
E007
E000
E000
E000
E007
E007
E007
E007
E007
E007
E007
E007
E007
E007
E007
FFE7
FFE7
0007
0007
0007
0007
003E
003C
ENDCHAR
STARTCHAR 01C9
ENCODING 457
SWIDTH 560 0
DWIDTH 14 0
BBX 10 25 2 -6
BITMAP
E080
E1C0
E1C0
E000
E000
E000
E1C0
E1C0
E1C0
E1C0
E1C0
E1C0
E1C0
E1C0
E1C0
E1C0
E1C0
E1C0
E1C0
01C0
01C0
0180
0380
1F80
1F00
ENDCHAR
STARTCHAR 01CA
ENCODING 458
SWIDTH 1080 0
DWIDTH 27 0
BBX 22 23 2 -5
BITMAP
F0060C
F0060C
F8060C
FC060C
FC060C
EE060C
E7060C
E7060C
E3860C
E3860C
E1C60C
E0E60C
E0E60C
E0760C
E03E0C
E03E0C
E01E0C
E01E0C
00000C
00001C
00013C
0001F8
0001F0
ENDCHAR
STARTCHAR 01CB
ENCODING 459
SWIDTH 1040 0
DWIDTH 26 0
BBX 22 25 2 -6
BITMAP
000008
F0061C
F0061C
F80600
FC0600
FC0600
EE061C
E7061C
E7061C
E3861C
E3861C
E1C61C
E0E61C
E0E61C
E0761C
E03E1C
E03E1C
E01E1C
E01E1C
00001C
00001C
00001C
00001C
0000F8
0000F0
ENDCHAR
STARTCHAR 01CC
ENCODING 460
SWIDTH 920 0
DWIDTH 23 0
BBX 19 25 2 -6
BITMAP
000040
0000E0
0000E0
000000
000000
078000
DFE0C0
FDE0C0
F070C0
E070C0
E070C0
E070C0
E070C0
E070C0
E070C0
E070C0
E070C0
E070C0
E070C0
0000C0
0000C0
0000C0
0001C0
000FC0
000F80
ENDCHAR
STARTCHAR 01CD
ENCODING 461
SWIDTH 640 0
DWIDTH 16 0
BBX 16 23 0 0
BITMAP
0C38
0760
03E0
03C0
0000
01C0
03C0
03C0
07E0
0760
0670
0E70
0E30
0C38
1C38
1FFC
3FFC
3FFC
300E
700E
7006
6007
E007
ENDCHAR
STARTCHAR 01CE
ENCODING 462
SWIDTH 560 0
DWIDTH 14 0
BBX 11 19 1 0
BITMAP
30E0
1D80
0F80
0700
0000
0700
3FC0
39E0
00E0
0060
0060
1FE0
7FE0
F060
E060
E0E0
E1E0
7FE0
3E60
ENDCHAR
STARTCHAR 01CF
ENCODING 463
SWIDTH 360 0
DWIDTH 9 0
BBX 9 23 0 0
BITMAP
E380
7700
3E00
1C00
0000
7F00
7F00
1C00
1C00
1C00
1C00
1C00
1C00
1C00
1C00
1C00
1C00
1C00
1C00
1C00
1C00
7F00
7F00
ENDCHAR
STARTCHAR 01D0
ENCODING 464
SWIDTH 280 0
DWIDTH 7 0
BBX 9 19 -1 0
BITMAP
E380
7700
3E00
1C00
0000
0000
1C00
1C00
1C00
1C00
1C00
1C00
1C00
1C00
1C00
1C00
1C00
1C00
1C00
ENDCHAR
STARTCHAR 01D1
ENCODING 465
SWIDTH 800 0
DWIDTH 20 0
BBX 17 23 1 0
BITMAP
0E1800
037000
03E000
01C000
000000
07F000
0FFC00
3E3E00
380700
700700
700380
700380
600380
E00380
E00380
600380
700380
700380
700700
380700
3C1E00
1FFC00
07F800
ENDCHAR
STARTCHAR 01D2
ENCODING 466
SWIDTH 600 0
DWIDTH 15 0
BBX 13 19 1 0
BITMAP
38E0
1DC0
0F80
0700
0000
0700
1FE0
3DF0
7070
6038
E038
E038
E038
E038
6038
7030
7870
3FE0
1FC0
ENDCHAR
STARTCHAR 01D3
ENCODING 467
SWIDTH 720 0
DWIDTH 18 0
BBX 14 23 2 0
BITMAP
1870
0EE0
07C0
0380
0000
E00C
E00C
E00C
E00C
E00C
E00C
E00C
E00C
E00C
E00C
E00C
E00C
E01C
E01C
701C
7838
3FF0
1FE0
ENDCHAR
STARTCHAR 01D4
ENCODING 468
SWIDTH 640 0
DWIDTH 16 0
BBX 12 19 2 0
BITMAP
70C0
1B80
1F00
0F00
0000
0000
E070
E070
E070
E070
E070
E070
E070
E070
E070
E0F0
F0F0
7FF0
3F70
ENDCHAR
STARTCHAR 01D5
ENCODING 469
SWIDTH 720 0
DWIDTH 18 0
BBX 14 25 2 0
BITMAP
1FE0
1FE0
0000
0C60
0CE0
0840
0000
E00C
E00C
E00C
E00C
E00C
E00C
E00C
E00C
E00C
E00C
E00C
E00C
E01C
E01C
701C
7838
3FF0
1FE0
ENDCHAR
STARTCHAR 01D6
ENCODING 470
SWIDTH 640 0
DWIDTH 16 0
BBX 12 21 2 0
BITMAP
3FC0
3FC0
0000
1080
39C0
3980
0000
0000
E070
E070
E070
E070
E070
E070
E070
E070
E070
E0F0
F0F0
7FF0
3F70
ENDCHAR
STARTCHAR 01D7
ENCODING 471
SWIDTH 720 0
DWIDTH 18 0
BBX 14 26 2 0
BITMAP
00E0
01C0
0380
0000
0C60
0CE0
0840
0000
E00C
E00C
E00C
E00C
E00C
E00C
E00C
E00C
E00C
E00C
E00C
E00C
E01C
E01C
701C
7838
3FF0
1FE0
ENDCHAR
STARTCHAR 01D8
ENCODING 472
SWIDTH 640 0
DWIDTH 16 0
BBX 12 22 2 0
BITMAP
01C0
0380
0700
0E00
1080
39C0
3980
0000
0000
E070
E070
E070
E070
E070
E070
E070
E070
E070
E0F0
F0F0
7FF0
3F70
ENDCHAR
STARTCHAR 01D9
ENCODING 473
SWIDTH 720 0
DWIDTH 18 0
BBX 14 26 2 0
BITMAP
1C70
0FC0
0780
0000
0C60
0CE0
0840
0000
E00C
E00C
E00C
E00C
E00C
E00C
E00C
E00C
E00C
E00C
E00C
E00C
E01C
E01C
701C
7838
3FF0
1FE0
ENDCHAR
STARTCHAR 01DA
ENCODING 474
SWIDTH 640 0
DWIDTH 16 0
BBX 12 22 2 0
BITMAP
30C0
1B80
0F00
0E00
1080
39C0
3980
0000
0000
E070
E070
E070
E070
E070
E070
E070
E070
E070
E0F0
F0F0
7FF0
3F70
ENDCHAR
STARTCHAR 01DB
ENCODING 475
SWIDTH 720 0
DWIDTH 18 0
BBX 14 26 2 0
BITMAP
1E00
0600
0300
0080
0C60
0CE0
0840
0000
E00C
E00C
E00C
E00C
E00C
E00C
E00C
E00C
E00C
E00C
E00C
E00C
E01C
E01C
701C
7838
3FF0
1FE0
ENDCHAR
STARTCHAR 01DC
ENCODING 476
SWIDTH 640 0
DWIDTH 16 0
BBX 12 22 2 0
BITMAP
3800
1C00
0C00
0600
1080
39C0
3980
0000
0000
E070
E070
E070
E070
E070
E070
E070
E070
E070
E0F0
F0F0
7FF0
3F70
ENDCHAR
STARTCHAR 01DD
ENCODING 477
SWIDTH 560 0
DWIDTH 14 0
BBX 12 14 1 0
BITMAP
1E00
7FC0
7BE0
00E0
0070
0070
0070
FFF0
FFF0
E070
6060
70E0
3FC0
1F80
ENDCHAR
STARTCHAR 01DE
ENCODING 478
SWIDTH 640 0
DWIDTH 16 0
BBX 16 25 0 0
BITMAP
0FF0
0FF0
0000
0670
0E70
0420
0000
01C0
03C0
03C0
07E0
0760
0670
0E70
0E30
0C38
1C38
1FFC
3FFC
3FFC
300E
700E
7006
6007
E007
ENDCHAR
STARTCHAR 01DF
ENCODING 479
SWIDTH 560 0
DWIDTH 14 0
BBX 11 21 1 0
BITMAP
3FC0
3FC0
0000
1080
39C0
18C0
0000
0700
3FC0
39E0
00E0
0060
0060
1FE0
7FE0
F060
E060
E0E0
E1E0
7FE0
3E60
ENDCHAR
STARTCHAR 01E0
ENCODING 480
SWIDTH 640 0
DWIDTH 16 0
BBX 16 25 0 0
BITMAP
0FF0
0FF0
0000
0180
01C0
0180
0000
01C0
03C0
03C0
07E0
0760
0670
0E70
0E30
0C38
1C38
1FFC
3FFC
3FFC
300E
700E
7006
6007
E007
ENDCHAR
STARTCHAR 01E1
ENCODING 481
SWIDTH 560 0
DWIDTH 14 0
BBX 11 21 1 0
BITMAP
3FC0
3FC0
0000
0600
0700
0600
0000
0700
3FC0
39E0
00E0
0060
0060
1FE0
7FE0
F060
E060
E0E0
E1E0
7FE0
3E60
ENDCHAR
STARTCHAR 01E2
ENCODING 482
SWIDTH 920 0
DWIDTH 23 0
BBX 21 21 0 0
BITMAP
007F00
007F00
000000
00FFF8
00FFF8
01FC00
019C00
039C00
039C00
071C00
071C00
0E1FF8
0E1FF8
1FFC00
1FFC00
1FFC00
381C00
301C00
701C00
601FF8
E01FF8
ENDCHAR
STARTCHAR 01E3
ENCODING 483
SWIDTH 880 0
DWIDTH 22 0
BBX 20 17 1 0
BITMAP
03FC00
03FC00
000000
0E0700
7FDFC0
39F9E0
00F060
00E070
00E070
1FFFF0
7FFFF0
F0E000
E0E000
E0F000
E1F820
7FBFE0
3F0FE0
ENDCHAR
STARTCHAR 01E4
ENCODING 484
SWIDTH 720 0
DWIDTH 18 0
BBX 17 18 1 0
BITMAP
03FC00
0FFE00
1F0C00
3C0000
780000
700000
700000
600000
E07E00
E07E00
600600
700600
707F80
707F80
380600
3E0600
1FFE00
07FE00
ENDCHAR
STARTCHAR 01E5
ENCODING 485
SWIDTH 640 0
DWIDTH 16 0
BBX 14 20 1 -6
BITMAP
0600
3FB0
7FF0
7070
6030
E030
E030
E030
E030
6030
7070
3FF0
3FB0
0030
0030
07FC
0070
60F0
7FE0
3F80
ENDCHAR
STARTCHAR 01E6
ENCODING 486
SWIDTH 720 0
DWIDTH 18 0
BBX 15 23 1 0
BITMAP
061C
0330
01E0
01E0
0000
03FC
0FFE
1F0C
3C00
7800
7000
7000
6000
E07E
E07E
607E
7006
7006
7006
3806
3E06
1FFE
07FE
ENDCHAR
STARTCHAR 01E7
ENCODING 487
SWIDTH 640 0
DWIDTH 16 0
BBX 12 25 1 -6
BITMAP
38E0
1DC0
0F80
0700
0000
0600
3FB0
7FF0
7070
6070
E030
E030
E030
E030
E030
7070
7070
3FF0
1FB0
0030
0030
0070
60F0
7FE0
3F80
ENDCHAR
STARTCHAR 01E8
ENCODING 488
SWIDTH 640 0
DWIDTH 16 0
BBX 14 23 2 0
BITMAP
38E0
1DC0
0F80
0700
0000
E03C
E070
E0F0
E0E0
E1C0
E380
E700
EE00
FE00
FF00
F780
E380
E1C0
E1E0
E0E0
E070
E038
E03C
ENDCHAR
STARTCHAR 01E9
ENCODING 489
SWIDTH 560 0
DWIDTH 14 0
BBX 15 25 -1 0
BITMAP
E380
7700
3E00
1C00
0000
0000
1C00
1C00
1C00
1C00
1C00
1C00
1C3C
1C38
1C70
1CE0
1DC0
1F80
1FC0
1EE0
1CE0
1C70
1C38
1C1C
1C1E
ENDCHAR
STARTCHAR 01EA
ENCODING 490
SWIDTH 800 0
DWIDTH 20 0
BBX 17 24 1 -6
BITMAP
07F000
0FFC00
3E3E00
380700
700700
700380
700380
600380
E00380
E00380
600380
700380
700380
700700
380700
3C1E00
1FFC00
07F800
00C000
018000
018000
018000
01E000
00E000
ENDCHAR
STARTCHAR 01EB
ENCODING 491
SWIDTH 600 0
DWIDTH 15 0
BBX 13 20 1 -6
BITMAP
0700
1FE0
3DF0
7070
6038
E038
E038
E038
E038
6038
7030
7870
3FE0
1FC0
0300
0600
0600
0600
0780
0380
ENDCHAR
STARTCHAR 01EC
ENCODING 492
SWIDTH 800 0
DWIDTH 20 0
BBX 17 27 1 -6
BITMAP
07F800
07F800
000000
07F000
0FFC00
3E3E00
380700
700700
700380
700380
600380
E00380
E00380
600380
700380
700380
700700
380700
3C1E00
1FFC00
07F800
00C000
008000
018000
018000
01E000
00E000
ENDCHAR
STARTCHAR 01ED
ENCODING 493
SWIDTH 600 0
DWIDTH 15 0
BBX 13 23 1 -6
BITMAP
1FC0
1FC0
0000
0700
1FE0
3DF0
7070
6038
E038
E038
E038
E038
6038
7030
7870
3FE0
1FC0
0300
0600
0600
0600
0780
0380
ENDCHAR
STARTCHAR 01EE
ENCODING 494
SWIDTH 600 0
DWIDTH 15 0
BBX 12 23 1 0
BITMAP
70E0
1980
0F00
0F00
0000
FFF0
FFF0
00E0
01C0
0380
0700
0E00
1C00
1F80
1FE0
00F0
0070
0030
0030
0070
80F0
FFE0
FF80
ENDCHAR
STARTCHAR 01EF
ENCODING 495
SWIDTH 520 0
DWIDTH 13 0
BBX 12 25 0 -6
BITMAP
30E0
1DC0
0F80
0700
0000
0000
7FF0
7FE0
00C0
01C0
0380
0700
0E00
1F00
1FC0
01E0
0070
0070
0070
0070
0070
0070
E1E0
FFC0
7F00
ENDCHAR
STARTCHAR 01F0
ENCODING 496
SWIDTH 280 0
DWIDTH 7 0
BBX 9 25 -1 -6
BITMAP
E380
7700
3E00
1C00
0000
0000
1C00
1C00
1C00
1C00
1C00
1C00
1C00
1C00
1C00
1C00
1C00
1C00
1C00
1C00
1C00
1C00
3800
F800
F000
ENDCHAR
STARTCHAR 01F1
ENCODING 497
SWIDTH 1280 0
DWIDTH 32 0
BBX 30 18 2 0
BITMAP
FF807FF8
FFE07FF8
E3F80038
E0380070
E01C0070
E01C00E0
E00E01C0
E00E01C0
E00E0380
E00E0700
E00E0700
E00E0E00
E01C1C00
E01C1C00
E0383800
E1F87000
FFE07FFC
FF807FFC
ENDCHAR
STARTCHAR 01F2
ENCODING 498
SWIDTH 1200 0
DWIDTH 30 0
BBX 27 18 2 0
BITMAP
FF800000
FFE00000
E3F80000
E0380000
E01C0000
E01C3FE0
E00E3FE0
E00E01C0
E00E01C0
E00E0380
E00E0700
E00E0600
E01C0E00
E01C1C00
E0383800
E1F83800
FFE07FE0
FF807FE0
ENDCHAR
STARTCHAR 01F3
ENCODING 499
SWIDTH 1080 0
DWIDTH 27 0
BBX 25 19 1 0
BITMAP
00300000
00300000
00300000
00300000
00300000
06300000
3FB0FF80
7DF0FF80
70700380
60700700
E0300E00
E0300C00
E0301C00
E0303800
E0307000
70707000
7070E000
3FF1FF80
1F31FF80
ENDCHAR
STARTCHAR 01F4
ENCODING 500
SWIDTH 720 0
DWIDTH 18 0
BBX 15 23 1 0
BITMAP
0038
0070
00E0
00C0
0000
03FC
0FFE
1F0C
3C00
7800
7000
7000
6000
E07E
E07E
607E
7006
7006
7006
3806
3E06
1FFE
07FE
ENDCHAR
STARTCHAR 01F5
ENCODING 501
SWIDTH 640 0
DWIDTH 16 0
BBX 12 25 1 -6
BITMAP
01E0
0180
0300
0600
0000
0600
3FB0
7FF0
7070
6070
E030
E030
E030
E030
E030
7070
7070
3FF0
1FB0
0030
0030
0070
60F0
7FE0
3F80
ENDCHAR
STARTCHAR 01F6
ENCODING 502
SWIDTH 960 0
DWIDTH 24 0
BBX 20 18 2 0
BITMAP
E03800
E03800
E03800
E03800
E03800
E03870
E03870
E03870
FFF870
FFF870
E03870
E03870
E03870
E03870
E03870
E03C70
E01FE0
E00FC0
ENDCHAR
STARTCHAR 01F7
ENCODING 503
SWIDTH 680 0
DWIDTH 17 0
BBX 13 24 2 -6
BITMAP
E7E0
EFF0
FC78
F038
F038
E018
E018
E038
E038
E038
E070
E070
E0E0
E1C0
E780
FF00
FE00
F800
E000
E000
E000
E000
E000
E000
ENDCHAR
STARTCHAR 01F8
ENCODING 504
SWIDTH 760 0
DWIDTH 19 0
BBX 15 23 2 0
BITMAP
0F00
0700
0380
01C0
0000
F006
F006
F806
FC06
FC06
EE06
E706
E706
E386
E386
E1C6
E0E6
E0E6
E076
E03E
E03E
E01E
E01E
ENDCHAR
STARTCHAR 01F9
ENCODING 505
SWIDTH 640 0
DWIDTH 16 0
BBX 12 19 2 0
BITMAP
3C00
1C00
0600
0300
0000
0780
DFE0
FDE0
F070
E070
E070
E070
E070
E070
E070
E070
E070
E070
E070
ENDCHAR
STARTCHAR 01FA
ENCODING 506
SWIDTH 640 0
DWIDTH 16 0
BBX 16 24 0 0
BITMAP
0070
00E0
01C0
0000
03C0
0660
0660
0260
03C0
03C0
03E0
0760
0670
0E30
0C30
1C38
1C18
1FFC
3FFC
380E
700E
7006
6007
E007
ENDCHAR
STARTCHAR 01FB
ENCODING 507
SWIDTH 560 0
DWIDTH 14 0
BBX 11 24 1 0
BITMAP
01C0
0380
0600
0000
0F80
0980
1880
0D80
0700
0000
0700
3FC0
39E0
00E0
0060
0060
1FE0
7FE0
F060
E060
E0E0
E1E0
7FE0
3E60
ENDCHAR
STARTCHAR 01FC
ENCODING 508
SWIDTH 920 0
DWIDTH 23 0
BBX 21 23 0 0
BITMAP
000780
000E00
000C00
001800
000000
00FFF8
00FFF8
01FC00
019C00
039C00
039C00
071C00
071C00
0E1FF8
0E1FF8
1FFC00
1FFC00
1FFC00
381C00
301C00
701C00
601FF8
E01FF8
ENDCHAR
STARTCHAR 01FD
ENCODING 509
SWIDTH 880 0
DWIDTH 22 0
BBX 20 19 1 0
BITMAP
001C00
003800
003000
006000
000000
0E0700
7FDFC0
39F9E0
00F060
00E070
00E070
1FFFF0
7FFFF0
F0E000
E0E000
E0F000
E1F820
7FBFE0
3F0FE0
ENDCHAR
STARTCHAR 01FE
ENCODING 510
SWIDTH 800 0
DWIDTH 20 0
BBX 17 24 1 -1
BITMAP
003800
007000
00E000
01C000
000200
07F300
0FFE00
3E1E00
381F00
701F00
703380
707380
606380
E0C380
E1C380
618380
730380
770380
7E0700
3C0700
3E1E00
3FFC00
37F800
100000
ENDCHAR
STARTCHAR 01FF
ENCODING 511
SWIDTH 600 0
DWIDTH 15 0
BBX 13 20 1 -1
BITMAP
01E0
01C0
0380
0600
0000
0730
1FF0
3DE0
70F0
61F8
E1B8
E338
E738
E638
6C38
7C30
7870
3FE0
7FC0
2000
ENDCHAR
STARTCHAR 0200
ENCODING 512
SWIDTH 640 0
DWIDTH 16 0
BBX 16 23 0 0
BITMAP
39C0
1CC0
0C60
0630
0000
01C0
03C0
03C0
07E0
0760
0670
0E70
0E30
0C38
1C38
1FFC
3FFC
3FFC
300E
700E
7006
6007
E007
ENDCHAR
STARTCHAR 0201
ENCODING 513
SWIDTH 560 0
DWIDTH 14 0
BBX 11 19 1 0
BITMAP
E700
7300
3180
18C0
0000
0700
3FC0
39E0
00E0
0060
0060
1FE0
7FE0
F060
E060
E0E0
E1E0
7FE0
3E60
ENDCHAR
STARTCHAR 0202
ENCODING 514
SWIDTH 640 0
DWIDTH 16 0
BBX 16 23 0 0
BITMAP
01C0
07E0
0E30
0C10
0000
01C0
03C0
03C0
07E0
0760
0670
0E70
0E30
0C38
1C38
1FFC
3FFC
3FFC
300E
700E
7006
6007
E007
ENDCHAR
STARTCHAR 0203
ENCODING 515
SWIDTH 560 0
DWIDTH 14 0
BBX 11 19 1 0
BITMAP
0700
1F80
38C0
3040
0000
0700
3FC0
39E0
00E0
0060
0060
1FE0
7FE0
F060
E060
E0E0
E1E0
7FE0
3E60
ENDCHAR
STARTCHAR 0204
ENCODING 516
SWIDTH 560 0
DWIDTH 14 0
BBX 10 23 2 0
BITMAP
EE00
6700
3300
1980
0000
FFC0
FFC0
E000
E000
E000
E000
E000
E000
FFC0
FFC0
E000
E000
E000
E000
E000
E000
FFC0
FFC0
ENDCHAR
STARTCHAR 0205
ENCODING 517
SWIDTH 560 0
DWIDTH 14 0
BBX 12 19 1 0
BITMAP
E700
7300
3180
18C0
0000
0700
1FC0
39E0
7070
6070
E070
FFF0
FFF0
E000
6000
7000
7820
3FE0
1FE0
ENDCHAR
STARTCHAR 0206
ENCODING 518
SWIDTH 560 0
DWIDTH 14 0
BBX 10 23 2 0
BITMAP
0E00
3F80
3180
60C0
0000
FFC0
FFC0
E000
E000
E000
E000
E000
E000
FFC0
FFC0
E000
E000
E000
E000
E000
E000
FFC0
FFC0
ENDCHAR
STARTCHAR 0207
ENCODING 519
SWIDTH 560 0
DWIDTH 14 0
BBX 12 19 1 0
BITMAP
0700
1F80
38C0
3040
0000
0700
1FC0
39E0
7070
6070
E070
FFF0
FFF0
E000
6000
7000
7820
3FE0
1FE0
ENDCHAR
STARTCHAR 0208
ENCODING 520
SWIDTH 360 0
DWIDTH 9 0
BBX 9 23 -1 0
BITMAP
EE00
6700
3300
1180
0000
3F80
3F80
0E00
0E00
0E00
0E00
0E00
0E00
0E00
0E00
0E00
0E00
0E00
0E00
0E00
0E00
3F80
3F80
ENDCHAR
STARTCHAR 0209
ENCODING 521
SWIDTH 280 0
DWIDTH 7 0
BBX 10 19 -3 0
BITMAP
F700
3380
3980
08C0
0000
0000
0700
0700
0700
0700
0700
0700
0700
0700
0700
0700
0700
0700
0700
ENDCHAR
STARTCHAR 020A
ENCODING 522
SWIDTH 360 0
DWIDTH 9 0
BBX 9 23 0 0
BITMAP
1C00
7F00
6300
C180
0000
7F00
7F00
1C00
1C00
1C00
1C00
1C00
1C00
1C00
1C00
1C00
1C00
1C00
1C00
1C00
1C00
7F00
7F00
ENDCHAR
STARTCHAR 020B
ENCODING 523
SWIDTH 280 0
DWIDTH 7 0
BBX 9 19 -1 0
BITMAP
1C00
7F00
6300
C180
0000
0000
1C00
1C00
1C00
1C00
1C00
1C00
1C00
1C00
1C00
1C00
1C00
1C00
1C00
ENDCHAR
STARTCHAR 020C
ENCODING 524
SWIDTH 800 0
DWIDTH 20 0
BBX 17 23 1 0
BITMAP
1DE000
0E6000
067000
033000
000000
07F000
0FFC00
3E3E00
380700
700700
700380
700380
600380
E00380
E00380
600380
700380
700380
700700
380700
3C1E00
1FFC00
07F800
ENDCHAR
STARTCHAR 020D
ENCODING 525
SWIDTH 600 0
DWIDTH 15 0
BBX 13 19 1 0
BITMAP
7700
3380
1980
0CC0
0000
0700
1FE0
3DF0
7070
6038
E038
E038
E038
E038
6038
7030
7870
3FE0
1FC0
ENDCHAR
STARTCHAR 020E
ENCODING 526
SWIDTH 800 0
DWIDTH 20 0
BBX 17 23 1 0
BITMAP
01E000
03F000
073800
041800
000000
07F000
0FFC00
3E3E00
380700
700700
700380
700380
600380
E00380
E00380
600380
700380
700380
700700
380700
3C1E00
1FFC00
07F800
ENDCHAR
STARTCHAR 020F
ENCODING 527
SWIDTH 600 0
DWIDTH 15 0
BBX 13 19 1 0
BITMAP
0700
1FC0
18C0
3060
0000
0700
1FE0
3DF0
7070
6038
E038
E038
E038
E038
6038
7030
7870
3FE0
1FC0
ENDCHAR
STARTCHAR 0210
ENCODING 528
SWIDTH 640 0
DWIDTH 16 0
BBX 14 23 2 0
BITMAP
E700
7300
3180
18C0
0000
FF00
FFE0
E3E0
E070
E070
E070
E070
E070
E3E0
FFC0
FF80
E180
E1C0
E0E0
E0E0
E070
E038
E03C
ENDCHAR
STARTCHAR 0211
ENCODING 529
SWIDTH 440 0
DWIDTH 11 0
BBX 10 19 0 0
BITMAP
E700
7300
3180
18C0
0000
01C0
33C0
37C0
3C00
3800
3800
3800
3800
3800
3800
3800
3800
3800
3800
ENDCHAR
STARTCHAR 0212
ENCODING 530
SWIDTH 640 0
DWIDTH 16 0
BBX 14 23 2 0
BITMAP
0700
1F80
39C0
20C0
0000
FF00
FFE0
E3E0
E070
E070
E070
E070
E070
E3E0
FFC0
FF80
E180
E1C0
E0E0
E0E0
E070
E038
E03C
ENDCHAR
STARTCHAR 0213
ENCODING 531
SWIDTH 440 0
DWIDTH 11 0
BBX 8 19 2 0
BITMAP
1C
7E
E7
C1
00
07
CF
DF
F0
E0
E0
E0
E0
E0
E0
E0
E0
E0
E0
ENDCHAR
STARTCHAR 0214
ENCODING 532
SWIDTH 720 0
DWIDTH 18 0
BBX 14 23 2 0
BITMAP
7380
39C0
1CC0
0C60
0000
E00C
E00C
E00C
E00C
E00C
E00C
E00C
E00C
E00C
E00C
E00C
E00C
E01C
E01C
701C
7838
3FF0
1FE0
ENDCHAR
STARTCHAR 0215
ENCODING 533
SWIDTH 640 0
DWIDTH 16 0
BBX 12 19 2 0
BITMAP
EF00
7300
3380
1880
0000
0000
E070
E070
E070
E070
E070
E070
E070
E070
E070
E0F0
F0F0
7FF0
3F70
ENDCHAR
STARTCHAR 0216
ENCODING 534
SWIDTH 720 0
DWIDTH 18 0
BBX 14 23 2 0
BITMAP
0380
0FE0
1C60
1820
0000
E00C
E00C
E00C
E00C
E00C
E00C
E00C
E00C
E00C
E00C
E00C
E00C
E01C
E01C
701C
7838
3FF0
1FE0
ENDCHAR
STARTCHAR 0217
ENCODING 535
SWIDTH 640 0
DWIDTH 16 0
BBX 12 19 2 0
BITMAP
0F00
1F80
39C0
20C0
0000
0000
E070
E070
E070
E070
E070
E070
E070
E070
E070
E0F0
F0F0
7FF0
3F70
ENDCHAR
STARTCHAR 0218
ENCODING 536
SWIDTH 560 0
DWIDTH 14 0
BBX 12 24 1 -6
BITMAP
1FC0
3FE0
78E0
6000
E000
6000
7000
7C00
3F00
0FC0
03E0
00E0
0070
0070
0060
C0E0
FFC0
7F80
0000
0000
0600
0E00
0C00
0800
ENDCHAR
STARTCHAR 0219
ENCODING 537
SWIDTH 480 0
DWIDTH 12 0
BBX 10 20 1 -6
BITMAP
1F00
7FC0
FB80
E000
E000
7800
7E00
1F80
07C0
01C0
01C0
81C0
FF80
FF00
0000
0000
0E00
0C00
0C00
1800
ENDCHAR
STARTCHAR 021A
ENCODING 538
SWIDTH 560 0
DWIDTH 14 0
BBX 14 24 0 -6
BITMAP
FFFC
FFFC
0300
0300
0300
0300
0300
0300
0300
0300
0300
0300
0300
0300
0300
0300
0300
0300
0000
0000
0380
0300
0200
0600
ENDCHAR
STARTCHAR 021B
ENCODING 539
SWIDTH 400 0
DWIDTH 10 0
BBX 9 23 0 -6
BITMAP
1800
1800
1800
3800
FF80
FF80
3800
3800
3800
3800
3800
3800
3800
3800
3800
1F80
0F80
0000
0000
0600
0E00
0C00
0800
ENDCHAR
STARTCHAR 021C
ENCODING 540
SWIDTH 600 0
DWIDTH 15 0
BBX 13 23 1 -5
BITMAP
3F80
FFE0
E0F0
4070
0070
0070
00F0
01E0
0FC0
1FE0
10F0
0070
0030
0038
0030
0070
00F0
01E0
07C0
3F80
FE00
F000
8000
ENDCHAR
STARTCHAR 021D
ENCODING 541
SWIDTH 480 0
DWIDTH 12 0
BBX 10 20 1 -6
BITMAP
1C00
FF80
F780
01C0
01C0
01C0
0380
0780
3F00
3B80
01C0
00C0
00C0
01C0
01C0
0380
0F80
7E00
F800
C000
ENDCHAR
STARTCHAR 021E
ENCODING 542
SWIDTH 760 0
DWIDTH 19 0
BBX 14 23 2 0
BITMAP
1C70
0EE0
07C0
0380
0000
E00C
E00C
E00C
E00C
E00C
E00C
E00C
E00C
FFFC
FFFC
E00C
E00C
E00C
E00C
E00C
E00C
E00C
E00C
ENDCHAR
STARTCHAR 021F
ENCODING 543
SWIDTH 640 0
DWIDTH 16 0
BBX 15 25 -1 0
BITMAP
E380
7700
3E00
1C00
0000
0000
1C00
1C00
1C00
1C00
1C00
1CE0
1FFC
1FBC
1E0E
1C0E
1C0E
1C0E
1C0E
1C0E
1C0E
1C0E
1C0E
1C0E
1C0E
ENDCHAR
STARTCHAR 0220
ENCODING 544
SWIDTH 760 0
DWIDTH 19 0
BBX 14 24 2 -6
BITMAP
E7E0
EFF8
FC3C
F01C
F01C
E00C
E00C
E00C
E00C
E00C
E00C
E00C
E00C
E00C
E00C
E00C
E00C
E00C
000C
000C
000C
000C
000C
000C
ENDCHAR
STARTCHAR 0221
ENCODING 545
SWIDTH 880 0
DWIDTH 22 0
BBX 20 22 1 -3
BITMAP
003000
003000
003000
003000
003000
063000
3FB000
7DF000
707000
607000
E03000
E03000
E03000
E031E0
E033F0
707F30
707E30
3FDFF0
1F8FC0
001C00
001800
001800
ENDCHAR
STARTCHAR 0222
ENCODING 546
SWIDTH 680 0
DWIDTH 17 0
BBX 15 18 1 0
BITMAP
701C
701C
701C
701C
381C
3C38
1FF0
1FF0
3C3C
701C
700E
E00E
E00E
600E
701E
783C
3FF8
0FF0
ENDCHAR
STARTCHAR 0223
ENCODING 547
SWIDTH 600 0
DWIDTH 15 0
BBX 13 19 1 0
BITMAP
7070
7070
7070
7070
7070
7070
3DE0
1FC0
3FE0
7070
6030
E038
E038
E038
E038
7038
7070
3FE0
1FC0
ENDCHAR
STARTCHAR 0224
ENCODING 548
SWIDTH 560 0
DWIDTH 14 0
BBX 12 23 1 -5
BITMAP
FFF0
FFF0
0070
00E0
00E0
01C0
0380
0380
0700
0E00
0E00
1C00
3800
3800
7000
E000
FFF0
FFF0
0030
0030
0030
01F0
01E0
ENDCHAR
STARTCHAR 0225
ENCODING 549
SWIDTH 480 0
DWIDTH 12 0
BBX 10 18 1 -5
BITMAP
FFC0
FFC0
0380
0700
0700
0E00
1C00
1800
3800
7000
E000
FFC0
FFC0
00C0
00C0
01C0
07C0
0780
ENDCHAR
STARTCHAR 0226
ENCODING 550
SWIDTH 640 0
DWIDTH 16 0
BBX 16 23 0 0
BITMAP
0080
01C0
01C0
0000
0000
01C0
03C0
03C0
07E0
0760
0670
0E70
0E30
0C38
1C38
1FFC
3FFC
3FFC
300E
700E
7006
6007
E007
ENDCHAR
STARTCHAR 0227
ENCODING 551
SWIDTH 560 0
DWIDTH 14 0
BBX 11 19 1 0
BITMAP
0200
0700
0700
0000
0000
0700
3FC0
39E0
00E0
0060
0060
1FE0
7FE0
F060
E060
E0E0
E1E0
7FE0
3E60
ENDCHAR
STARTCHAR 0228
ENCODING 552
SWIDTH 560 0
DWIDTH 14 0
BBX 10 24 2 -6
BITMAP
FFC0
FFC0
E000
E000
E000
E000
E000
E000
FFC0
FFC0
E000
E000
E000
E000
E000
E000
FFC0
FFC0
0400
0E00
0700
0300
1F00
1E00
ENDCHAR
STARTCHAR 0229
ENCODING 553
SWIDTH 560 0
DWIDTH 14 0
BBX 12 20 1 -6
BITMAP
0700
1FC0
39E0
7070
6070
E070
FFF0
FFF0
E000
6000
7000
7820
3FE0
1FE0
0200
0700
0380
0180
0F80
0F00
ENDCHAR
STARTCHAR 022A
ENCODING 554
SWIDTH 800 0
DWIDTH 20 0
BBX 17 25 1 0
BITMAP
07F800
07F800
000000
063000
073800
021000
000000
07F000
0FFC00
3E3E00
380700
700700
700380
700380
600380
E00380
E00380
600380
700380
700380
700700
380700
3C1E00
1FFC00
07F800
ENDCHAR
STARTCHAR 022B
ENCODING 555
SWIDTH 600 0
DWIDTH 15 0
BBX 13 21 1 0
BITMAP
1FC0
1FC0
0000
0880
1CC0
18C0
0000
0700
1FE0
3DF0
7070
6038
E038
E038
E038
E038
6038
7030
7870
3FE0
1FC0
ENDCHAR
STARTCHAR 022C
ENCODING 556
SWIDTH 800 0
DWIDTH 20 0
BBX 17 25 1 0
BITMAP
07F800
07F800
000000
07D800
06F000
040000
000000
07F000
0FFC00
3E3E00
380700
700700
700380
700380
600380
E00380
E00380
600380
700380
700380
700700
380700
3C1E00
1FFC00
07F800
ENDCHAR
STARTCHAR 022D
ENCODING 557
SWIDTH 600 0
DWIDTH 15 0
BBX 13 21 1 0
BITMAP
1FC0
1FC0
0000
1E60
1FC0
31C0
0000
0700
1FE0
3DF0
7070
6038
E038
E038
E038
E038
6038
7030
7870
3FE0
1FC0
ENDCHAR
STARTCHAR 022E
ENCODING 558
SWIDTH 800 0
DWIDTH 20 0
BBX 17 23 1 0
BITMAP
008000
01C000
01C000
000000
000000
07F000
0FFC00
3E3E00
380700
700700
700380
700380
600380
E00380
E00380
600380
700380
700380
700700
380700
3C1E00
1FFC00
07F800
ENDCHAR
STARTCHAR 022F
ENCODING 559
SWIDTH 600 0
DWIDTH 15 0
BBX 13 19 1 0
BITMAP
0200
0700
0700
0000
0000
0700
1FE0
3DF0
7070
6038
E038
E038
E038
E038
6038
7030
7870
3FE0
1FC0
ENDCHAR
STARTCHAR 0230
ENCODING 560
SWIDTH 800 0
DWIDTH 20 0
BBX 17 25 1 0
BITMAP
07F800
07F800
000000
00C000
01C000
00C000
000000
07F000
0FFC00
3E3E00
380700
700700
700380
700380
600380
E00380
E00380
600380
700380
700380
700700
380700
3C1E00
1FFC00
07F800
ENDCHAR
STARTCHAR 0231
ENCODING 561
SWIDTH 600 0
DWIDTH 15 0
BBX 13 21 1 0
BITMAP
1FC0
1FC0
0000
0300
0700
0300
0000
0700
1FE0
3DF0
7070
6038
E038
E038
E038
E038
6038
7030
7870
3FE0
1FC0
ENDCHAR
STARTCHAR 0232
ENCODING 562
SWIDTH 600 0
DWIDTH 15 0
BBX 15 21 0 0
BITMAP
1FE0
1FE0
0000
E01E
701C
7038
3838
3870
1C70
1CE0
0EE0
07C0
07C0
0380
0380
0380
0380
0380
0380
0380
0380
ENDCHAR
STARTCHAR 0233
ENCODING 563
SWIDTH 520 0
DWIDTH 13 0
BBX 13 23 0 -6
BITMAP
1FC0
1FC0
0000
0000
E038
7030
7070
3070
3860
38E0
18E0
1CC0
0DC0
0D80
0F80
0780
0700
0700
0700
0E00
1E00
FC00
F800
ENDCHAR
STARTCHAR 0234
ENCODING 564
SWIDTH 400 0
DWIDTH 10 0
BBX 10 20 0 -1
BITMAP
3800
3800
3800
3800
3800
3800
3800
3800
3800
3800
3800
3800
3800
3F00
3F80
39C0
38C0
7F80
EF80
4000
ENDCHAR
STARTCHAR 0235
ENCODING 565
SWIDTH 760 0
DWIDTH 19 0
BBX 17 15 2 -1
BITMAP
070000
DFC000
FDE000
F0E000
E07000
E07000
E07000
E07000
E07E00
E07F00
E07380
E07380
E0FF00
E1FF00
008000
ENDCHAR
STARTCHAR 0236
ENCODING 566
SWIDTH 400 0
DWIDTH 10 0
BBX 10 18 0 -1
BITMAP
1800
1800
1800
3800
FF80
FF80
3800
3800
3800
3800
3800
3F00
3FC0
38C0
38C0
7FC0
6F80
2000
ENDCHAR
STARTCHAR 0237
ENCODING 567
SWIDTH 280 0
DWIDTH 7 0
BBX 6 19 -1 -6
BITMAP
1C
1C
1C
1C
1C
1C
1C
1C
1C
1C
1C
1C
1C
1C
1C
1C
38
F8
F0
ENDCHAR
STARTCHAR 0238
ENCODING 568
SWIDTH 960 0
DWIDTH 24 0
BBX 22 19 1 0
BITMAP
003000
003000
003000
003000
003000
0631C0
3FB7F0
7DFFF8
707838
60781C
E0381C
E0301C
E0301C
E0301C
E0381C
707818
78FC38
3FCFF0
1F87E0
ENDCHAR
STARTCHAR 0239
ENCODING 569
SWIDTH 960 0
DWIDTH 24 0
BBX 22 20 1 -6
BITMAP
070380
1FCFF0
3DEFF8
707838
60781C
E0381C
E0301C
E0301C
E0301C
E0381C
707818
70FC38
3FF7F0
1F33E0
003000
003000
003000
003000
003000
003000
ENDCHAR
STARTCHAR 023A
ENCODING 570
SWIDTH 640 0
DWIDTH 16 0
BBX 16 21 0 -2
BITMAP
0018
01F0
03F0
03F0
07E0
0760
0670
0EF0
0EF0
0CF8
1DB8
1FF8
3FFC
3FFC
330E
760E
7606
6607
EC07
0C00
0C00
ENDCHAR
STARTCHAR 023B
ENCODING 571
SWIDTH 640 0
DWIDTH 16 0
BBX 14 21 1 -2
BITMAP
0018
03F8
0FFC
1F38
3820
7860
7060
7040
60C0
E0C0
6080
6180
7180
7300
7300
3B00
3E08
1FF8
07F8
0C00
0C00
ENDCHAR
STARTCHAR 023C
ENCODING 572
SWIDTH 480 0
DWIDTH 12 0
BBX 11 24 1 -5
BITMAP
0060
0060
0040
00C0
00C0
0780
1FC0
3FC0
7300
7300
E300
E600
E600
E600
EC00
7C00
7840
3FC0
1FC0
3000
3000
3000
6000
6000
ENDCHAR
STARTCHAR 023D
ENCODING 573
SWIDTH 520 0
DWIDTH 13 0
BBX 13 18 0 0
BITMAP
3800
3800
3800
3800
3800
3800
3800
3800
FF80
FF80
3800
3800
3800
3800
3800
3800
3FF8
3FF8
ENDCHAR
STARTCHAR 023E
ENCODING 574
SWIDTH 560 0
DWIDTH 14 0
BBX 14 21 0 -2
BITMAP
0018
FFFC
FFFC
0330
0360
0360
0340
03C0
0380
0380
0300
0300
0300
0700
0700
0F00
0F00
1B00
1B00
3000
3000
ENDCHAR
STARTCHAR 023F
ENCODING 575
SWIDTH 480 0
DWIDTH 12 0
BBX 10 20 1 -6
BITMAP
1F00
7FC0
FB80
E000
E000
7800
7E00
1F80
07C0
01C0
01C0
81C0
FF80
FF00
3800
1C00
1C00
0E00
0FC0
07C0
ENDCHAR
STARTCHAR 0240
ENCODING 576
SWIDTH 480 0
DWIDTH 12 0
BBX 11 19 1 -6
BITMAP
FFC0
FFC0
0380
0700
0700
0E00
1C00
1800
3800
7000
E000
F000
F800
1C00
0C00
0E00
0F00
07E0
03E0
ENDCHAR
STARTCHAR 0241
ENCODING 577
SWIDTH 440 0
DWIDTH 11 0
BBX 11 18 0 0
BITMAP
3F00
FF80
63C0
01C0
00E0
00E0
01C0
01C0
0380
0F00
1E00
1C00
1C00
1C00
1C00
1C00
1C00
1C00
ENDCHAR
STARTCHAR 0242
ENCODING 578
SWIDTH 440 0
DWIDTH 11 0
BBX 10 14 0 0
BITMAP
0E00
FF80
7FC0
41C0
00C0
00C0
01C0
01C0
0380
0780
1F00
1C00
1C00
1C00
ENDCHAR
STARTCHAR 0243
ENCODING 579
SWIDTH 640 0
DWIDTH 16 0
BBX 15 18 0 0
BITMAP
3FE0
3FF8
387C
381C
380E
380C
381C
3878
3FE0
3FFC
381C
380E
FF8E
FF8E
380E
383C
3FFC
3FF0
ENDCHAR
STARTCHAR 0244
ENCODING 580
SWIDTH 720 0
DWIDTH 18 0
BBX 18 18 0 0
BITMAP
380300
380300
380300
380300
380300
380300
380300
FFFFC0
FFFFC0
380300
380300
380300
380700
380700
1C0700
1E0E00
0FFC00
07F800
ENDCHAR
STARTCHAR 0245
ENCODING 581
SWIDTH 640 0
DWIDTH 16 0
BBX 16 18 0 0
BITMAP
0380
03C0
03C0
07C0
06E0
0E60
0E70
0C70
1C30
1C38
1838
3818
381C
301C
700C
700E
600E
E007
ENDCHAR
STARTCHAR 0246
ENCODING 582
SWIDTH 560 0
DWIDTH 14 0
BBX 10 21 2 -2
BITMAP
00C0
FFC0
FFC0
E180
E180
E300
E300
E300
E200
FFC0
FFC0
E600
E400
EC00
EC00
EC00
E800
FFC0
FFC0
1800
3000
ENDCHAR
STARTCHAR 0247
ENCODING 583
SWIDTH 560 0
DWIDTH 14 0
BBX 12 24 1 -5
BITMAP
0060
0060
00C0
00C0
00C0
0780
1FC0
39E0
7370
6370
E370
FFF0
FFF0
E600
6C00
7C00
7C20
3FE0
1FE0
1000
3000
3000
2000
6000
ENDCHAR
STARTCHAR 0248
ENCODING 584
SWIDTH 280 0
DWIDTH 7 0
BBX 9 23 -2 -5
BITMAP
0E00
0E00
0E00
0E00
0E00
0E00
0E00
0E00
3F80
3F80
0E00
0E00
0E00
0E00
0E00
0E00
0E00
0E00
0E00
0E00
BC00
FC00
F000
ENDCHAR
STARTCHAR 0249
ENCODING 585
SWIDTH 280 0
DWIDTH 7 0
BBX 8 25 -1 -6
BITMAP
08
1C
1C
00
00
00
1C
1C
1C
1C
1C
7F
7F
1C
1C
1C
1C
1C
1C
1C
1C
1C
38
F8
F0
ENDCHAR
STARTCHAR 024A
ENCODING 586
SWIDTH 760 0
DWIDTH 19 0
BBX 19 24 1 -6
BITMAP
07E300
1FF700
3E3F00
380F00
700700
700700
700700
600700
E00700
E00700
600700
700700
700700
700700
380F00
3C1F00
1FF700
0FE700
000700
000700
000700
0007A0
0003E0
0001E0
ENDCHAR
STARTCHAR 024B
ENCODING 587
SWIDTH 640 0
DWIDTH 16 0
BBX 15 20 1 -6
BITMAP
0600
3FB0
7DF0
7070
6070
E030
E030
E030
E030
E030
7070
7070
3FF0
1F30
0030
0030
0030
0038
003E
001E
ENDCHAR
STARTCHAR 024C
ENCODING 588
SWIDTH 640 0
DWIDTH 16 0
BBX 16 18 0 0
BITMAP
3FC0
3FF8
38F8
381C
381C
381C
381C
381C
38F8
FFF0
FFE0
3860
3870
3838
3838
381C
380E
380F
ENDCHAR
STARTCHAR 024D
ENCODING 589
SWIDTH 440 0
DWIDTH 11 0
BBX 10 14 0 0
BITMAP
01C0
33C0
37C0
3C00
3800
3800
FF00
FF00
3800
3800
3800
3800
3800
3800
ENDCHAR
STARTCHAR 024E
ENCODING 590
SWIDTH 600 0
DWIDTH 15 0
BBX 15 18 0 0
BITMAP
E01E
701C
7038
FFFC
FFFC
1C70
1CE0
0EE0
07C0
07C0
0380
0380
0380
0380
0380
0380
0380
0380
ENDCHAR
STARTCHAR 024F
ENCODING 591
SWIDTH 520 0
DWIDTH 13 0
BBX 13 19 0 -6
BITMAP
E038
7030
7070
3070
FFF8
FFF8
18E0
1CC0
0DC0
0D80
0F80
0780
0700
0700
0700
0E00
1E00
FC00
F800
ENDCHAR
STARTCHAR 0250
ENCODING 592
SWIDTH 560 0
DWIDTH 14 0
BBX 11 14 2 0
BITMAP
0780
DFC0
F9E0
E0E0
E0E0
E0E0
E1E0
FFC0
FC00
E000
E000
E080
7FC0
3F80
ENDCHAR
STARTCHAR 0251
ENCODING 593
SWIDTH 640 0
DWIDTH 16 0
BBX 14 14 1 0
BITMAP
0600
3FB0
7DF0
7070
6070
E030
E030
E030
E030
E030
7070
7078
3FFC
1F9C
ENDCHAR
STARTCHAR 0252
ENCODING 594
SWIDTH 640 0
DWIDTH 16 0
BBX 14 14 0 0
BITMAP
61C0
F7F0
FF78
381C
381C
381C
381C
381C
381C
381C
381C
3C38
3FF8
33F0
ENDCHAR
STARTCHAR 0253
ENCODING 595
SWIDTH 640 0
DWIDTH 16 0
BBX 12 19 2 0
BITMAP
7800
F800
E000
E000
E000
E700
FFC0
FFE0
F070
E070
E070
E070
E070
E070
E070
E070
F0E0
DFE0
CFC0
ENDCHAR
STARTCHAR 0254
ENCODING 596
SWIDTH 480 0
DWIDTH 12 0
BBX 10 14 1 0
BITMAP
3C00
FF00
FF80
0380
01C0
01C0
01C0
01C0
01C0
01C0
0380
8780
FF00
FE00
ENDCHAR
STARTCHAR 0255
ENCODING 597
SWIDTH 520 0
DWIDTH 13 0
BBX 11 15 1 -1
BITMAP
0780
1FE0
3FC0
7000
7000
6000
E000
E100
EFE0
7EE0
7860
7860
7FE0
7FC0
C000
ENDCHAR
STARTCHAR 0256
ENCODING 598
SWIDTH 640 0
DWIDTH 16 0
BBX 15 25 1 -6
BITMAP
0030
0030
0030
0030
0030
0630
3FB0
7DF0
7070
6070
E030
E030
E030
E030
E030
7070
7070
3FF0
1F30
0030
0030
0030
0038
003E
001E
ENDCHAR
STARTCHAR 0257
ENCODING 599
SWIDTH 640 0
DWIDTH 16 0
BBX 15 19 1 0
BITMAP
001E
003E
0038
0030
0030
0630
3FB0
7DF0
7070
6070
E030
E030
E030
E030
E030
7070
7070
3FF0
1F30
ENDCHAR
STARTCHAR 0258
ENCODING 600
SWIDTH 560 0
DWIDTH 14 0
BBX 12 14 1 0
BITMAP
0700
3FC0
79E0
70E0
E070
E070
FFF0
FFF0
0070
0070
0060
40E0
7FC0
7F80
ENDCHAR
STARTCHAR 0259
ENCODING 601
SWIDTH 560 0
DWIDTH 14 0
BBX 12 14 1 0
BITMAP
1E00
7FC0
7BE0
00E0
0070
0070
0070
FFF0
FFF0
E070
6060
70E0
3FC0
1F80
ENDCHAR
STARTCHAR 025A
ENCODING 602
SWIDTH 800 0
DWIDTH 20 0
BBX 19 14 1 0
BITMAP
1E0000
7FC000
7BE000
00E000
007600
007E00
03FE00
3FF760
FC73E0
E07180
607000
70E000
3FC000
1F8000
ENDCHAR
STARTCHAR 025B
ENCODING 603
SWIDTH 520 0
DWIDTH 13 0
BBX 11 14 1 0
BITMAP
0F00
3FE0
79C0
6000
6000
7000
3F00
3F00
7000
E000
E000
E020
7FE0
3FC0
ENDCHAR
STARTCHAR 025C
ENCODING 604
SWIDTH 520 0
DWIDTH 13 0
BBX 11 14 1 0
BITMAP
1E00
FF80
77C0
00C0
00C0
01C0
1F00
1F80
01C0
00E0
00E0
81C0
FFC0
FF80
ENDCHAR
STARTCHAR 025D
ENCODING 605
SWIDTH 720 0
DWIDTH 18 0
BBX 17 14 1 0
BITMAP
1E0000
FF8000
77D800
00F800
00FC00
01DF80
1F8F80
1F8000
01C000
00E000
00E000
81C000
FFC000
FF8000
ENDCHAR
STARTCHAR 025E
ENCODING 606
SWIDTH 600 0
DWIDTH 15 0
BBX 13 14 1 0
BITMAP
03C0
1FF0
3EF0
7038
7038
E030
E3E0
E3F0
E078
6038
7038
7838
3FF0
0FE0
ENDCHAR
STARTCHAR 025F
ENCODING 607
SWIDTH 280 0
DWIDTH 7 0
BBX 8 19 -1 -6
BITMAP
1C
1C
1C
1C
1C
7F
7F
1C
1C
1C
1C
1C
1C
1C
1C
1C
38
F8
F0
ENDCHAR
STARTCHAR 0260
ENCODING 608
SWIDTH 640 0
DWIDTH 16 0
BBX 15 25 1 -6
BITMAP
001E
003E
0038
0030
0030
0630
3FB0
7FF0
7070
6070
E030
E030
E030
E030
E030
7070
7070
3FF0
1F30
0030
0030
0070
60F0
7FE0
3F80
ENDCHAR
STARTCHAR 0261
ENCODING 609
SWIDTH 640 0
DWIDTH 16 0
BBX 12 20 1 -6
BITMAP
0600
3FB0
7FF0
7070
6070
E030
E030
E030
E030
E030
7070
7070
3FF0
1FB0
0030
0030
0070
60F0
7FE0
3F80
ENDCHAR
STARTCHAR 0262
ENCODING 610
SWIDTH 600 0
DWIDTH 15 0
BBX 12 14 1 0
BITMAP
07C0
1FF0
3EE0
7000
7000
6000
E3F0
E3F0
E070
6070
7070
7870
3FF0
1FE0
ENDCHAR
STARTCHAR 0263
ENCODING 611
SWIDTH 520 0
DWIDTH 13 0
BBX 13 19 0 -6
BITMAP
E038
7070
7070
3060
38E0
18C0
1DC0
0DC0
0D80
0F80
0700
0700
0F80
0D80
0D80
1DC0
0DC0
0F80
0700
ENDCHAR
STARTCHAR 0264
ENCODING 612
SWIDTH 520 0
DWIDTH 13 0
BBX 13 14 0 0
BITMAP
C018
F038
F078
38E0
1DC0
0D80
0F80
0700
0F80
0D80
0DC0
1DC0
0F80
0F80
ENDCHAR
STARTCHAR 0265
ENCODING 613
SWIDTH 640 0
DWIDTH 16 0
BBX 12 19 2 -6
BITMAP
E070
E070
E070
E070
E070
E070
E070
E070
E070
E0F0
F0F0
7FF0
3F70
0070
0070
0070
0070
0070
0070
ENDCHAR
STARTCHAR 0266
ENCODING 614
SWIDTH 640 0
DWIDTH 16 0
BBX 12 19 2 0
BITMAP
7800
F800
E000
E000
E000
E300
EFC0
FFE0
F070
E070
E070
E070
E070
E070
E070
E070
E070
E070
E070
ENDCHAR
STARTCHAR 0267
ENCODING 615
SWIDTH 640 0
DWIDTH 16 0
BBX 12 25 2 -6
BITMAP
7800
F800
E000
E000
E000
E700
FFE0
FDE0
F070
E070
E070
E070
E070
E070
E070
E070
E070
E070
E070
0070
0070
0070
0070
03E0
03C0
ENDCHAR
STARTCHAR 0268
ENCODING 616
SWIDTH 280 0
DWIDTH 7 0
BBX 7 19 0 0
BITMAP
10
38
38
00
00
00
38
38
38
38
38
FE
FE
38
38
38
38
38
38
ENDCHAR
STARTCHAR 0269
ENCODING 617
SWIDTH 360 0
DWIDTH 9 0
BBX 6 13 2 0
BITMAP
E0
E0
E0
E0
E0
E0
E0
E0
E0
E0
E0
7C
7C
ENDCHAR
STARTCHAR 026A
ENCODING 618
SWIDTH 320 0
DWIDTH 8 0
BBX 6 13 1 0
BITMAP
FC
30
30
30
30
30
30
30
30
30
30
FC
FC
ENDCHAR
STARTCHAR 026B
ENCODING 619
SWIDTH 400 0
DWIDTH 10 0
BBX 10 19 0 0
BITMAP
0C00
0C00
0C00
0C00
0C00
0C00
0C00
0C00
7CC0
FF80
CF80
0C00
0C00
0C00
0C00
0C00
0C00
0C00
0C00
ENDCHAR
STARTCHAR 026C
ENCODING 620
SWIDTH 360 0
DWIDTH 9 0
BBX 9 19 0 0
BITMAP
0C00
0C00
0C00
0C00
0C00
0C00
6C00
FC00
DC00
CC00
FF80
3F80
0C00
0C00
0C00
0C00
0C00
0C00
0C00
ENDCHAR
STARTCHAR 026D
ENCODING 621
SWIDTH 280 0
DWIDTH 7 0
BBX 6 25 2 -6
BITMAP
E0
E0
E0
E0
E0
E0
E0
E0
E0
E0
E0
E0
E0
E0
E0
E0
E0
E0
E0
E0
E0
E0
E0
7C
3C
ENDCHAR
STARTCHAR 026E
ENCODING 622
SWIDTH 680 0
DWIDTH 17 0
BBX 14 25 2 -6
BITMAP
E000
E000
E000
E000
E000
E000
FFFC
FFFC
E038
E070
E0E0
E1C0
E380
E7C0
E7F0
E078
E01C
E01C
E00C
000C
001C
001C
1878
1FF0
0FE0
ENDCHAR
STARTCHAR 026F
ENCODING 623
SWIDTH 960 0
DWIDTH 24 0
BBX 20 13 2 0
BITMAP
E0E070
E0E070
E0E070
E0E070
E0E070
E0E070
E0E070
E0E070
E0E070
E0E0F0
E1F0F0
7FFFF0
3E3F70
ENDCHAR
STARTCHAR 0270
ENCODING 624
SWIDTH 960 0
DWIDTH 24 0
BBX 20 19 2 -6
BITMAP
E0E070
E0E070
E0E070
E0E070
E0E070
E0E070
E0E070
E0E070
E0E070
E0E0F0
E1F0F0
7FFFF0
3E3F70
000070
000070
000070
000070
000070
000070
ENDCHAR
STARTCHAR 0271
ENCODING 625
SWIDTH 960 0
DWIDTH 24 0
BBX 20 20 2 -6
BITMAP
070380
DFCFE0
FFFDE0
F0F070
E0F070
E06070
E06070
E06070
E06070
E06070
E06070
E06070
E06070
E06070
000070
000070
000070
000070
0003E0
0003C0
ENDCHAR
STARTCHAR 0272
ENCODING 626
SWIDTH 640 0
DWIDTH 16 0
BBX 15 20 -1 -6
BITMAP
00F0
1BFC
1FBC
1E0E
1C0E
1C0E
1C0E
1C0E
1C0E
1C0E
1C0E
1C0E
1C0E
1C0E
1C00
1C00
1C00
3C00
F800
F000
ENDCHAR
STARTCHAR 0273
ENCODING 627
SWIDTH 640 0
DWIDTH 16 0
BBX 15 20 2 -6
BITMAP
0780
DFE0
FDE0
F070
E070
E070
E070
E070
E070
E070
E070
E070
E070
E070
0070
0070
0070
0070
003E
001E
ENDCHAR
STARTCHAR 0274
ENCODING 628
SWIDTH 640 0
DWIDTH 16 0
BBX 12 13 2 0
BITMAP
F030
F830
F830
DC30
CC30
CE30
E730
E330
E3B0
E1F0
E1F0
E0F0
E070
ENDCHAR
STARTCHAR 0275
ENCODING 629
SWIDTH 600 0
DWIDTH 15 0
BBX 13 14 1 0
BITMAP
0700
1FE0
3DF0
7070
6038
E038
FFF8
FFF8
E038
6038
7030
7870
3FE0
1FC0
ENDCHAR
STARTCHAR 0276
ENCODING 630
SWIDTH 880 0
DWIDTH 22 0
BBX 19 14 1 0
BITMAP
070000
1FFFE0
3DFFE0
707800
703800
E03800
E03FE0
E03FE0
E03800
603800
703800
787800
3FFFE0
1FBFE0
ENDCHAR
STARTCHAR 0277
ENCODING 631
SWIDTH 800 0
DWIDTH 20 0
BBX 18 14 1 0
BITMAP
01E000
0FFC00
1FFE00
380700
700380
600380
E0C180
E0C1C0
E0C1C0
E0C1C0
61C180
71E380
7FFF00
3F3E00
ENDCHAR
STARTCHAR 0278
ENCODING 632
SWIDTH 760 0
DWIDTH 19 0
BBX 16 25 1 -6
BITMAP
01C0
01C0
01C0
01C0
01C0
03E0
1FF8
3FFE
79CE
71C7
E1C3
E1C3
E1C3
E1C3
61C7
71C7
39CE
1FFC
0FF8
01C0
01C0
01C0
01C0
01C0
01C0
ENDCHAR
STARTCHAR 0279
ENCODING 633
SWIDTH 440 0
DWIDTH 11 0
BBX 9 13 0 0
BITMAP
0380
0380
0380
0380
0380
0380
0380
0380
0380
0780
1F80
7B80
F380
ENDCHAR
STARTCHAR 027A
ENCODING 634
SWIDTH 440 0
DWIDTH 11 0
BBX 9 19 0 0
BITMAP
0380
0380
0380
0380
0380
0380
0380
0380
0380
0380
0380
0380
0380
0380
0380
0780
1F80
7B80
F380
ENDCHAR
STARTCHAR 027B
ENCODING 635
SWIDTH 440 0
DWIDTH 11 0
BBX 11 19 0 -6
BITMAP
0380
0380
0380
0380
0380
0380
0380
0380
0380
0780
1F80
7B80
F380
0380
0380
0380
0380
03E0
01E0
ENDCHAR
STARTCHAR 027C
ENCODING 636
SWIDTH 440 0
DWIDTH 11 0
BBX 8 20 2 -6
BITMAP
07
CF
DF
F0
E0
E0
E0
E0
E0
E0
E0
E0
E0
E0
E0
E0
E0
E0
E0
E0
ENDCHAR
STARTCHAR 027D
ENCODING 637
SWIDTH 440 0
DWIDTH 11 0
BBX 8 20 2 -6
BITMAP
07
CF
DF
F0
E0
E0
E0
E0
E0
E0
E0
E0
E0
E0
E0
E0
E0
E0
7C
3C
ENDCHAR
STARTCHAR 027E
ENCODING 638
SWIDTH 360 0
DWIDTH 9 0
BBX 7 14 2 0
BITMAP
3E
7C
FC
E0
E0
E0
E0
E0
E0
E0
E0
E0
E0
E0
ENDCHAR
STARTCHAR 027F
ENCODING 639
SWIDTH 360 0
DWIDTH 9 0
BBX 7 20 0 -6
BITMAP
F8
7C
7E
0E
0E
0E
0E
0E
0E
0E
0E
0E
0E
0E
0E
0E
0E
0E
0E
0E
ENDCHAR
STARTCHAR 0280
ENCODING 640
SWIDTH 560 0
DWIDTH 14 0
BBX 12 13 2 0
BITMAP
FF80
FFC0
E0E0
E0E0
E0E0
E1C0
FF80
FF00
E380
E380
E1C0
E0E0
E0F0
ENDCHAR
STARTCHAR 0281
ENCODING 641
SWIDTH 560 0
DWIDTH 14 0
BBX 12 13 2 0
BITMAP
E0F0
E1C0
E1C0
E380
E700
FF00
FFC0
E1C0
E0E0
E0E0
E1C0
FFC0
FF00
ENDCHAR
STARTCHAR 0282
ENCODING 642
SWIDTH 480 0
DWIDTH 12 0
BBX 10 19 1 -5
BITMAP
1F00
7FC0
FB80
E000
E000
7800
7E00
1F80
07C0
01C0
01C0
81C0
FF80
FF00
E000
E000
E000
7C00
3C00
ENDCHAR
STARTCHAR 0283
ENCODING 643
SWIDTH 280 0
DWIDTH 7 0
BBX 9 25 -1 -6
BITMAP
0F80
0F80
1C00
1C00
1C00
1C00
1C00
1C00
1C00
1C00
1C00
1C00
1C00
1C00
1C00
1C00
1C00
1C00
1C00
1C00
1C00
1C00
3C00
F800
F000
ENDCHAR
STARTCHAR 0284
ENCODING 644
SWIDTH 280 0
DWIDTH 7 0
BBX 9 25 -1 -6
BITMAP
0F80
0F80
1C00
1C00
1C00
1C00
1C00
1C00
1C00
1C00
1C00
7F00
7F00
1C00
1C00
1C00
1C00
1C00
1C00
1C00
1C00
1C00
3C00
F800
F000
ENDCHAR
STARTCHAR 0285
ENCODING 645
SWIDTH 280 0
DWIDTH 7 0
BBX 8 20 0 -6
BITMAP
E0
F0
F0
38
38
38
38
38
38
38
38
38
38
38
38
38
38
38
1F
0F
ENDCHAR
STARTCHAR 0286
ENCODING 646
SWIDTH 280 0
DWIDTH 7 0
BBX 11 25 -3 -6
BITMAP
03E0
03E0
0700
0700
0700
0700
0700
0700
0700
0700
0700
0700
0700
0700
0700
0700
0700
0700
0700
3FC0
7FC0
E700
E600
7E00
3C00
ENDCHAR
STARTCHAR 0287
ENCODING 647
SWIDTH 400 0
DWIDTH 10 0
BBX 8 17 1 -3
BITMAP
E0
F8
BC
1C
0C
0C
0C
0C
0C
0C
0C
0C
FF
FE
0C
0C
08
ENDCHAR
STARTCHAR 0288
ENCODING 648
SWIDTH 400 0
DWIDTH 10 0
BBX 9 23 0 -6
BITMAP
1800
1800
1800
3800
FF80
FF80
3800
3800
3800
3800
3800
3800
3800
3800
3800
3800
3800
3800
3800
3800
1C00
1F80
0F80
ENDCHAR
STARTCHAR 0289
ENCODING 649
SWIDTH 640 0
DWIDTH 16 0
BBX 16 13 0 0
BITMAP
381C
381C
381C
381C
381C
FFFF
FFFF
381C
381C
383C
3C3C
1FFC
0FDC
ENDCHAR
STARTCHAR 028A
ENCODING 650
SWIDTH 600 0
DWIDTH 15 0
BBX 14 13 1 0
BITMAP
FCFC
FCFC
3870
7030
6038
E038
E018
E038
E038
7038
7070
3FE0
1FC0
ENDCHAR
STARTCHAR 028B
ENCODING 651
SWIDTH 640 0
DWIDTH 16 0
BBX 12 14 2 0
BITMAP
03C0
E3E0
E3F0
E070
E070
E070
E070
E070
E070
E070
E070
70E0
7FE0
3F80
ENDCHAR
STARTCHAR 028C
ENCODING 652
SWIDTH 520 0
DWIDTH 13 0
BBX 13 13 0 0
BITMAP
0700
0F80
0D80
0DC0
1DC0
18C0
38E0
38E0
3060
7070
7070
6038
E038
ENDCHAR
STARTCHAR 028D
ENCODING 653
SWIDTH 800 0
DWIDTH 20 0
BBX 20 13 0 0
BITMAP
0E0700
1F0780
1F0D80
1B0D80
1B0DC0
3B9DC0
3999C0
3198C0
31D8E0
70F8E0
70F060
60F060
E0F070
ENDCHAR
STARTCHAR 028E
ENCODING 654
SWIDTH 520 0
DWIDTH 13 0
BBX 13 19 0 0
BITMAP
00F8
01F8
0380
0380
0700
0700
0700
0F80
0D80
0D80
1DC0
18C0
38E0
38E0
3060
7070
7070
6038
E038
ENDCHAR
STARTCHAR 028F
ENCODING 655
SWIDTH 480 0
DWIDTH 12 0
BBX 12 13 0 0
BITMAP
E070
70E0
38C0
39C0
1D80
0F80
0F00
0600
0600
0600
0600
0600
0600
ENDCHAR
STARTCHAR 0290
ENCODING 656
SWIDTH 480 0
DWIDTH 12 0
BBX 13 19 1 -6
BITMAP
FFC0
FFC0
0380
0700
0700
0E00
1C00
1800
3800
7000
E000
FFC0
FFC0
00C0
00C0
00C0
00C0
00F8
0078
ENDCHAR
STARTCHAR 0291
ENCODING 657
SWIDTH 560 0
DWIDTH 14 0
BBX 13 15 1 -2
BITMAP
FFC0
FFC0
0380
0700
0700
0E00
1C00
18E0
3BF0
7338
E638
FFF0
FFE0
0C00
1800
ENDCHAR
STARTCHAR 0292
ENCODING 658
SWIDTH 520 0
DWIDTH 13 0
BBX 12 19 0 -6
BITMAP
7FF0
7FE0
00C0
01C0
0380
0700
0E00
1F00
1FC0
01E0
0070
0070
0070
0070
0070
0070
E1E0
FFC0
7F00
ENDCHAR
STARTCHAR 0293
ENCODING 659
SWIDTH 520 0
DWIDTH 13 0
BBX 13 19 0 -6
BITMAP
7FF0
7FE0
00C0
0180
0380
0700
0E00
1F00
1FC0
01E0
0070
0070
3C70
FF70
C3F0
C0F0
E1F0
FFF8
3F10
ENDCHAR
STARTCHAR 0294
ENCODING 660
SWIDTH 440 0
DWIDTH 11 0
BBX 10 19 0 0
BITMAP
3F00
FF80
61C0
01C0
00C0
00C0
01C0
01C0
0380
0F00
1E00
1C00
1C00
1C00
1C00
1C00
1C00
1C00
1C00
ENDCHAR
STARTCHAR 0295
ENCODING 661
SWIDTH 440 0
DWIDTH 11 0
BBX 10 19 1 0
BITMAP
3F00
7FC0
E180
E000
C000
C000
E000
E000
7000
3C00
1E00
0E00
0E00
0E00
0E00
0E00
0E00
0E00
0E00
ENDCHAR
STARTCHAR 0296
ENCODING 662
SWIDTH 440 0
DWIDTH 11 0
BBX 10 19 0 0
BITMAP
1C00
1C00
1C00
1C00
1C00
1C00
1C00
1C00
1E00
0F00
0380
01C0
01C0
00C0
00C0
01C0
41C0
FF80
7F00
ENDCHAR
STARTCHAR 0297
ENCODING 663
SWIDTH 480 0
DWIDTH 12 0
BBX 10 20 1 -6
BITMAP
0780
1FC0
3FC0
3800
7000
7000
6000
E000
E000
E000
E000
E000
E000
E000
6000
7000
7000
3840
1FC0
0F80
ENDCHAR
STARTCHAR 0298
ENCODING 664
SWIDTH 800 0
DWIDTH 20 0
BBX 17 18 1 0
BITMAP
07F000
0FFC00
3E3E00
380700
700700
700380
700380
600380
E1C380
E1E380
61C380
700380
700380
700700
380700
3C1E00
1FFC00
07F800
ENDCHAR
STARTCHAR 0299
ENCODING 665
SWIDTH 560 0
DWIDTH 14 0
BBX 11 13 2 0
BITMAP
FFC0
FFC0
E0E0
E0E0
E1C0
FF80
FFC0
E0E0
E0E0
E0E0
E0E0
FFC0
FF80
ENDCHAR
STARTCHAR 029A
ENCODING 666
SWIDTH 600 0
DWIDTH 15 0
BBX 13 14 1 0
BITMAP
0E00
3FC0
7DE0
E070
6038
7038
3E38
3E38
F038
E038
E070
E070
7FE0
3FC0
ENDCHAR
STARTCHAR 029B
ENCODING 667
SWIDTH 600 0
DWIDTH 15 0
BBX 14 19 1 0
BITMAP
003C
003C
0070
0070
0070
07F0
1FF0
3FE0
7000
7000
E000
E3F0
E3F0
E070
E070
7070
7870
3FF0
1FE0
ENDCHAR
STARTCHAR 029C
ENCODING 668
SWIDTH 640 0
DWIDTH 16 0
BBX 12 13 2 0
BITMAP
E070
E070
E070
E070
E070
FFF0
FFF0
E070
E070
E070
E070
E070
E070
ENDCHAR
STARTCHAR 029D
ENCODING 669
SWIDTH 280 0
DWIDTH 7 0
BBX 9 25 -2 -6
BITMAP
0400
0E00
0E00
0000
0000
0000
0E00
0E00
0E00
0E00
0E00
0E00
0E00
0E00
0E00
0E00
0E00
0E00
0E00
7F80
FF80
CE00
CC00
FC00
7800
ENDCHAR
STARTCHAR 029E
ENCODING 670
SWIDTH 560 0
DWIDTH 14 0
BBX 12 19 0 -6
BITMAP
F070
3870
3870
1C70
0E70
07F0
07F0
03F0
0770
0E70
1C70
3870
7070
0070
0070
0070
0070
0070
0070
ENDCHAR
STARTCHAR 029F
ENCODING 671
SWIDTH 440 0
DWIDTH 11 0
BBX 9 13 2 0
BITMAP
E000
E000
E000
E000
E000
E000
E000
E000
E000
E000
E000
FF80
FF80
ENDCHAR
STARTCHAR 02A0
ENCODING 672
SWIDTH 640 0
DWIDTH 16 0
BBX 15 25 1 -6
BITMAP
001E
003E
0038
0030
0030
0630
3FB0
7DF0
7070
6070
E030
E030
E030
E030
E030
7070
7070
3FF0
1F30
0030
0030
0030
0030
0030
0030
ENDCHAR
STARTCHAR 02A1
ENCODING 673
SWIDTH 440 0
DWIDTH 11 0
BBX 10 19 0 0
BITMAP
3F00
FF80
61C0
01C0
00C0
00C0
01C0
01C0
0380
0F00
1E00
1C00
1C00
7F80
7F80
1C00
1C00
1C00
1C00
ENDCHAR
STARTCHAR 02A2
ENCODING 674
SWIDTH 440 0
DWIDTH 11 0
BBX 10 19 1 0
BITMAP
3F00
7FC0
E180
E000
C000
C000
E000
E000
7000
3C00
1E00
0E00
0E00
7F80
7F80
0E00
0E00
0E00
0E00
ENDCHAR
STARTCHAR 02A3
ENCODING 675
SWIDTH 960 0
DWIDTH 24 0
BBX 22 19 1 0
BITMAP
003000
003000
003000
003000
003000
063000
3FBFFC
7DFFFC
707018
607038
E03070
E030E0
E030E0
E031C0
E03380
707300
707700
3FFFFC
1F3FFC
ENDCHAR
STARTCHAR 02A4
ENCODING 676
SWIDTH 1000 0
DWIDTH 25 0
BBX 23 25 1 -6
BITMAP
003000
003000
003000
003000
003000
063000
3FBFFE
7DFFFE
70701C
607038
E03070
E030E0
E031C0
E033E0
E033F8
70703C
70700E
3FF00E
1F3006
000006
00000E
00000E
000C3C
000FF8
0007F0
ENDCHAR
STARTCHAR 02A5
ENCODING 677
SWIDTH 1040 0
DWIDTH 26 0
BBX 25 21 1 -2
BITMAP
00300000
00300000
00300000
00300000
00300000
06300000
3FBFFC00
7DFFFC00
70701800
60703800
E0307000
E030E000
E030E000
E031CF00
E0339F80
70733180
70773380
3FFFFF80
1F3FFF00
0000C000
0000C000
ENDCHAR
STARTCHAR 02A6
ENCODING 678
SWIDTH 760 0
DWIDTH 19 0
BBX 18 17 0 0
BITMAP
180000
180000
180000
380F00
FFFFC0
FFF9C0
386000
386000
387800
383E00
381F80
3803C0
3801C0
3800C0
1C01C0
1FFFC0
0FFF00
ENDCHAR
STARTCHAR 02A7
ENCODING 679
SWIDTH 560 0
DWIDTH 14 0
BBX 14 25 0 -6
BITMAP
003C
007C
1870
1870
1870
3870
FFF0
FFF0
3870
3870
3870
3870
3870
3870
3870
3870
3870
1FF0
0FF0
0070
0070
0060
00E0
03E0
03C0
ENDCHAR
STARTCHAR 02A8
ENCODING 680
SWIDTH 880 0
DWIDTH 22 0
BBX 21 17 0 0
BITMAP
180000
180000
180000
3801E0
FF8FF0
FF9FF0
381C00
383800
383800
383800
383840
383FF0
383F38
383C18
387C38
1FEFF0
0F87E0
ENDCHAR
STARTCHAR 02A9
ENCODING 681
SWIDTH 880 0
DWIDTH 22 0
BBX 20 25 0 -6
BITMAP
0FC000
1FC000
1C0000
180000
180000
180380
FFEFE0
FFFFF0
187070
187030
186030
186030
186030
186030
186030
186030
186030
186030
186030
000030
000030
000030
000070
0001F0
0001E0
ENDCHAR
STARTCHAR 02AA
ENCODING 682
SWIDTH 680 0
DWIDTH 17 0
BBX 14 19 2 0
BITMAP
E000
E000
E000
E000
E000
E1E0
E7FC
E7B8
EE00
EE00
E700
E7E0
E1F8
E07C
E01C
E01C
F01C
FFF8
FFF0
ENDCHAR
STARTCHAR 02AB
ENCODING 683
SWIDTH 640 0
DWIDTH 16 0
BBX 13 19 2 0
BITMAP
E000
E000
E000
E000
E000
E000
FFF8
FFF0
E070
E0E0
E1C0
E1C0
E380
E700
E600
EE00
FC00
FFF8
FFF8
ENDCHAR
STARTCHAR 02AC
ENCODING 684
SWIDTH 520 0
DWIDTH 13 0
BBX 13 18 0 0
BITMAP
C718
C718
6730
6D30
6DB0
29A0
38E0
38E0
38C0
0000
C718
4730
6530
6DB0
6DA0
28E0
38E0
38E0
ENDCHAR
STARTCHAR 02AD
ENCODING 685
SWIDTH 600 0
DWIDTH 15 0
BBX 11 18 2 0
BITMAP
FFE0
FFE0
E0E0
E0E0
E0E0
E0E0
0000
0000
0000
0000
0000
0000
FFE0
FFE0
E0E0
E0E0
E0E0
E0E0
ENDCHAR
STARTCHAR 02AE
ENCODING 686
SWIDTH 640 0
DWIDTH 16 0
BBX 15 20 -1 -6
BITMAP
7000
F80E
BC0E
1C0E
1C0E
1C0E
1C0E
1C0E
1C0E
1C0E
1C0E
1E1E
0FFE
07EE
000E
000E
000E
000E
000E
000E
ENDCHAR
STARTCHAR 02AF
ENCODING 687
SWIDTH 640 0
DWIDTH 16 0
BBX 17 20 -1 -6
BITMAP
700000
F80E00
BC0E00
1C0E00
1C0E00
1C0E00
1C0E00
1C0E00
1C0E00
1C0E00
1C0E00
1E1E00
0FFE00
07EE00
000E00
000E00
000E00
000E00
000780
000380
ENDCHAR
STARTCHAR 02B0
ENCODING 688
SWIDTH 400 0
DWIDTH 10 0
BBX 8 12 1 7
BITMAP
C0
C0
C0
C0
FE
E3
C3
C3
C3
C3
C3
C3
ENDCHAR
STARTCHAR 02B1
ENCODING 689
SWIDTH 400 0
DWIDTH 10 0
BBX 8 12 1 7
BITMAP
30
70
C0
C0
FE
E3
C3
C3
C3
C3
C3
C3
ENDCHAR
STARTCHAR 02B2
ENCODING 690
SWIDTH 160 0
DWIDTH 4 0
BBX 4 14 -1 4
BITMAP
30
10
00
30
30
30
30
30
30
30
30
30
30
F0
ENDCHAR
STARTCHAR 02B3
ENCODING 691
SWIDTH 280 0
DWIDTH 7 0
BBX 6 8 1 7
BITMAP
DC
E0
C0
C0
C0
C0
C0
C0
ENDCHAR
STARTCHAR 02B4
ENCODING 692
SWIDTH 280 0
DWIDTH 7 0
BBX 6 8 0 7
BITMAP
0C
0C
0C
0C
0C
1C
BC
EC
ENDCHAR
STARTCHAR 02B5
ENCODING 693
SWIDTH 280 0
DWIDTH 7 0
BBX 7 11 0 4
BITMAP
0C
0C
0C
0C
0C
1C
BC
EC
0C
0C
0E
ENDCHAR
STARTCHAR 02B6
ENCODING 694
SWIDTH 360 0
DWIDTH 9 0
BBX 8 8 1 7
BITMAP
C7
C6
CC
FC
C6
C2
CE
FC
ENDCHAR
STARTCHAR 02B7
ENCODING 695
SWIDTH 520 0
DWIDTH 13 0
BBX 13 8 0 7
BITMAP
C718
4510
6530
6DB0
2DA0
28A0
38E0
38E0
ENDCHAR
STARTCHAR 02B8
ENCODING 696
SWIDTH 360 0
DWIDTH 9 0
BBX 9 11 0 4
BITMAP
C380
6300
6200
2600
3600
1400
1C00
1800
1800
1800
F000
ENDCHAR
STARTCHAR 02B9
ENCODING 697
SWIDTH 200 0
DWIDTH 5 0
BBX 4 6 0 12
BITMAP
70
70
70
60
60
E0
ENDCHAR
STARTCHAR 02BA
ENCODING 698
SWIDTH 400 0
DWIDTH 10 0
BBX 9 6 0 12
BITMAP
7380
7380
7380
6300
6300
E700
ENDCHAR
STARTCHAR 02BB
ENCODING 699
SWIDTH 200 0
DWIDTH 5 0
BBX 4 6 0 12
BITMAP
30
30
70
70
60
E0
ENDCHAR
STARTCHAR 02BC
ENCODING 700
SWIDTH 200 0
DWIDTH 5 0
BBX 4 6 0 12
BITMAP
70
70
70
60
60
E0
ENDCHAR
STARTCHAR 02BD
ENCODING 701
SWIDTH 200 0
DWIDTH 5 0
BBX 4 6 0 12
BITMAP
E0
60
70
70
30
30
ENDCHAR
STARTCHAR 02BE
ENCODING 702
SWIDTH 160 0
DWIDTH 4 0
BBX 3 6 1 14
BITMAP
80
C0
60
60
C0
80
ENDCHAR
STARTCHAR 02BF
ENCODING 703
SWIDTH 160 0
DWIDTH 4 0
BBX 3 6 1 14
BITMAP
60
E0
80
80
E0
20
ENDCHAR
STARTCHAR 02C0
ENCODING 704
SWIDTH 280 0
DWIDTH 7 0
BBX 7 7 0 12
BITMAP
FC
7E
06
06
0C
38
30
ENDCHAR
STARTCHAR 02C1
ENCODING 705
SWIDTH 280 0
DWIDTH 7 0
BBX 7 7 0 12
BITMAP
3E
76
E0
60
70
38
08
ENDCHAR
STARTCHAR 02C2
ENCODING 706
SWIDTH 280 0
DWIDTH 7 0
BBX 6 7 1 13
BITMAP
04
18
60
80
60
1C
04
ENDCHAR
STARTCHAR 02C3
ENCODING 707
SWIDTH 280 0
DWIDTH 7 0
BBX 6 7 1 13
BITMAP
80
C0
30
0C
30
C0
80
ENDCHAR
STARTCHAR 02C4
ENCODING 708
SWIDTH 280 0
DWIDTH 7 0
BBX 7 6 0 14
BITMAP
10
10
28
28
44
C6
ENDCHAR
STARTCHAR 02C5
ENCODING 709
SWIDTH 280 0
DWIDTH 7 0
BBX 7 6 0 14
BITMAP
86
44
4C
28
28
10
ENDCHAR
STARTCHAR 02C6
ENCODING 710
SWIDTH 440 0
DWIDTH 11 0
BBX 9 4 1 15
BITMAP
1C00
3E00
7700
C180
ENDCHAR
STARTCHAR 02C7
ENCODING 711
SWIDTH 440 0
DWIDTH 11 0
BBX 9 4 1 15
BITMAP
E380
7700
3E00
1C00
ENDCHAR
STARTCHAR 02C8
ENCODING 712
SWIDTH 160 0
DWIDTH 4 0
BBX 2 7 1 12
BITMAP
C0
C0
C0
C0
C0
C0
C0
ENDCHAR
STARTCHAR 02C9
ENCODING 713
SWIDTH 400 0
DWIDTH 10 0
BBX 8 2 1 15
BITMAP
FF
FF
ENDCHAR
STARTCHAR 02CA
ENCODING 714
SWIDTH 320 0
DWIDTH 8 0
BBX 6 4 1 15
BITMAP
3C
70
60
C0
ENDCHAR
STARTCHAR 02CB
ENCODING 715
SWIDTH 320 0
DWIDTH 8 0
BBX 6 4 1 15
BITMAP
E0
70
38
1C
ENDCHAR
STARTCHAR 02CC
ENCODING 716
SWIDTH 160 0
DWIDTH 4 0
BBX 2 7 1 -5
BITMAP
C0
C0
C0
C0
C0
C0
C0
ENDCHAR
STARTCHAR 02CD
ENCODING 717
SWIDTH 400 0
DWIDTH 10 0
BBX 8 2 1 -4
BITMAP
FF
FF
ENDCHAR
STARTCHAR 02CE
ENCODING 718
SWIDTH 320 0
DWIDTH 8 0
BBX 6 4 1 -5
BITMAP
E0
70
38
1C
ENDCHAR
STARTCHAR 02CF
ENCODING 719
SWIDTH 320 0
DWIDTH 8 0
BBX 6 4 1 -5
BITMAP
3C
70
60
C0
ENDCHAR
STARTCHAR 02D0
ENCODING 720
SWIDTH 320 0
DWIDTH 8 0
BBX 4 13 2 0
BITMAP
F0
60
40
00
00
00
00
00
00
00
60
60
F0
ENDCHAR
STARTCHAR 02D1
ENCODING 721
SWIDTH 320 0
DWIDTH 8 0
BBX 4 3 2 10
BITMAP
F0
60
40
ENDCHAR
STARTCHAR 02D2
ENCODING 722
SWIDTH 200 0
DWIDTH 5 0
BBX 3 6 1 4
BITMAP
80
C0
60
60
C0
80
ENDCHAR
STARTCHAR 02D3
ENCODING 723
SWIDTH 200 0
DWIDTH 5 0
BBX 3 6 1 4
BITMAP
60
E0
C0
C0
E0
20
ENDCHAR
STARTCHAR 02D4
ENCODING 724
SWIDTH 280 0
DWIDTH 7 0
BBX 5 4 1 6
BITMAP
20
20
20
F8
ENDCHAR
STARTCHAR 02D5
ENCODING 725
SWIDTH 280 0
DWIDTH 7 0
BBX 5 4 1 6
BITMAP
F8
F8
20
20
ENDCHAR
STARTCHAR 02D6
ENCODING 726
SWIDTH 280 0
DWIDTH 7 0
BBX 5 5 1 5
BITMAP
20
F8
F8
20
20
ENDCHAR
STARTCHAR 02D7
ENCODING 727
SWIDTH 280 0
DWIDTH 7 0
BBX 5 1 1 7
BITMAP
F8
ENDCHAR
STARTCHAR 02D8
ENCODING 728
SWIDTH 400 0
DWIDTH 10 0
BBX 8 4 1 15
BITMAP
C1
C3
7E
3C
ENDCHAR
STARTCHAR 02D9
ENCODING 729
SWIDTH 200 0
DWIDTH 5 0
BBX 3 3 1 16
BITMAP
40
E0
E0
ENDCHAR
STARTCHAR 02DA
ENCODING 730
SWIDTH 320 0
DWIDTH 8 0
BBX 6 6 1 15
BITMAP
20
F8
CC
CC
F8
70
ENDCHAR
STARTCHAR 02DB
ENCODING 731
SWIDTH 240 0
DWIDTH 6 0
BBX 4 6 1 -6
BITMAP
70
40
C0
C0
F0
70
ENDCHAR
STARTCHAR 02DC
ENCODING 732
SWIDTH 440 0
DWIDTH 11 0
BBX 9 4 1 15
BITMAP
2080
7C80
FF80
C700
ENDCHAR
STARTCHAR 02DD
ENCODING 733
SWIDTH 480 0
DWIDTH 12 0
BBX 10 4 1 15
BITMAP
3BC0
7300
6600
C400
ENDCHAR
STARTCHAR 02DE
ENCODING 734
SWIDTH 240 0
DWIDTH 6 0
BBX 9 6 -3 4
BITMAP
1800
F800
F800
1F80
0F80
0600
ENDCHAR
STARTCHAR 02DF
ENCODING 735
SWIDTH 280 0
DWIDTH 7 0
BBX 5 5 1 14
BITMAP
D8
70
70
D8
48
ENDCHAR
STARTCHAR 02E0
ENCODING 736
SWIDTH 360 0
DWIDTH 9 0
BBX 9 11 0 4
BITMAP
C380
6300
6600
3600
3400
1C00
1800
1C00
3400
3400
1C00
ENDCHAR
STARTCHAR 02E1
ENCODING 737
SWIDTH 160 0
DWIDTH 4 0
BBX 2 12 1 7
BITMAP
C0
C0
C0
C0
C0
C0
C0
C0
C0
C0
C0
C0
ENDCHAR
STARTCHAR 02E2
ENCODING 738
SWIDTH 320 0
DWIDTH 8 0
BBX 6 8 1 7
BITMAP
FC
C0
C0
78
1C
0C
8C
F8
ENDCHAR
STARTCHAR 02E3
ENCODING 739
SWIDTH 360 0
DWIDTH 9 0
BBX 9 8 0 7
BITMAP
E300
3600
3400
1C00
1C00
3600
6300
C380
ENDCHAR
STARTCHAR 02E4
ENCODING 740
SWIDTH 280 0
DWIDTH 7 0
BBX 7 12 0 7
BITMAP
18
7E
C0
C0
40
60
38
18
18
18
18
18
ENDCHAR
STARTCHAR 02E5
ENCODING 741
SWIDTH 400 0
DWIDTH 10 0
BBX 7 17 2 0
BITMAP
FE
06
06
06
06
06
06
06
06
06
06
06
06
06
06
06
06
ENDCHAR
STARTCHAR 02E6
ENCODING 742
SWIDTH 400 0
DWIDTH 10 0
BBX 7 17 2 0
BITMAP
06
06
06
06
FE
FE
06
06
06
06
06
06
06
06
06
06
06
ENDCHAR
STARTCHAR 02E7
ENCODING 743
SWIDTH 400 0
DWIDTH 10 0
BBX 7 17 2 0
BITMAP
06
06
06
06
06
06
06
FE
FE
06
06
06
06
06
06
06
06
ENDCHAR
STARTCHAR 02E8
ENCODING 744
SWIDTH 400 0
DWIDTH 10 0
BBX 7 17 2 0
BITMAP
06
06
06
06
06
06
06
06
06
06
06
FE
FE
06
06
06
06
ENDCHAR
STARTCHAR 02E9
ENCODING 745
SWIDTH 400 0
DWIDTH 10 0
BBX 7 17 2 0
BITMAP
06
06
06
06
06
06
06
06
06
06
06
06
06
06
06
FE
FE
ENDCHAR
STARTCHAR 02EA
ENCODING 746
SWIDTH 400 0
DWIDTH 10 0
BBX 7 9 2 4
BITMAP
C0
C0
C0
C0
C0
C0
C0
FE
FE
ENDCHAR
STARTCHAR 02EB
ENCODING 747
SWIDTH 400 0
DWIDTH 10 0
BBX 7 9 2 4
BITMAP
C0
C0
C0
FE
FE
C0
C0
C0
C0
ENDCHAR
STARTCHAR 02EC
ENCODING 748
SWIDTH 440 0
DWIDTH 11 0
BBX 9 4 1 -5
BITMAP
E380
7700
3E00
1C00
ENDCHAR
STARTCHAR 02ED
ENCODING 749
SWIDTH 480 0
DWIDTH 12 0
BBX 10 5 1 15
BITMAP
FFC0
0000
0000
FFC0
FFC0
ENDCHAR
STARTCHAR 02EE
ENCODING 750
SWIDTH 400 0
DWIDTH 10 0
BBX 9 6 0 12
BITMAP
7380
7380
7380
6300
6300
E700
ENDCHAR
STARTCHAR 02EF
ENCODING 751
SWIDTH 400 0
DWIDTH 10 0
BBX 8 6 1 -6
BITMAP
C3
63
66
3C
1C
18
ENDCHAR
STARTCHAR 02F0
ENCODING 752
SWIDTH 400 0
DWIDTH 10 0
BBX 8 6 1 -6
BITMAP
08
18
3C
36
66
C3
ENDCHAR
STARTCHAR 02F1
ENCODING 753
SWIDTH 320 0
DWIDTH 8 0
BBX 6 7 1 -6
BITMAP
04
0C
78
E0
F0
1C
04
ENDCHAR
STARTCHAR 02F2
ENCODING 754
SWIDTH 320 0
DWIDTH 8 0
BBX 6 7 1 -6
BITMAP
80
E0
78
1C
3C
F0
80
ENDCHAR
STARTCHAR 02F3
ENCODING 755
SWIDTH 320 0
DWIDTH 8 0
BBX 6 5 1 -7
BITMAP
78
CC
CC
7C
78
ENDCHAR
STARTCHAR 02F4
ENCODING 756
SWIDTH 320 0
DWIDTH 8 0
BBX 6 4 1 7
BITMAP
E0
70
38
1C
ENDCHAR
STARTCHAR 02F5
ENCODING 757
SWIDTH 480 0
DWIDTH 12 0
BBX 10 4 1 7
BITMAP
E700
7300
3380
19C0
ENDCHAR
STARTCHAR 02F6
ENCODING 758
SWIDTH 480 0
DWIDTH 12 0
BBX 10 4 1 7
BITMAP
3BC0
7300
6600
C400
ENDCHAR
STARTCHAR 02F7
ENCODING 759
SWIDTH 440 0
DWIDTH 11 0
BBX 9 4 1 -5
BITMAP
2080
7C80
FF80
C700
ENDCHAR
STARTCHAR 02F8
ENCODING 760
SWIDTH 280 0
DWIDTH 7 0
BBX 3 14 2 5
BITMAP
40
E0
E0
C0
00
00
00
00
00
00
00
E0
E0
E0
ENDCHAR
STARTCHAR 02F9
ENCODING 761
SWIDTH 280 0
DWIDTH 7 0
BBX 5 6 1 11
BITMAP
F8
80
80
80
80
80
ENDCHAR
STARTCHAR 02FA
ENCODING 762
SWIDTH 280 0
DWIDTH 7 0
BBX 5 6 1 11
BITMAP
F8
08
08
08
08
08
ENDCHAR
STARTCHAR 02FB
ENCODING 763
SWIDTH 280 0
DWIDTH 7 0
BBX 5 6 1 0
BITMAP
80
80
80
80
80
F8
ENDCHAR
STARTCHAR 02FC
ENCODING 764
SWIDTH 280 0
DWIDTH 7 0
BBX 5 6 1 0
BITMAP
08
08
08
08
08
F8
ENDCHAR
STARTCHAR 02FD
ENCODING 765
SWIDTH 520 0
DWIDTH 13 0
BBX 11 4 1 -5
BITMAP
8020
8020
8020
FFE0
ENDCHAR
STARTCHAR 02FE
ENCODING 766
SWIDTH 520 0
DWIDTH 13 0
BBX 11 4 1 -5
BITMAP
8000
8000
8000
FFE0
ENDCHAR
STARTCHAR 02FF
ENCODING 767
SWIDTH 520 0
DWIDTH 13 0
BBX 11 8 1 -6
BITMAP
0400
0C00
3800
FFE0
FFE0
3000
1C00
0400
ENDCHAR
STARTCHAR 0300
ENCODING 768
SWIDTH 0 0
DWIDTH 0 0
BBX 6 4 -13 15
BITMAP
F0
38
18
0C
ENDCHAR
STARTCHAR 0301
ENCODING 769
SWIDTH 0 0
DWIDTH 0 0
BBX 5 4 -8 15
BITMAP
38
70
60
C0
ENDCHAR
STARTCHAR 0302
ENCODING 770
SWIDTH 0 0
DWIDTH 0 0
BBX 10 4 -5 15
BITMAP
1E00
3F00
7380
E1C0
ENDCHAR
STARTCHAR 0303
ENCODING 771
SWIDTH 0 0
DWIDTH 0 0
BBX 9 4 -12 15
BITMAP
2080
F980
FF00
8600
ENDCHAR
STARTCHAR 0304
ENCODING 772
SWIDTH 0 0
DWIDTH 0 0
BBX 8 2 -4 15
BITMAP
FF
FF
ENDCHAR
STARTCHAR 0305
ENCODING 773
SWIDTH 0 0
DWIDTH 0 0
BBX 10 2 -5 19
BITMAP
FFC0
FFC0
ENDCHAR
STARTCHAR 0306
ENCODING 774
SWIDTH 0 0
DWIDTH 0 0
BBX 8 4 -4 15
BITMAP
81
C3
7E
3C
ENDCHAR
STARTCHAR 0307
ENCODING 775
SWIDTH 0 0
DWIDTH 0 0
BBX 4 3 -2 16
BITMAP
20
F0
60
ENDCHAR
STARTCHAR 0308
ENCODING 776
SWIDTH 0 0
DWIDTH 0 0
BBX 8 2 -4 16
BITMAP
E7
E7
ENDCHAR
STARTCHAR 0309
ENCODING 777
SWIDTH 0 0
DWIDTH 0 0
BBX 4 6 -9 15
BITMAP
C0
F0
30
30
F0
40
ENDCHAR
STARTCHAR 030A
ENCODING 778
SWIDTH 0 0
DWIDTH 0 0
BBX 6 6 -3 15
BITMAP
10
78
CC
CC
7C
78
ENDCHAR
STARTCHAR 030B
ENCODING 779
SWIDTH 0 0
DWIDTH 0 0
BBX 9 4 -3 15
BITMAP
3B80
7300
E600
CC00
ENDCHAR
STARTCHAR 030C
ENCODING 780
SWIDTH 0 0
DWIDTH 0 0
BBX 10 4 -5 15
BITMAP
E1C0
3300
1E00
1E00
ENDCHAR
STARTCHAR 030D
ENCODING 781
SWIDTH 0 0
DWIDTH 0 0
BBX 2 4 -1 15
BITMAP
C0
C0
C0
C0
ENDCHAR
STARTCHAR 030E
ENCODING 782
SWIDTH 0 0
DWIDTH 0 0
BBX 6 4 -3 15
BITMAP
CC
CC
CC
CC
ENDCHAR
STARTCHAR 030F
ENCODING 783
SWIDTH 0 0
DWIDTH 0 0
BBX 9 4 -13 15
BITMAP
EE00
6700
3300
1980
ENDCHAR
STARTCHAR 0310
ENCODING 784
SWIDTH 0 0
DWIDTH 0 0
BBX 8 6 -4 15
BITMAP
18
18
9B
C3
7E
3C
ENDCHAR
STARTCHAR 0311
ENCODING 785
SWIDTH 0 0
DWIDTH 0 0
BBX 8 4 -4 15
BITMAP
3C
7E
E7
C1
ENDCHAR
STARTCHAR 0312
ENCODING 786
SWIDTH 0 0
DWIDTH 0 0
BBX 4 6 -2 12
BITMAP
30
70
60
60
E0
E0
ENDCHAR
STARTCHAR 0313
ENCODING 787
SWIDTH 0 0
DWIDTH 0 0
BBX 4 6 -2 12
BITMAP
70
70
60
60
E0
C0
ENDCHAR
STARTCHAR 0314
ENCODING 788
SWIDTH 0 0
DWIDTH 0 0
BBX 4 6 -2 12
BITMAP
E0
E0
60
60
70
30
ENDCHAR
STARTCHAR 0315
ENCODING 789
SWIDTH 0 0
DWIDTH 0 0
BBX 4 6 -2 12
BITMAP
70
70
60
60
E0
C0
ENDCHAR
STARTCHAR 0316
ENCODING 790
SWIDTH 0 0
DWIDTH 0 0
BBX 6 4 -3 -5
BITMAP
E0
70
38
1C
ENDCHAR
STARTCHAR 0317
ENCODING 791
SWIDTH 0 0
DWIDTH 0 0
BBX 6 4 -3 -5
BITMAP
1C
38
70
E0
ENDCHAR
STARTCHAR 0318
ENCODING 792
SWIDTH 0 0
DWIDTH 0 0
BBX 4 4 -2 -5
BITMAP
10
F0
F0
10
ENDCHAR
STARTCHAR 0319
ENCODING 793
SWIDTH 0 0
DWIDTH 0 0
BBX 4 4 -2 -5
BITMAP
80
F0
F0
80
ENDCHAR
STARTCHAR 031A
ENCODING 794
SWIDTH 0 0
DWIDTH 0 0
BBX 6 6 -2 18
BITMAP
FC
FC
04
04
04
04
ENDCHAR
STARTCHAR 031B
ENCODING 795
SWIDTH 0 0
DWIDTH 0 0
BBX 5 5 -2 14
BITMAP
38
38
70
F0
C0
ENDCHAR
STARTCHAR 031C
ENCODING 796
SWIDTH 0 0
DWIDTH 0 0
BBX 2 6 -1 -6
BITMAP
40
C0
80
80
C0
40
ENDCHAR
STARTCHAR 031D
ENCODING 797
SWIDTH 0 0
DWIDTH 0 0
BBX 6 4 -3 -5
BITMAP
30
30
30
FC
ENDCHAR
STARTCHAR 031E
ENCODING 798
SWIDTH 0 0
DWIDTH 0 0
BBX 6 4 -3 -5
BITMAP
FC
FC
30
30
ENDCHAR
STARTCHAR 031F
ENCODING 799
SWIDTH 0 0
DWIDTH 0 0
BBX 6 5 -3 -6
BITMAP
30
FC
FC
30
30
ENDCHAR
STARTCHAR 0320
ENCODING 800
SWIDTH 0 0
DWIDTH 0 0
BBX 6 1 -3 -4
BITMAP
FC
ENDCHAR
STARTCHAR 0321
ENCODING 801
SWIDTH 0 0
DWIDTH 0 0
BBX 5 7 -5 -6
BITMAP
18
18
18
18
38
F8
F0
ENDCHAR
STARTCHAR 0322
ENCODING 802
SWIDTH 0 0
DWIDTH 0 0
BBX 5 7 0 -6
BITMAP
C0
C0
C0
C0
E0
F8
78
ENDCHAR
STARTCHAR 0323
ENCODING 803
SWIDTH 0 0
DWIDTH 0 0
BBX 3 3 -9 -5
BITMAP
E0
E0
40
ENDCHAR
STARTCHAR 0324
ENCODING 804
SWIDTH 0 0
DWIDTH 0 0
BBX 8 2 -4 -4
BITMAP
E7
E7
ENDCHAR
STARTCHAR 0325
ENCODING 805
SWIDTH 0 0
DWIDTH 0 0
BBX 6 6 -3 -6
BITMAP
10
78
CC
CC
7C
78
ENDCHAR
STARTCHAR 0326
ENCODING 806
SWIDTH 0 0
DWIDTH 0 0
BBX 4 4 -2 -6
BITMAP
70
60
C0
C0
ENDCHAR
STARTCHAR 0327
ENCODING 807
SWIDTH 0 0
DWIDTH 0 0
BBX 6 6 -3 -6
BITMAP
30
70
18
1C
F8
F0
ENDCHAR
STARTCHAR 0328
ENCODING 808
SWIDTH 0 0
DWIDTH 0 0
BBX 4 6 -2 -6
BITMAP
70
C0
C0
C0
F0
70
ENDCHAR
STARTCHAR 0329
ENCODING 809
SWIDTH 0 0
DWIDTH 0 0
BBX 2 4 -1 -5
BITMAP
C0
C0
C0
C0
ENDCHAR
STARTCHAR 032A
ENCODING 810
SWIDTH 0 0
DWIDTH 0 0
BBX 8 4 -4 -5
BITMAP
FF
FF
81
81
ENDCHAR
STARTCHAR 032B
ENCODING 811
SWIDTH 0 0
DWIDTH 0 0
BBX 10 2 -5 -4
BITMAP
CCC0
7F80
ENDCHAR
STARTCHAR 032C
ENCODING 812
SWIDTH 0 0
DWIDTH 0 0
BBX 10 4 -5 -5
BITMAP
E1C0
3300
1E00
1E00
ENDCHAR
STARTCHAR 032D
ENCODING 813
SWIDTH 0 0
DWIDTH 0 0
BBX 10 4 -5 -5
BITMAP
1E00
3F00
7380
E1C0
ENDCHAR
STARTCHAR 032E
ENCODING 814
SWIDTH 0 0
DWIDTH 0 0
BBX 8 4 -4 -5
BITMAP
83
C3
7E
3C
ENDCHAR
STARTCHAR 032F
ENCODING 815
SWIDTH 0 0
DWIDTH 0 0
BBX 8 4 -4 -5
BITMAP
3C
7E
E7
C1
ENDCHAR
STARTCHAR 0330
ENCODING 816
SWIDTH 0 0
DWIDTH 0 0
BBX 10 4 -5 -5
BITMAP
10C0
7CC0
7F80
C700
ENDCHAR
STARTCHAR 0331
ENCODING 817
SWIDTH 0 0
DWIDTH 0 0
BBX 8 2 -4 -4
BITMAP
FF
FF
ENDCHAR
STARTCHAR 0332
ENCODING 818
SWIDTH 0 0
DWIDTH 0 0
BBX 12 2 -6 -4
BITMAP
FFF0
FFF0
ENDCHAR
STARTCHAR 0333
ENCODING 819
SWIDTH 0 0
DWIDTH 0 0
BBX 10 5 -5 -6
BITMAP
FFC0
0000
0000
FFC0
FFC0
ENDCHAR
STARTCHAR 0334
ENCODING 820
SWIDTH 0 0
DWIDTH 0 0
BBX 10 4 -5 5
BITMAP
10C0
7CC0
7F80
C300
ENDCHAR
STARTCHAR 0335
ENCODING 821
SWIDTH 0 0
DWIDTH 0 0
BBX 10 2 -5 6
BITMAP
FFC0
FFC0
ENDCHAR
STARTCHAR 0336
ENCODING 822
SWIDTH 0 0
DWIDTH 0 0
BBX 18 2 -9 6
BITMAP
FFFFC0
FFFFC0
ENDCHAR
STARTCHAR 0337
ENCODING 823
SWIDTH 0 0
DWIDTH 0 0
BBX 8 6 -4 4
BITMAP
02
0F
1E
78
E0
40
ENDCHAR
STARTCHAR 0338
ENCODING 824
SWIDTH 0 0
DWIDTH 0 0
BBX 10 20 -5 -1
BITMAP
00C0
0180
0180
0180
0300
0300
0700
0600
0600
0C00
0C00
1C00
1800
1800
3000
3000
3000
6000
6000
C000
ENDCHAR
STARTCHAR 0339
ENCODING 825
SWIDTH 0 0
DWIDTH 0 0
BBX 2 6 -1 -6
BITMAP
80
C0
40
40
C0
80
ENDCHAR
STARTCHAR 033A
ENCODING 826
SWIDTH 0 0
DWIDTH 0 0
BBX 8 4 -4 -5
BITMAP
81
81
81
FF
ENDCHAR
STARTCHAR 033B
ENCODING 827
SWIDTH 0 0
DWIDTH 0 0
BBX 10 5 -5 -6
BITMAP
FFC0
C0C0
C0C0
FFC0
FFC0
ENDCHAR
STARTCHAR 033C
ENCODING 828
SWIDTH 0 0
DWIDTH 0 0
BBX 10 2 -5 -4
BITMAP
7F80
CCC0
ENDCHAR
STARTCHAR 033D
ENCODING 829
SWIDTH 0 0
DWIDTH 0 0
BBX 6 5 -3 14
BITMAP
CC
78
30
FC
48
ENDCHAR
STARTCHAR 033E
ENCODING 830
SWIDTH 0 0
DWIDTH 0 0
BBX 4 8 -2 14
BITMAP
30
70
C0
60
60
30
E0
C0
ENDCHAR
STARTCHAR 033F
ENCODING 831
SWIDTH 0 0
DWIDTH 0 0
BBX 10 5 -5 19
BITMAP
FFC0
0000
0000
FFC0
FFC0
ENDCHAR
STARTCHAR 0340
ENCODING 832
SWIDTH 0 0
DWIDTH 0 0
BBX 5 4 -4 15
BITMAP
E0
70
30
18
ENDCHAR
STARTCHAR 0341
ENCODING 833
SWIDTH 0 0
DWIDTH 0 0
BBX 5 4 -1 15
BITMAP
38
70
60
C0
ENDCHAR
STARTCHAR 0342
ENCODING 834
SWIDTH 0 0
DWIDTH 0 0
BBX 10 4 -5 15
BITMAP
10C0
7CC0
7F80
C700
ENDCHAR
STARTCHAR 0343
ENCODING 835
SWIDTH 0 0
DWIDTH 0 0
BBX 4 5 -2 15
BITMAP
40
F0
30
30
60
ENDCHAR
STARTCHAR 0344
ENCODING 836
SWIDTH 0 0
DWIDTH 0 0
BBX 10 4 -4 15
BITMAP
0E00
DDC0
DDC0
1800
ENDCHAR
STARTCHAR 0345
ENCODING 837
SWIDTH 0 0
DWIDTH 0 0
BBX 4 4 -1 -6
BITMAP
C0
C0
F0
70
ENDCHAR
STARTCHAR 0346
ENCODING 838
SWIDTH 0 0
DWIDTH 0 0
BBX 10 4 -5 15
BITMAP
FFC0
8040
8040
8040
ENDCHAR
STARTCHAR 0347
ENCODING 839
SWIDTH 0 0
DWIDTH 0 0
BBX 10 5 -5 -6
BITMAP
FFC0
0000
0000
FFC0
FFC0
ENDCHAR
STARTCHAR 0348
ENCODING 840
SWIDTH 0 0
DWIDTH 0 0
BBX 6 4 -3 -5
BITMAP
CC
CC
CC
CC
ENDCHAR
STARTCHAR 0349
ENCODING 841
SWIDTH 0 0
DWIDTH 0 0
BBX 4 5 -2 -6
BITMAP
F0
F0
10
10
10
ENDCHAR
STARTCHAR 034A
ENCODING 842
SWIDTH 0 0
DWIDTH 0 0
BBX 10 5 -5 14
BITMAP
0640
7C80
7F80
DF00
0800
ENDCHAR
STARTCHAR 034B
ENCODING 843
SWIDTH 0 0
DWIDTH 0 0
BBX 10 9 -5 14
BITMAP
0C00
0C00
0040
7880
7F80
C300
0C00
0C00
0C00
ENDCHAR
STARTCHAR 034C
ENCODING 844
SWIDTH 0 0
DWIDTH 0 0
BBX 8 7 -4 15
BITMAP
01
FB
9F
00
71
FF
8E
ENDCHAR
STARTCHAR 034D
ENCODING 845
SWIDTH 0 0
DWIDTH 0 0
BBX 8 4 -4 -5
BITMAP
24
7E
FF
66
ENDCHAR
STARTCHAR 034E
ENCODING 846
SWIDTH 0 0
DWIDTH 0 0
BBX 4 5 -2 -6
BITMAP
60
F0
60
60
60
ENDCHAR
STARTCHAR 034F
ENCODING 847
SWIDTH 0 0
DWIDTH 0 0
BBX 18 18 -9 0
BITMAP
F1E3C0
F1E3C0
800040
82D040
073800
0C0C00
180600
900240
900240
900240
800040
180600
0C0C00
061800
83F040
800040
800040
F1E3C0
ENDCHAR
STARTCHAR 0350
ENCODING 848
SWIDTH 0 0
DWIDTH 0 0
BBX 4 5 -2 15
BITMAP
80
E0
30
70
C0
ENDCHAR
STARTCHAR 0351
ENCODING 849
SWIDTH 0 0
DWIDTH 0 0
BBX 3 6 -1 14
BITMAP
60
E0
80
80
E0
20
ENDCHAR
STARTCHAR 0352
ENCODING 850
SWIDTH 0 0
DWIDTH 0 0
BBX 8 6 -4 15
BITMAP
3E
7E
C3
18
18
18
ENDCHAR
STARTCHAR 0353
ENCODING 851
SWIDTH 0 0
DWIDTH 0 0
BBX 4 5 -2 -6
BITMAP
90
F0
60
F0
90
ENDCHAR
STARTCHAR 0354
ENCODING 852
SWIDTH 0 0
DWIDTH 0 0
BBX 4 5 -2 -6
BITMAP
10
F0
C0
F0
10
ENDCHAR
STARTCHAR 0355
ENCODING 853
SWIDTH 0 0
DWIDTH 0 0
BBX 4 5 -2 -6
BITMAP
80
F0
30
F0
80
ENDCHAR
STARTCHAR 0356
ENCODING 854
SWIDTH 0 0
DWIDTH 0 0
BBX 10 5 -5 -6
BITMAP
C300
7380
1B80
7680
C4C0
ENDCHAR
STARTCHAR 0357
ENCODING 855
SWIDTH 0 0
DWIDTH 0 0
BBX 3 6 -1 14
BITMAP
80
C0
60
60
C0
80
ENDCHAR
STARTCHAR 0358
ENCODING 856
SWIDTH 0 0
DWIDTH 0 0
BBX 3 3 3 16
BITMAP
40
E0
E0
ENDCHAR
STARTCHAR 0359
ENCODING 857
SWIDTH 0 0
DWIDTH 0 0
BBX 6 5 -3 -6
BITMAP
30
78
FC
78
30
ENDCHAR
STARTCHAR 035A
ENCODING 858
SWIDTH 0 0
DWIDTH 0 0
BBX 10 5 -5 -6
BITMAP
7F80
CCC0
CCC0
CCC0
7F80
ENDCHAR
STARTCHAR 035B
ENCODING 859
SWIDTH 0 0
DWIDTH 0 0
BBX 4 5 -2 15
BITMAP
C0
80
F0
10
30
ENDCHAR
STARTCHAR 035C
ENCODING 860
SWIDTH 0 0
DWIDTH 0 0
BBX 20 5 -10 -6
BITMAP
E00070
7000E0
3E07C0
0FFF00
01FC00
ENDCHAR
STARTCHAR 035D
ENCODING 861
SWIDTH 0 0
DWIDTH 0 0
BBX 20 5 -10 15
BITMAP
E00070
7000E0
3E07C0
0FFF00
01FC00
ENDCHAR
STARTCHAR 035E
ENCODING 862
SWIDTH 0 0
DWIDTH 0 0
BBX 16 1 -8 16
BITMAP
FFFF
ENDCHAR
STARTCHAR 035F
ENCODING 863
SWIDTH 0 0
DWIDTH 0 0
BBX 16 1 -8 -3
BITMAP
FFFF
ENDCHAR
STARTCHAR 0360
ENCODING 864
SWIDTH 0 0
DWIDTH 0 0
BBX 20 4 -10 15
BITMAP
080030
7FF060
73FFE0
C00F80
ENDCHAR
STARTCHAR 0361
ENCODING 865
SWIDTH 0 0
DWIDTH 0 0
BBX 20 4 -10 17
BITMAP
07FF00
1FFF80
3801E0
E00070
ENDCHAR
STARTCHAR 0362
ENCODING 866
SWIDTH 0 0
DWIDTH 0 0
BBX 19 5 -9 -6
BITMAP
000080
FFFFC0
FFFFE0
000080
000080
ENDCHAR
STARTCHAR 0363
ENCODING 867
SWIDTH 0 0
DWIDTH 0 0
BBX 5 6 -2 15
BITMAP
F0
18
78
98
98
68
ENDCHAR
STARTCHAR 0364
ENCODING 868
SWIDTH 0 0
DWIDTH 0 0
BBX 5 6 -2 15
BITMAP
70
88
F8
80
C8
30
ENDCHAR
STARTCHAR 0365
ENCODING 869
SWIDTH 0 0
DWIDTH 0 0
BBX 1 8 0 15
BITMAP
80
00
80
80
80
80
80
80
ENDCHAR
STARTCHAR 0366
ENCODING 870
SWIDTH 0 0
DWIDTH 0 0
BBX 6 6 -3 15
BITMAP
78
44
C4
C4
4C
10
ENDCHAR
STARTCHAR 0367
ENCODING 871
SWIDTH 0 0
DWIDTH 0 0
BBX 5 6 -2 15
BITMAP
88
88
88
88
98
48
ENDCHAR
STARTCHAR 0368
ENCODING 872
SWIDTH 0 0
DWIDTH 0 0
BBX 5 6 -2 15
BITMAP
78
C0
80
80
C8
30
ENDCHAR
STARTCHAR 0369
ENCODING 873
SWIDTH 0 0
DWIDTH 0 0
BBX 6 8 -3 15
BITMAP
04
04
74
4C
C4
C4
6C
24
ENDCHAR
STARTCHAR 036A
ENCODING 874
SWIDTH 0 0
DWIDTH 0 0
BBX 5 8 -2 15
BITMAP
80
80
F0
98
88
88
88
88
ENDCHAR
STARTCHAR 036B
ENCODING 875
SWIDTH 0 0
DWIDTH 0 0
BBX 9 6 -4 15
BITMAP
F700
8980
8880
8880
8880
8880
ENDCHAR
STARTCHAR 036C
ENCODING 876
SWIDTH 0 0
DWIDTH 0 0
BBX 3 6 -1 15
BITMAP
E0
80
80
80
80
80
ENDCHAR
STARTCHAR 036D
ENCODING 877
SWIDTH 0 0
DWIDTH 0 0
BBX 4 7 -2 15
BITMAP
40
F0
40
40
40
60
10
ENDCHAR
STARTCHAR 036E
ENCODING 878
SWIDTH 0 0
DWIDTH 0 0
BBX 6 6 -3 15
BITMAP
C4
4C
68
28
30
10
ENDCHAR
STARTCHAR 036F
ENCODING 879
SWIDTH 0 0
DWIDTH 0 0
BBX 6 6 -3 15
BITMAP
CC
28
30
38
48
C4
ENDCHAR
STARTCHAR 0370
ENCODING 880
SWIDTH 440 0
DWIDTH 11 0
BBX 8 18 2 0
BITMAP
E0
E0
E0
E0
E0
E0
E0
E0
FF
FF
E0
E0
E0
E0
E0
E0
E0
E0
ENDCHAR
STARTCHAR 0371
ENCODING 881
SWIDTH 400 0
DWIDTH 10 0
BBX 7 13 2 0
BITMAP
E0
E0
E0
E0
E0
FE
FE
E0
E0
E0
E0
E0
E0
ENDCHAR
STARTCHAR 0372
ENCODING 882
SWIDTH 680 0
DWIDTH 17 0
BBX 15 18 1 0
BITMAP
FFFE
FFFE
E38E
E38E
E38E
E38E
E38E
E38E
0380
0380
0380
0380
0380
0380
0380
0380
0380
0380
ENDCHAR
STARTCHAR 0373
ENCODING 883
SWIDTH 680 0
DWIDTH 17 0
BBX 11 19 3 0
BITMAP
1F80
FFE0
7F00
3F00
3F00
1F00
0E00
0E00
0E00
0E00
0E00
0E00
0E00
0600
0600
0400
0400
0400
0400
ENDCHAR
STARTCHAR 0374
ENCODING 884
SWIDTH 200 0
DWIDTH 5 0
BBX 4 5 1 14
BITMAP
70
70
60
C0
C0
ENDCHAR
STARTCHAR 0375
ENCODING 885
SWIDTH 200 0
DWIDTH 5 0
BBX 5 5 -1 -4
BITMAP
18
38
30
70
F0
ENDCHAR
STARTCHAR 0376
ENCODING 886
SWIDTH 800 0
DWIDTH 20 0
BBX 15 18 2 0
BITMAP
E00E
E01E
E01E
E03E
E076
E076
E0E6
E1C6
E1C6
E386
E706
E706
EE06
FC06
FC06
F806
F006
F006
ENDCHAR
STARTCHAR 0377
ENCODING 887
SWIDTH 680 0
DWIDTH 17 0
BBX 13 13 2 0
BITMAP
E078
E0F8
E1F8
E1B8
E3B8
E738
E738
EE38
EC38
DC38
F838
F038
F038
ENDCHAR
STARTCHAR 037A
ENCODING 890
SWIDTH 240 0
DWIDTH 6 0
BBX 4 4 2 -6
BITMAP
C0
C0
F0
70
ENDCHAR
STARTCHAR 037B
ENCODING 891
SWIDTH 480 0
DWIDTH 12 0
BBX 10 14 1 0
BITMAP
3C00
FF00
FF80
0380
01C0
01C0
01C0
01C0
01C0
01C0
0380
8780
FF00
FE00
ENDCHAR
STARTCHAR 037C
ENCODING 892
SWIDTH 480 0
DWIDTH 12 0
BBX 10 14 1 0
BITMAP
0780
1FC0
3FC0
7000
7000
E100
E780
E300
E000
E000
7000
7840
3FC0
1FC0
ENDCHAR
STARTCHAR 037D
ENCODING 893
SWIDTH 480 0
DWIDTH 12 0
BBX 10 14 1 0
BITMAP
3C00
FF00
FF80
0380
01C0
11C0
39C0
39C0
01C0
01C0
0380
8780
FF00
FE00
ENDCHAR
STARTCHAR 037E
ENCODING 894
SWIDTH 280 0
DWIDTH 7 0
BBX 4 17 1 -3
BITMAP
20
70
70
60
00
00
00
00
00
00
00
70
70
60
E0
C0
C0
ENDCHAR
STARTCHAR 037F
ENCODING 895
SWIDTH 280 0
DWIDTH 7 0
BBX 7 23 -2 -5
BITMAP
0E
0E
0E
0E
0E
0E
0E
0E
0E
0E
0E
0E
0E
0E
0E
0E
0E
0E
0E
0E
BC
FC
F0
ENDCHAR
STARTCHAR 0384
ENCODING 900
SWIDTH 240 0
DWIDTH 6 0
BBX 4 4 1 15
BITMAP
70
60
E0
C0
ENDCHAR
STARTCHAR 0385
ENCODING 901
SWIDTH 680 0
DWIDTH 17 0
BBX 10 4 4 15
BITMAP
0E00
DDC0
D9C0
1800
ENDCHAR
STARTCHAR 0386
ENCODING 902
SWIDTH 720 0
DWIDTH 18 0
BBX 18 18 0 0
BITMAP
087000
70F000
70F800
60F800
C1D800
019C00
039C00
038C00
030E00
070600
07FF00
0FFF00
0FFF00
0C0380
1C0380
1C0180
1801C0
3801C0
ENDCHAR
STARTCHAR 0387
ENCODING 903
SWIDTH 280 0
DWIDTH 7 0
BBX 3 3 2 11
BITMAP
E0
E0
E0
ENDCHAR
STARTCHAR 0388
ENCODING 904
SWIDTH 720 0
DWIDTH 18 0
BBX 17 18 0 0
BITMAP
09FF80
71FF80
71C000
61C000
C1C000
01C000
01C000
01C000
01FF80
01FF80
01C000
01C000
01C000
01C000
01C000
01C000
01FF80
01FF80
ENDCHAR
STARTCHAR 0389
ENCODING 905
SWIDTH 920 0
DWIDTH 23 0
BBX 21 18 0 0
BITMAP
09C038
71C038
71C038
61C038
C1C038
01C038
01C038
01C038
01FFF8
01FFF8
01C038
01C038
01C038
01C038
01C038
01C038
01C038
01C038
ENDCHAR
STARTCHAR 038A
ENCODING 906
SWIDTH 560 0
DWIDTH 14 0
BBX 13 18 0 0
BITMAP
0BF8
73F8
70E0
60E0
C0E0
00E0
00E0
00E0
00E0
00E0
00E0
00E0
00E0
00E0
00E0
00E0
03F8
03F8
ENDCHAR
STARTCHAR 038C
ENCODING 908
SWIDTH 920 0
DWIDTH 23 0
BBX 21 18 0 0
BITMAP
083F80
70FFC0
71F1E0
638070
C38038
070038
070038
070038
070018
070018
070038
070038
070038
038038
038070
01E0F0
00FFE0
007F80
ENDCHAR
STARTCHAR 038E
ENCODING 910
SWIDTH 800 0
DWIDTH 20 0
BBX 20 18 0 0
BITMAP
0B8070
718070
71C0E0
60C0E0
C0E1C0
007180
007380
003B00
003F00
001E00
001E00
000C00
000C00
000C00
000C00
000C00
000C00
000C00
ENDCHAR
STARTCHAR 038F
ENCODING 911
SWIDTH 880 0
DWIDTH 22 0
BBX 21 18 0 0
BITMAP
087F00
71FFC0
73E1E0
6380F0
C70070
070038
060038
0E0038
0E0038
0E0038
060038
070030
070070
038060
01C0E0
00E180
0FE3F8
0FE3F8
ENDCHAR
STARTCHAR 0390
ENCODING 912
SWIDTH 360 0
DWIDTH 9 0
BBX 10 19 0 0
BITMAP
1E00
DDC0
D980
1800
0000
0000
3800
3800
3800
3800
3800
3800
3800
3800
3800
3800
3800
1F00
1F00
ENDCHAR
STARTCHAR 0391
ENCODING 913
SWIDTH 640 0
DWIDTH 16 0
BBX 16 18 0 0
BITMAP
01C0
03C0
03C0
07E0
0760
0670
0E70
0E30
0C38
1C38
1FFC
3FFC
3FFC
300E
700E
7006
6007
E007
ENDCHAR
STARTCHAR 0392
ENCODING 914
SWIDTH 640 0
DWIDTH 16 0
BBX 13 18 2 0
BITMAP
FF80
FFE0
E1F0
E070
E038
E030
E070
E1E0
FF80
FFF0
E070
E038
E038
E038
E038
E0F0
FFF0
FFC0
ENDCHAR
STARTCHAR 0393
ENCODING 915
SWIDTH 520 0
DWIDTH 13 0
BBX 10 18 2 0
BITMAP
FFC0
FFC0
E000
E000
E000
E000
E000
E000
E000
E000
E000
E000
E000
E000
E000
E000
E000
E000
ENDCHAR
STARTCHAR 0394
ENCODING 916
SWIDTH 640 0
DWIDTH 16 0
BBX 16 18 0 0
BITMAP
01C0
03C0
03C0
07E0
0660
0670
0E70
0C30
1C38
1C18
181C
381C
380C
700E
700E
6007
FFFF
FFFF
ENDCHAR
STARTCHAR 0395
ENCODING 917
SWIDTH 560 0
DWIDTH 14 0
BBX 10 18 2 0
BITMAP
FFC0
FFC0
E000
E000
E000
E000
E000
E000
FFC0
FFC0
E000
E000
E000
E000
E000
E000
FFC0
FFC0
ENDCHAR
STARTCHAR 0396
ENCODING 918
SWIDTH 560 0
DWIDTH 14 0
BBX 12 18 1 0
BITMAP
FFF0
FFF0
0070
00E0
00E0
01C0
0380
0380
0700
0E00
0E00
1C00
3800
3800
7000
E000
FFF0
FFF0
ENDCHAR
STARTCHAR 0397
ENCODING 919
SWIDTH 760 0
DWIDTH 19 0
BBX 14 18 2 0
BITMAP
E00C
E00C
E00C
E00C
E00C
E00C
E00C
E00C
FFFC
FFFC
E00C
E00C
E00C
E00C
E00C
E00C
E00C
E00C
ENDCHAR
STARTCHAR 0398
ENCODING 920
SWIDTH 800 0
DWIDTH 20 0
BBX 17 18 1 0
BITMAP
07F000
0FFC00
3E3E00
380700
700700
700380
700380
600380
E7F380
E7F380
600380
700380
700380
700700
380700
3C1E00
1FFC00
07F800
ENDCHAR
STARTCHAR 0399
ENCODING 921
SWIDTH 360 0
DWIDTH 9 0
BBX 7 18 1 0
BITMAP
FE
FE
38
38
38
38
38
38
38
38
38
38
38
38
38
38
FE
FE
ENDCHAR
STARTCHAR 039A
ENCODING 922
SWIDTH 640 0
DWIDTH 16 0
BBX 14 18 2 0
BITMAP
E03C
E070
E0F0
E0E0
E1C0
E380
E700
EE00
FE00
FF00
F780
E380
E1C0
E1E0
E0E0
E070
E038
E03C
ENDCHAR
STARTCHAR 039B
ENCODING 923
SWIDTH 640 0
DWIDTH 16 0
BBX 16 18 0 0
BITMAP
0380
03C0
03C0
07C0
06E0
0E60
0E70
0C70
1C30
1C38
1838
3818
381C
301C
700C
700E
600E
E007
ENDCHAR
STARTCHAR 039C
ENCODING 924
SWIDTH 920 0
DWIDTH 23 0
BBX 19 18 2 0
BITMAP
F001E0
F803E0
F803E0
F807E0
FC06E0
EC06E0
EC0EE0
EE0CE0
E60CE0
E71CE0
E718E0
E318E0
E3B8E0
E1B0E0
E1F0E0
E1E0E0
E0E0E0
E0E0E0
ENDCHAR
STARTCHAR 039D
ENCODING 925
SWIDTH 760 0
DWIDTH 19 0
BBX 15 18 2 0
BITMAP
F006
F006
F806
FC06
FC06
EE06
E706
E706
E386
E386
E1C6
E0E6
E0E6
E076
E03E
E03E
E01E
E01E
ENDCHAR
STARTCHAR 039E
ENCODING 926
SWIDTH 640 0
DWIDTH 16 0
BBX 13 18 1 0
BITMAP
7FF8
7FF8
7FF8
0000
0000
0000
0000
3FF0
3FF0
3FF0
0000
0000
0000
0000
0000
0000
FFF8
FFF8
ENDCHAR
STARTCHAR 039F
ENCODING 927
SWIDTH 800 0
DWIDTH 20 0
BBX 17 18 1 0
BITMAP
07F000
0FFC00
3E3E00
380700
700700
700380
700380
600380
E00380
E00380
600380
700380
700380
700700
380700
3C1E00
1FFC00
07F800
ENDCHAR
STARTCHAR 03A0
ENCODING 928
SWIDTH 720 0
DWIDTH 18 0
BBX 14 18 2 0
BITMAP
FFFC
FFFC
E01C
E01C
E01C
E01C
E01C
E01C
E01C
E01C
E01C
E01C
E01C
E01C
E01C
E01C
E01C
E01C
ENDCHAR
STARTCHAR 03A1
ENCODING 929
SWIDTH 600 0
DWIDTH 15 0
BBX 12 18 2 0
BITMAP
FF00
FFC0
E3E0
E070
E070
E070
E070
E070
E0E0
FFE0
FF80
E000
E000
E000
E000
E000
E000
E000
ENDCHAR
STARTCHAR 03A3
ENCODING 931
SWIDTH 560 0
DWIDTH 14 0
BBX 12 18 1 0
BITMAP
FFF0
FFF0
F000
7000
3800
1C00
0E00
0700
0700
0700
0E00
1C00
1800
3800
7000
E000
FFF0
FFF0
ENDCHAR
STARTCHAR 03A4
ENCODING 932
SWIDTH 560 0
DWIDTH 14 0
BBX 14 18 0 0
BITMAP
FFFC
FFFC
0300
0300
0300
0300
0300
0300
0300
0300
0300
0300
0300
0300
0300
0300
0300
0300
ENDCHAR
STARTCHAR 03A5
ENCODING 933
SWIDTH 600 0
DWIDTH 15 0
BBX 15 18 0 0
BITMAP
E01E
701C
7038
3838
3870
1C70
1CE0
0EE0
07C0
07C0
0380
0380
0380
0380
0380
0380
0380
0380
ENDCHAR
STARTCHAR 03A6
ENCODING 934
SWIDTH 880 0
DWIDTH 22 0
BBX 19 18 1 0
BITMAP
00E000
00E000
0FFE00
1FFF80
3CE3C0
70E0E0
60E0E0
E0E0E0
E0E060
E0E060
E0E0E0
70E0E0
78E1C0
3FEFC0
1FFF00
03F800
00E000
00E000
ENDCHAR
STARTCHAR 03A7
ENCODING 935
SWIDTH 600 0
DWIDTH 15 0
BBX 15 18 0 0
BITMAP
F00E
701C
3838
1C38
1C70
0E60
06E0
07C0
0380
07C0
07C0
0EE0
0C70
1C70
3838
381C
701C
E00E
ENDCHAR
STARTCHAR 03A8
ENCODING 936
SWIDTH 840 0
DWIDTH 21 0
BBX 17 18 2 0
BITMAP
E1C380
E1C380
E1C380
E1C380
E1C380
E1C380
E1C380
E1C380
E1C300
71C700
79CF00
3FFE00
1FF800
01C000
01C000
01C000
01C000
01C000
ENDCHAR
STARTCHAR 03A9
ENCODING 937
SWIDTH 720 0
DWIDTH 18 0
BBX 17 18 1 0
BITMAP
07F000
1FF800
3C3C00
700E00
700700
E00700
E00700
E00300
E00300
E00300
E00700
E00700
700600
700E00
381C00
1C3800
FE3F80
FE3F80
ENDCHAR
STARTCHAR 03AA
ENCODING 938
SWIDTH 360 0
DWIDTH 9 0
BBX 7 22 1 0
BITMAP
CE
C6
00
00
FE
FE
38
38
38
38
38
38
38
38
38
38
38
38
38
38
FE
FE
ENDCHAR
STARTCHAR 03AB
ENCODING 939
SWIDTH 600 0
DWIDTH 15 0
BBX 15 22 0 0
BITMAP
0CE0
0CE0
0000
0000
E01E
701C
7038
3838
3870
1C70
1CE0
0EE0
07C0
07C0
0380
0380
0380
0380
0380
0380
0380
0380
ENDCHAR
STARTCHAR 03AC
ENCODING 940
SWIDTH 640 0
DWIDTH 16 0
BBX 14 19 1 0
BITMAP
01C0
0380
0300
0300
0000
0600
3FB0
7DF0
7070
6070
E030
E030
E030
E030
E030
7070
7078
3FFC
1F1C
ENDCHAR
STARTCHAR 03AD
ENCODING 941
SWIDTH 480 0
DWIDTH 12 0
BBX 10 19 1 0
BITMAP
0380
0300
0700
0600
0000
0F00
3FC0
79C0
6000
6000
7000
3F00
3F00
F000
E000
E000
E040
7FC0
3FC0
ENDCHAR
STARTCHAR 03AE
ENCODING 942
SWIDTH 640 0
DWIDTH 16 0
BBX 12 25 2 -6
BITMAP
0700
0E00
0C00
0C00
0000
0780
DFC0
FFE0
F0E0
E060
E070
E070
E070
E070
E070
E070
E070
E070
E070
0070
0070
0070
0070
0070
0070
ENDCHAR
STARTCHAR 03AF
ENCODING 943
SWIDTH 360 0
DWIDTH 9 0
BBX 6 19 2 0
BITMAP
38
70
60
60
00
00
E0
E0
E0
E0
E0
E0
E0
E0
E0
E0
E0
7C
7C
ENDCHAR
STARTCHAR 03B0
ENCODING 944
SWIDTH 600 0
DWIDTH 15 0
BBX 12 19 2 0
BITMAP
0780
7760
7660
0600
0000
0000
E0E0
E060
E060
E060
E070
E070
E070
E060
E060
E0E0
E1E0
7FC0
3F80
ENDCHAR
STARTCHAR 03B1
ENCODING 945
SWIDTH 640 0
DWIDTH 16 0
BBX 14 14 1 0
BITMAP
0600
3FB0
7DF0
7070
6070
E030
E030
E030
E030
E030
7070
7078
3FFC
1F1C
ENDCHAR
STARTCHAR 03B2
ENCODING 946
SWIDTH 600 0
DWIDTH 15 0
BBX 12 25 2 -6
BITMAP
1F80
7FC0
71E0
E0E0
E060
E060
E0E0
E0C0
EF80
EFC0
E0E0
E070
E070
E070
E070
E070
E0F0
FFE0
FFC0
E000
E000
E000
E000
E000
E000
ENDCHAR
STARTCHAR 03B3
ENCODING 947
SWIDTH 520 0
DWIDTH 13 0
BBX 13 18 0 -5
BITMAP
E038
6030
7030
7030
3070
3870
3860
18E0
1CE0
0DC0
0D80
0F80
0700
0600
0600
0600
0600
0600
ENDCHAR
STARTCHAR 03B4
ENCODING 948
SWIDTH 600 0
DWIDTH 15 0
BBX 13 19 1 0
BITMAP
0FC0
1FF0
3860
3800
3800
1C00
1F00
0F80
3DE0
70E0
6070
E030
E038
E038
E030
E070
70F0
3FE0
1FC0
ENDCHAR
STARTCHAR 03B5
ENCODING 949
SWIDTH 480 0
DWIDTH 12 0
BBX 10 14 1 0
BITMAP
0F00
3FC0
79C0
6000
6000
7000
3F00
3F00
F000
E000
E000
E040
7FC0
3FC0
ENDCHAR
STARTCHAR 03B6
ENCODING 950
SWIDTH 480 0
DWIDTH 12 0
BBX 11 24 1 -5
BITMAP
7FE0
7FE0
01C0
0380
0300
0700
0E00
1C00
1800
3800
7000
7000
E000
E000
E000
F000
7800
3F80
1FC0
01C0
00E0
00C0
00C0
01C0
ENDCHAR
STARTCHAR 03B7
ENCODING 951
SWIDTH 640 0
DWIDTH 16 0
BBX 12 20 2 -6
BITMAP
0780
DFC0
FFE0
F0E0
E060
E070
E070
E070
E070
E070
E070
E070
E070
E070
0070
0070
0070
0070
0070
0070
ENDCHAR
STARTCHAR 03B8
ENCODING 952
SWIDTH 600 0
DWIDTH 15 0
BBX 13 19 1 0
BITMAP
0F80
3FC0
38E0
7070
7070
6030
E030
E038
FFF8
FFF8
E038
E038
E038
6030
6070
7070
38E0
3FE0
0FC0
ENDCHAR
STARTCHAR 03B9
ENCODING 953
SWIDTH 360 0
DWIDTH 9 0
BBX 6 13 2 0
BITMAP
E0
E0
E0
E0
E0
E0
E0
E0
E0
E0
E0
7C
7C
ENDCHAR
STARTCHAR 03BA
ENCODING 954
SWIDTH 560 0
DWIDTH 14 0
BBX 12 13 2 0
BITMAP
E0E0
E1C0
E380
E700
EE00
FC00
FE00
F700
E700
E380
E1C0
E0E0
E0F0
ENDCHAR
STARTCHAR 03BB
ENCODING 955
SWIDTH 520 0
DWIDTH 13 0
BBX 13 19 0 0
BITMAP
F800
FC00
1C00
0E00
0600
0700
0700
0F00
0F80
0D80
1DC0
19C0
18C0
38E0
30E0
7060
7070
7078
E038
ENDCHAR
STARTCHAR 03BC
ENCODING 956
SWIDTH 640 0
DWIDTH 16 0
BBX 13 19 2 -6
BITMAP
E070
E070
E070
E070
E070
E070
E070
E070
E070
E0F0
F0F0
FFF8
FF38
E000
E000
E000
E000
E000
E000
ENDCHAR
STARTCHAR 03BD
ENCODING 957
SWIDTH 520 0
DWIDTH 13 0
BBX 13 13 0 0
BITMAP
E038
6030
7030
7030
3070
3870
3860
18E0
1CE0
0DC0
0DC0
0F80
0700
ENDCHAR
STARTCHAR 03BE
ENCODING 958
SWIDTH 520 0
DWIDTH 13 0
BBX 11 24 1 -5
BITMAP
7FE0
7FE0
1C00
3000
7000
7000
7000
3800
1FC0
1FC0
3800
7000
E000
E000
E000
F000
7800
3F80
1FC0
01E0
00E0
00C0
00C0
01C0
ENDCHAR
STARTCHAR 03BF
ENCODING 959
SWIDTH 600 0
DWIDTH 15 0
BBX 13 14 1 0
BITMAP
0700
1FE0
3DF0
7070
6038
E038
E038
E038
E038
6038
7030
7870
3FE0
1FC0
ENDCHAR
STARTCHAR 03C0
ENCODING 960
SWIDTH 680 0
DWIDTH 17 0
BBX 16 13 0 0
BITMAP
FFFF
FFFF
1C1C
1C1C
1C1C
1C1C
1C1C
1C1C
1C1C
1C1C
1C1C
1C1F
1C0F
ENDCHAR
STARTCHAR 03C1
ENCODING 961
SWIDTH 600 0
DWIDTH 15 0
BBX 12 20 2 -6
BITMAP
0E00
3F80
7BC0
E0E0
E060
C070
C070
C070
C070
C070
C0E0
E0E0
FFC0
DF80
C000
C000
C000
C000
C000
C000
ENDCHAR
STARTCHAR 03C2
ENCODING 962
SWIDTH 480 0
DWIDTH 12 0
BBX 11 19 1 -5
BITMAP
0780
1FC0
3FC0
7000
6000
E000
E000
E000
E000
E000
7000
7800
3F00
0FC0
01C0
00E0
00C0
00C0
01C0
ENDCHAR
STARTCHAR 03C3
ENCODING 963
SWIDTH 640 0
DWIDTH 16 0
BBX 14 13 1 0
BITMAP
1FFC
3FFC
7070
7070
E030
E038
E038
E038
E030
7070
78F0
3FE0
1FC0
ENDCHAR
STARTCHAR 03C4
ENCODING 964
SWIDTH 520 0
DWIDTH 13 0
BBX 12 13 0 0
BITMAP
FFF0
FFF0
0E00
0E00
0E00
0E00
0E00
0E00
0E00
0E00
0E00
07E0
07E0
ENDCHAR
STARTCHAR 03C5
ENCODING 965
SWIDTH 600 0
DWIDTH 15 0
BBX 12 13 2 0
BITMAP
E0E0
E060
E060
E060
E070
E070
E070
E060
E060
E0E0
E1E0
7FC0
3F80
ENDCHAR
STARTCHAR 03C6
ENCODING 966
SWIDTH 760 0
DWIDTH 19 0
BBX 17 25 1 -6
BITMAP
01C000
01C000
01C000
01C000
01C000
03E000
1FF800
3FFE00
71CE00
71C700
E1C300
E1C300
E1C380
E1C300
61C700
71C700
39CE00
1FFC00
0FF800
01C000
01C000
01C000
01C000
01C000
01C000
ENDCHAR
STARTCHAR 03C7
ENCODING 967
SWIDTH 600 0
DWIDTH 15 0
BBX 15 20 0 -6
BITMAP
6002
700C
781C
1C18
1C38
0E70
0E60
07E0
07C0
03C0
0380
03C0
07C0
0EC0
0CE0
1C60
1870
3838
703E
E01E
ENDCHAR
STARTCHAR 03C8
ENCODING 968
SWIDTH 760 0
DWIDTH 19 0
BBX 16 25 2 -6
BITMAP
0380
0380
0380
0380
0380
0380
E38E
E386
E386
E387
E387
E387
E387
E387
E386
E38E
739E
3FFC
1FF0
0380
0380
0380
0380
0380
0380
ENDCHAR
STARTCHAR 03C9
ENCODING 969
SWIDTH 800 0
DWIDTH 20 0
BBX 17 13 2 0
BITMAP
700E00
600700
E00300
C00380
C1C380
C1C380
C1C380
C1C380
C1C380
E1C380
E3C700
7F7F00
3E3E00
ENDCHAR
STARTCHAR 03CA
ENCODING 970
SWIDTH 360 0
DWIDTH 9 0
BBX 8 18 0 0
BITMAP
C6
C6
00
00
00
38
38
38
38
38
38
38
38
38
38
38
1F
1F
ENDCHAR
STARTCHAR 03CB
ENCODING 971
SWIDTH 600 0
DWIDTH 15 0
BBX 12 18 2 0
BITMAP
3380
3380
0000
0000
0000
E0E0
E060
E060
E060
E070
E070
E070
E060
E060
E0E0
E1E0
7FC0
3F80
ENDCHAR
STARTCHAR 03CC
ENCODING 972
SWIDTH 600 0
DWIDTH 15 0
BBX 13 19 1 0
BITMAP
01C0
0180
0380
0300
0000
0700
1FE0
3DF0
7070
6038
E038
E038
E038
E038
6038
7030
7870
3FE0
1FC0
ENDCHAR
STARTCHAR 03CD
ENCODING 973
SWIDTH 600 0
DWIDTH 15 0
BBX 12 19 2 0
BITMAP
0380
0700
0600
0600
0000
0000
E0E0
E060
E060
E060
E070
E070
E070
E060
E060
E0E0
E1E0
7FC0
3F80
ENDCHAR
STARTCHAR 03CE
ENCODING 974
SWIDTH 800 0
DWIDTH 20 0
BBX 17 19 2 0
BITMAP
00F000
00E000
00C000
00C000
000000
000800
700600
600700
E00300
C00380
C1C380
C1C380
C1C380
C1C380
C1C380
E1C380
E3C700
7F7F00
3E3E00
ENDCHAR
STARTCHAR 03CF
ENCODING 975
SWIDTH 640 0
DWIDTH 16 0
BBX 14 24 2 -6
BITMAP
E03C
E070
E0F0
E0E0
E1C0
E380
E700
EE00
FE00
FF00
F780
E380
E1C0
E1E0
E0E0
E070
E038
E038
001C
0038
0078
F1F0
FFE0
3F80
ENDCHAR
STARTCHAR 03D0
ENCODING 976
SWIDTH 640 0
DWIDTH 16 0
BBX 13 19 2 0
BITMAP
0FC0
1FE0
3870
7070
7FE0
6FC0
E000
E000
EFC0
FFF0
F070
E038
E038
E038
6038
6030
7070
3FE0
1FC0
ENDCHAR
STARTCHAR 03D1
ENCODING 977
SWIDTH 640 0
DWIDTH 16 0
BBX 16 19 0 0
BITMAP
07E0
0FF0
1C78
1C38
1C1C
1C1C
0F1C
07FF
01FF
F80C
780C
180C
181C
181C
381C
3818
1C38
1FF0
0FE0
ENDCHAR
STARTCHAR 03D2
ENCODING 978
SWIDTH 600 0
DWIDTH 15 0
BBX 15 18 0 0
BITMAP
E00E
701E
7038
3838
3870
1C70
1CE0
0EE0
07C0
0780
0380
0380
0380
0380
0380
0380
0380
0380
ENDCHAR
STARTCHAR 03D3
ENCODING 979
SWIDTH 840 0
DWIDTH 21 0
BBX 21 18 0 0
BITMAP
0B8038
738078
71C0E0
60C0C0
C0E1C0
006180
007380
003300
003F00
001E00
001E00
000C00
000C00
000C00
000C00
000C00
000C00
000C00
ENDCHAR
STARTCHAR 03D4
ENCODING 980
SWIDTH 600 0
DWIDTH 15 0
BBX 15 22 0 0
BITMAP
0CE0
0CE0
0000
0000
E00E
701E
7038
3838
3870
1C70
1CE0
0EE0
07C0
0780
0380
0380
0380
0380
0380
0380
0380
0380
ENDCHAR
STARTCHAR 03D5
ENCODING 981
SWIDTH 760 0
DWIDTH 19 0
BBX 17 25 1 -6
BITMAP
01C000
01C000
01C000
01C000
01C000
03E000
1FF800
3FFE00
71CE00
71C700
E1C300
E1C300
E1C380
E1C300
61C700
71C700
39CE00
1FFC00
0FF800
01C000
01C000
01C000
01C000
01C000
01C000
ENDCHAR
STARTCHAR 03D6
ENCODING 982
SWIDTH 920 0
DWIDTH 23 0
BBX 21 13 1 0
BITMAP
FFFFF8
FFFFF8
3800C0
3000E0
3070E0
3070E0
3070E0
3070E0
3070E0
3870E0
38F1C0
1FDFC0
0F8F80
ENDCHAR
STARTCHAR 03D7
ENCODING 983
SWIDTH 560 0
DWIDTH 14 0
BBX 12 18 2 -5
BITMAP
E0E0
E1C0
E380
E700
EE00
FC00
FE00
F700
E700
E380
E1C0
E0E0
E0E0
0070
00E0
81E0
FFC0
3F00
ENDCHAR
STARTCHAR 03D8
ENCODING 984
SWIDTH 760 0
DWIDTH 19 0
BBX 17 18 1 0
BITMAP
07F000
1FFC00
3E1E00
780700
700700
700380
600380
E00380
600380
700380
700700
380F00
3FFE00
1FFC00
03F000
01C000
01C000
01C000
ENDCHAR
STARTCHAR 03D9
ENCODING 985
SWIDTH 600 0
DWIDTH 15 0
BBX 13 20 1 -6
BITMAP
0700
1FE0
3DF0
7070
6038
E038
E038
E038
E038
6038
7070
7870
3FE0
1FC0
0700
0700
0700
0700
0700
0700
ENDCHAR
STARTCHAR 03DA
ENCODING 986
SWIDTH 640 0
DWIDTH 16 0
BBX 14 18 1 0
BITMAP
07F8
1FFC
3E18
7800
7000
7000
E000
E000
6000
7000
7000
3C00
1FC0
0FC0
01C0
01C0
01C0
01C0
ENDCHAR
STARTCHAR 03DB
ENCODING 987
SWIDTH 480 0
DWIDTH 12 0
BBX 10 19 1 -5
BITMAP
0780
1FC0
3FC0
7000
6000
E000
E000
E000
E000
E000
7000
7800
3F00
0FC0
01C0
00C0
01C0
1FC0
1F80
ENDCHAR
STARTCHAR 03DC
ENCODING 988
SWIDTH 520 0
DWIDTH 13 0
BBX 10 18 2 0
BITMAP
FFC0
FFC0
E000
E000
E000
E000
E000
E000
FFC0
FFC0
FFC0
E1C0
E1C0
E1C0
E000
E000
E000
E000
ENDCHAR
STARTCHAR 03DD
ENCODING 989
SWIDTH 520 0
DWIDTH 13 0
BBX 10 19 2 -6
BITMAP
FFC0
FFC0
E000
E000
E000
E000
E000
FFC0
FFC0
E1C0
E1C0
E1C0
E000
E000
E000
E000
E000
E000
E000
ENDCHAR
STARTCHAR 03DE
ENCODING 990
SWIDTH 480 0
DWIDTH 12 0
BBX 12 18 0 0
BITMAP
F000
F800
3800
1800
3800
3800
3000
7010
7FE0
7FE0
00E0
00C0
01C0
01C0
01C0
01C0
01F0
00F0
ENDCHAR
STARTCHAR 03DF
ENCODING 991
SWIDTH 560 0
DWIDTH 14 0
BBX 12 25 1 -6
BITMAP
7800
7C00
1C00
1C00
1C00
1800
3800
3800
3000
7030
67F0
FFE0
FEE0
C0E0
00C0
01C0
01C0
0180
0380
0380
0300
0700
0300
03E0
01E0
ENDCHAR
STARTCHAR 03E0
ENCODING 992
SWIDTH 600 0
DWIDTH 15 0
BBX 13 18 0 0
BITMAP
7F00
FFC0
E1E0
81F0
07F0
0F30
3C38
1038
00F8
03F8
0738
0238
0038
0038
0038
0038
0070
0070
ENDCHAR
STARTCHAR 03E1
ENCODING 993
SWIDTH 520 0
DWIDTH 13 0
BBX 13 25 -2 -6
BITMAP
E000
F800
7E00
0F00
0780
03C0
01E0
03E0
1FF0
1C70
0038
0038
00F8
07F8
0718
0018
0018
0018
0018
0038
0038
0038
0030
0070
0070
ENDCHAR
STARTCHAR 03F0
ENCODING 1008
SWIDTH 680 0
DWIDTH 17 0
BBX 17 14 0 0
BITMAP
F00000
780E00
7C1C00
0C3C00
0C3C00
0C7C00
0CF800
0DD800
0F9800
0F1800
1E1800
1E1C00
1C0F80
380F80
ENDCHAR
STARTCHAR 03F1
ENCODING 1009
SWIDTH 600 0
DWIDTH 15 0
BBX 12 20 2 -6
BITMAP
0E00
3FC0
7BC0
E0E0
E060
C070
C070
C070
C070
C070
E0E0
FBE0
FFC0
CF00
C000
E000
7F80
3FC0
01C0
01C0
ENDCHAR
STARTCHAR 03F2
ENCODING 1010
SWIDTH 480 0
DWIDTH 12 0
BBX 10 14 1 0
BITMAP
0780
1FC0
3FC0
7000
7000
E000
E000
E000
E000
E000
7000
7840
3FC0
1FC0
ENDCHAR
STARTCHAR 03F3
ENCODING 1011
SWIDTH 280 0
DWIDTH 7 0
BBX 6 25 -1 -6
BITMAP
08
1C
1C
00
00
00
1C
1C
1C
1C
1C
1C
1C
1C
1C
1C
1C
1C
1C
1C
1C
1C
38
F8
F0
ENDCHAR
STARTCHAR 03F4
ENCODING 1012
SWIDTH 800 0
DWIDTH 20 0
BBX 17 18 1 0
BITMAP
07F000
0FFC00
3E1E00
380700
700700
700380
700380
600380
FFFF80
FFFF80
600380
700380
700380
700700
380700
3C1E00
1FFC00
07F800
ENDCHAR
STARTCHAR 03F5
ENCODING 1013
SWIDTH 520 0
DWIDTH 13 0
BBX 11 14 1 0
BITMAP
0780
1FE0
3DC0
7000
6000
E000
FF80
FF80
E000
E000
7000
7820
3FE0
1FC0
ENDCHAR
STARTCHAR 03F6
ENCODING 1014
SWIDTH 480 0
DWIDTH 12 0
BBX 10 14 1 0
BITMAP
3C00
FF00
EF80
01C0
01C0
01C0
7FC0
7FC0
01C0
01C0
01C0
8380
FF00
FE00
ENDCHAR
STARTCHAR 03F7
ENCODING 1015
SWIDTH 600 0
DWIDTH 15 0
BBX 12 18 2 0
BITMAP
E000
E000
E000
FF00
FFC0
E3E0
E070
E070
E070
E070
E070
E0E0
FFE0
FF80
E000
E000
E000
E000
ENDCHAR
STARTCHAR 03F8
ENCODING 1016
SWIDTH 640 0
DWIDTH 16 0
BBX 12 25 2 -6
BITMAP
E000
E000
E000
E000
E000
E700
FFC0
FFE0
F070
E070
E070
E070
E070
E070
E070
E070
F0E0
FFE0
EFC0
E000
E000
E000
E000
E000
E000
ENDCHAR
STARTCHAR 03F9
ENCODING 1017
SWIDTH 640 0
DWIDTH 16 0
BBX 14 18 1 0
BITMAP
03F8
0FFC
1F18
3800
7800
7000
7000
6000
E000
E000
6000
7000
7000
7000
3800
3E08
1FF8
07F8
ENDCHAR
STARTCHAR 03FA
ENCODING 1018
SWIDTH 920 0
DWIDTH 23 0
BBX 19 18 2 0
BITMAP
F001E0
F803E0
F803E0
FC07E0
EC0EE0
EE0CE0
E71CE0
E318E0
E3B8E0
E1F0E0
E1E0E0
E0E0E0
E000E0
E000E0
E000E0
E000E0
E000E0
E000E0
ENDCHAR
STARTCHAR 03FB
ENCODING 1019
SWIDTH 760 0
DWIDTH 19 0
BBX 15 19 2 -6
BITMAP
F01E
F83E
F83E
FC7E
EEEE
E6CE
E7CE
E38E
E00E
E00E
E00E
E00E
E00E
E000
E000
E000
E000
E000
E000
ENDCHAR
STARTCHAR 03FC
ENCODING 1020
SWIDTH 600 0
DWIDTH 15 0
BBX 14 20 0 -6
BITMAP
0380
0FE0
1EF0
3838
3818
301C
301C
301C
301C
301C
3038
3838
3FF0
37E0
3000
3000
FF80
FF80
3000
3000
ENDCHAR
STARTCHAR 03FD
ENCODING 1021
SWIDTH 640 0
DWIDTH 16 0
BBX 13 18 1 0
BITMAP
7F80
FFC0
E3E0
0070
0078
0038
0038
0038
0038
0038
0038
0038
0038
0078
0070
C1E0
FFC0
FF80
ENDCHAR
STARTCHAR 03FE
ENCODING 1022
SWIDTH 640 0
DWIDTH 16 0
BBX 14 18 1 0
BITMAP
03F8
0FFC
1F18
3800
7800
7000
7000
6000
E1C0
E1E0
61C0
7000
7000
7000
3800
3E08
1FF8
07F8
ENDCHAR
STARTCHAR 03FF
ENCODING 1023
SWIDTH 640 0
DWIDTH 16 0
BBX 13 18 1 0
BITMAP
7F80
FFC0
E3E0
0070
0078
0038
0038
0038
1C38
1E38
1C38
0038
0038
0078
0070
C1E0
FFC0
FF80
ENDCHAR
STARTCHAR 0400
ENCODING 1024
SWIDTH 560 0
DWIDTH 14 0
BBX 10 23 2 0
BITMAP
3800
1C00
0E00
0700
0000
FFC0
FFC0
E000
E000
E000
E000
E000
E000
FFC0
FFC0
E000
E000
E000
E000
E000
E000
FFC0
FFC0
ENDCHAR
STARTCHAR 0401
ENCODING 1025
SWIDTH 560 0
DWIDTH 14 0
BBX 10 22 2 0
BITMAP
3980
3180
0000
0000
FFC0
FFC0
E000
E000
E000
E000
E000
E000
FFC0
FFC0
E000
E000
E000
E000
E000
E000
FFC0
FFC0
ENDCHAR
STARTCHAR 0402
ENCODING 1026
SWIDTH 760 0
DWIDTH 19 0
BBX 17 18 0 0
BITMAP
FFF800
FFF800
060000
060000
060000
060000
060000
07FE00
07FF00
060780
060380
060180
060180
060180
060380
060380
061F00
061E00
ENDCHAR
STARTCHAR 0403
ENCODING 1027
SWIDTH 520 0
DWIDTH 13 0
BBX 11 23 2 0
BITMAP
03C0
0300
0600
0C00
0000
FFE0
FFE0
E000
E000
E000
E000
E000
E000
E000
E000
E000
E000
E000
E000
E000
E000
E000
E000
ENDCHAR
STARTCHAR 0404
ENCODING 1028
SWIDTH 640 0
DWIDTH 16 0
BBX 15 18 1 0
BITMAP
03F8
0FFE
1E1C
3800
7000
7000
7000
6000
FFF0
FFF0
6000
7000
7000
7000
3800
3E04
1FFC
07FC
ENDCHAR
STARTCHAR 0405
ENCODING 1029
SWIDTH 560 0
DWIDTH 14 0
BBX 12 18 1 0
BITMAP
1FC0
3FE0
78E0
6000
E000
6000
7000
7C00
3F00
0FC0
03E0
00E0
0070
0070
0060
C0E0
FFC0
7F80
ENDCHAR
STARTCHAR 0406
ENCODING 1030
SWIDTH 360 0
DWIDTH 9 0
BBX 7 18 1 0
BITMAP
FE
FE
38
38
38
38
38
38
38
38
38
38
38
38
38
38
FE
FE
ENDCHAR
STARTCHAR 0407
ENCODING 1031
SWIDTH 360 0
DWIDTH 9 0
BBX 7 22 1 0
BITMAP
CE
C6
00
00
FE
FE
38
38
38
38
38
38
38
38
38
38
38
38
38
38
FE
FE
ENDCHAR
STARTCHAR 0408
ENCODING 1032
SWIDTH 280 0
DWIDTH 7 0
BBX 7 23 -2 -5
BITMAP
0E
0E
0E
0E
0E
0E
0E
0E
0E
0E
0E
0E
0E
0E
0E
0E
0E
0E
0E
0E
BC
FC
F0
ENDCHAR
STARTCHAR 0409
ENCODING 1033
SWIDTH 960 0
DWIDTH 24 0
BBX 23 18 0 0
BITMAP
07FC00
07FC00
070C00
070C00
060C00
060C00
060C00
0E0F00
0E0FF8
0E0FFC
0E0C1C
0C0C0E
0C0C0E
1C0C0E
1C0C0E
380C3C
F80FF8
F00FF0
ENDCHAR
STARTCHAR 040A
ENCODING 1034
SWIDTH 960 0
DWIDTH 24 0
BBX 21 18 2 0
BITMAP
E03800
E03800
E03800
E03800
E03800
E03800
E03800
E03E00
FFFFE0
FFFFF0
E03878
E03838
E03838
E03838
E03838
E038F8
E03FF0
E03FC0
ENDCHAR
STARTCHAR 040B
ENCODING 1035
SWIDTH 760 0
DWIDTH 19 0
BBX 17 18 0 0
BITMAP
FFF800
FFF800
FFF800
060000
060000
060000
060000
07FE00
07FF00
060780
060380
060180
060180
060180
060180
060180
060180
060180
ENDCHAR
STARTCHAR 040C
ENCODING 1036
SWIDTH 640 0
DWIDTH 16 0
BBX 14 23 2 0
BITMAP
01E0
0380
0300
0600
0000
E03C
E070
E0F0
E0E0
E1C0
E380
E700
EE00
FC00
EE00
EF00
E700
E380
E1C0
E0E0
E070
E078
E03C
ENDCHAR
STARTCHAR 040D
ENCODING 1037
SWIDTH 800 0
DWIDTH 20 0
BBX 15 23 2 0
BITMAP
0F00
0300
0180
00C0
0000
E00E
E01E
E01E
E03E
E076
E076
E0E6
E1C6
E1C6
E386
E706
E706
EE06
FC06
FC06
F806
F006
F006
ENDCHAR
STARTCHAR 040E
ENCODING 1038
SWIDTH 640 0
DWIDTH 16 0
BBX 16 24 0 0
BITMAP
1C18
1C38
0E78
0FF0
0000
0000
E007
700E
700E
380C
381C
1C1C
1C38
0E38
0E70
0770
0760
03E0
01C0
01C0
0380
4780
7F00
7E00
ENDCHAR
STARTCHAR 040F
ENCODING 1039
SWIDTH 720 0
DWIDTH 18 0
BBX 14 23 2 -5
BITMAP
E01C
E01C
E01C
E01C
E01C
E01C
E01C
E01C
E01C
E01C
E01C
E01C
E01C
E01C
E01C
E01C
FFFC
FFFC
0300
0300
0300
0300
0300
ENDCHAR
STARTCHAR 0410
ENCODING 1040
SWIDTH 640 0
DWIDTH 16 0
BBX 16 18 0 0
BITMAP
01C0
03C0
03C0
07E0
0760
0670
0E70
0E30
0C38
1C38
1FFC
3FFC
3FFC
300E
700E
7006
6007
E007
ENDCHAR
STARTCHAR 0411
ENCODING 1041
SWIDTH 640 0
DWIDTH 16 0
BBX 12 18 2 0
BITMAP
FFE0
FFE0
E000
E000
E000
E000
E000
FC00
FFC0
FFE0
E070
E070
E030
E070
E070
E1F0
FFE0
FF80
ENDCHAR
STARTCHAR 0412
ENCODING 1042
SWIDTH 640 0
DWIDTH 16 0
BBX 13 18 2 0
BITMAP
FF80
FFE0
E1F0
E070
E038
E030
E070
E1E0
FF80
FFF0
E070
E038
E038
E038
E038
E0F0
FFF0
FFC0
ENDCHAR
STARTCHAR 0413
ENCODING 1043
SWIDTH 520 0
DWIDTH 13 0
BBX 11 18 2 0
BITMAP
FFE0
FFE0
E000
E000
E000
E000
E000
E000
E000
E000
E000
E000
E000
E000
E000
E000
E000
E000
ENDCHAR
STARTCHAR 0414
ENCODING 1044
SWIDTH 720 0
DWIDTH 18 0
BBX 17 23 0 -5
BITMAP
03FE00
03FE00
03FE00
030E00
070E00
070E00
070E00
060E00
0E0E00
0E0E00
0E0E00
1C0E00
1C0E00
180E00
380E00
300E00
FFFF80
FFFF80
E00180
E00180
E00180
E00180
E00180
ENDCHAR
STARTCHAR 0415
ENCODING 1045
SWIDTH 560 0
DWIDTH 14 0
BBX 10 18 2 0
BITMAP
FFC0
FFC0
E000
E000
E000
E000
E000
E000
FFC0
FFC0
E000
E000
E000
E000
E000
E000
FFC0
FFC0
ENDCHAR
STARTCHAR 0416
ENCODING 1046
SWIDTH 880 0
DWIDTH 22 0
BBX 22 18 0 0
BITMAP
E0301C
703038
383070
1C30E0
0C30C0
0E31C0
073380
03B700
01FE00
03B700
03B700
073380
0E31C0
1C30E0
1C30E0
383070
703038
E0301C
ENDCHAR
STARTCHAR 0417
ENCODING 1047
SWIDTH 600 0
DWIDTH 15 0
BBX 13 18 1 0
BITMAP
1FC0
FFE0
70F0
4070
0030
0070
0070
03E0
3F00
3FE0
00F0
0038
0038
0038
0038
C0F0
FFE0
7FC0
ENDCHAR
STARTCHAR 0418
ENCODING 1048
SWIDTH 800 0
DWIDTH 20 0
BBX 15 18 2 0
BITMAP
E00E
E01E
E01E
E03E
E076
E076
E0E6
E1C6
E1C6
E386
E706
E706
EE06
FC06
FC06
F806
F006
F006
ENDCHAR
STARTCHAR 0419
ENCODING 1049
SWIDTH 800 0
DWIDTH 20 0
BBX 15 24 2 0
BITMAP
1C18
1C38
0E78
0FF0
0000
0000
E00E
E01E
E01E
E03E
E076
E076
E0E6
E1C6
E1C6
E386
E706
E706
EE06
FC06
FC06
F806
F006
F006
ENDCHAR
STARTCHAR 041A
ENCODING 1050
SWIDTH 640 0
DWIDTH 16 0
BBX 14 18 2 0
BITMAP
E03C
E070
E0F0
E0E0
E1C0
E380
E700
EE00
FC00
EE00
EF00
E700
E380
E1C0
E0E0
E070
E078
E03C
ENDCHAR
STARTCHAR 041B
ENCODING 1051
SWIDTH 720 0
DWIDTH 18 0
BBX 16 18 0 0
BITMAP
07FF
07FF
0707
0607
0607
0607
0607
0E07
0E07
0E07
0E07
0C07
0C07
1C07
1C07
3807
F807
F007
ENDCHAR
STARTCHAR 041C
ENCODING 1052
SWIDTH 920 0
DWIDTH 23 0
BBX 19 18 2 0
BITMAP
F001E0
F803E0
F803E0
F807E0
FC06E0
EC06E0
EC0EE0
EE0CE0
E60CE0
E71CE0
E718E0
E318E0
E3B8E0
E1B0E0
E1F0E0
E1E0E0
E0E0E0
E0E0E0
ENDCHAR
STARTCHAR 041D
ENCODING 1053
SWIDTH 760 0
DWIDTH 19 0
BBX 14 18 2 0
BITMAP
E00C
E00C
E00C
E00C
E00C
E00C
E00C
E00C
FFFC
FFFC
E00C
E00C
E00C
E00C
E00C
E00C
E00C
E00C
ENDCHAR
STARTCHAR 041E
ENCODING 1054
SWIDTH 800 0
DWIDTH 20 0
BBX 17 18 1 0
BITMAP
07F000
0FFC00
3E3E00
380700
700700
700380
700380
600380
E00380
E00380
600380
700380
700380
700700
380700
3C1E00
1FFC00
07F800
ENDCHAR
STARTCHAR 041F
ENCODING 1055
SWIDTH 720 0
DWIDTH 18 0
BBX 14 18 2 0
BITMAP
FFFC
FFFC
E01C
E01C
E01C
E01C
E01C
E01C
E01C
E01C
E01C
E01C
E01C
E01C
E01C
E01C
E01C
E01C
ENDCHAR
STARTCHAR 0420
ENCODING 1056
SWIDTH 600 0
DWIDTH 15 0
BBX 12 18 2 0
BITMAP
FF00
FFC0
E3E0
E070
E070
E070
E070
E070
E0E0
FFE0
FF80
E000
E000
E000
E000
E000
E000
E000
ENDCHAR
STARTCHAR 0421
ENCODING 1057
SWIDTH 640 0
DWIDTH 16 0
BBX 14 18 1 0
BITMAP
03F8
0FFC
1F18
3800
7800
7000
7000
6000
E000
E000
6000
7000
7000
7000
3800
3E08
1FF8
07F8
ENDCHAR
STARTCHAR 0422
ENCODING 1058
SWIDTH 560 0
DWIDTH 14 0
BBX 14 18 0 0
BITMAP
FFFC
FFFC
0300
0300
0300
0300
0300
0300
0300
0300
0300
0300
0300
0300
0300
0300
0300
0300
ENDCHAR
STARTCHAR 0423
ENCODING 1059
SWIDTH 640 0
DWIDTH 16 0
BBX 16 18 0 0
BITMAP
E007
700E
700E
380C
381C
1C1C
1C38
0E38
0E70
0770
0760
03E0
01C0
01C0
0380
4780
7F00
7E00
ENDCHAR
STARTCHAR 0424
ENCODING 1060
SWIDTH 840 0
DWIDTH 21 0
BBX 18 18 1 0
BITMAP
00E000
00E000
07FC00
1FFF00
3CEF80
70E3C0
60E1C0
E0E1C0
E0E0C0
E0E1C0
E0E1C0
70E1C0
78E380
3FFF00
1FFE00
01E000
00E000
00E000
ENDCHAR
STARTCHAR 0425
ENCODING 1061
SWIDTH 600 0
DWIDTH 15 0
BBX 15 18 0 0
BITMAP
F00E
701C
3838
1C38
1C70
0E60
06E0
07C0
0380
07C0
07C0
0EE0
0C70
1C70
3838
381C
701C
E00E
ENDCHAR
STARTCHAR 0426
ENCODING 1062
SWIDTH 760 0
DWIDTH 19 0
BBX 16 23 2 -5
BITMAP
E01C
E01C
E01C
E01C
E01C
E01C
E01C
E01C
E01C
E01C
E01C
E01C
E01C
E01C
E01C
E01C
FFFF
FFFF
0003
0003
0003
0003
0003
ENDCHAR
STARTCHAR 0427
ENCODING 1063
SWIDTH 720 0
DWIDTH 18 0
BBX 13 18 2 0
BITMAP
E018
E018
E018
E018
E018
E018
E018
E018
E018
FBF8
7FF8
1F18
0018
0018
0018
0018
0018
0018
ENDCHAR
STARTCHAR 0428
ENCODING 1064
SWIDTH 1040 0
DWIDTH 26 0
BBX 22 18 2 0
BITMAP
E0301C
E0301C
E0301C
E0301C
E0301C
E0301C
E0301C
E0301C
E0301C
E0301C
E0301C
E0301C
E0301C
E0301C
E0301C
E0301C
FFFFFC
FFFFFC
ENDCHAR
STARTCHAR 0429
ENCODING 1065
SWIDTH 1080 0
DWIDTH 27 0
BBX 24 23 2 -5
BITMAP
E0301C
E0301C
E0301C
E0301C
E0301C
E0301C
E0301C
E0301C
E0301C
E0301C
E0301C
E0301C
E0301C
E0301C
E0301C
E0301C
FFFFFF
FFFFFF
000007
000007
000007
000007
000007
ENDCHAR
STARTCHAR 042A
ENCODING 1066
SWIDTH 720 0
DWIDTH 18 0
BBX 16 18 0 0
BITMAP
FE00
FE00
0E00
0E00
0E00
0E00
0E00
0FC0
0FFC
0FFE
0E07
0E07
0E03
0E07
0E07
0E1F
0FFE
0FF8
ENDCHAR
STARTCHAR 042B
ENCODING 1067
SWIDTH 880 0
DWIDTH 22 0
BBX 17 18 2 0
BITMAP
E00180
E00180
E00180
E00180
E00180
E00180
E00180
FC0180
FFC180
FFE180
E0F180
E07180
E07180
E07180
E07180
E1E180
FFE180
FF8180
ENDCHAR
STARTCHAR 042C
ENCODING 1068
SWIDTH 640 0
DWIDTH 16 0
BBX 13 18 2 0
BITMAP
E000
E000
E000
E000
E000
E000
E000
FC00
FFE0
FFF0
E070
E038
E038
E038
E078
E0F0
FFE0
FF80
ENDCHAR
STARTCHAR 042D
ENCODING 1069
SWIDTH 640 0
DWIDTH 16 0
BBX 14 18 1 0
BITMAP
7F80
FFC0
E1F0
0070
0038
0038
0038
0018
3FFC
3FFC
0018
0038
0038
0038
0070
81F0
FFE0
FF80
ENDCHAR
STARTCHAR 042E
ENCODING 1070
SWIDTH 1040 0
DWIDTH 26 0
BBX 23 18 2 0
BITMAP
E00FC0
E03FF0
E07CF8
E0F03C
E0E01C
E1C00C
E1C00E
E1C00E
FFC00E
FFC00E
E1C00E
E1C00E
E1C00E
E0E01C
E0E01C
E07878
E03FF0
E01FE0
ENDCHAR
STARTCHAR 042F
ENCODING 1071
SWIDTH 640 0
DWIDTH 16 0
BBX 14 18 0 0
BITMAP
03FC
1FFC
1F1C
381C
381C
381C
381C
381C
1F1C
0FFC
07FC
061C
0E1C
1C1C
1C1C
381C
701C
F01C
ENDCHAR
STARTCHAR 0430
ENCODING 1072
SWIDTH 560 0
DWIDTH 14 0
BBX 11 14 1 0
BITMAP
0700
3FC0
39E0
00E0
0060
0060
1FE0
7FE0
F060
E060
E0E0
E1E0
7FE0
3E60
ENDCHAR
STARTCHAR 0431
ENCODING 1073
SWIDTH 600 0
DWIDTH 15 0
BBX 13 19 1 0
BITMAP
0070
07F8
1FE0
3C00
7000
7000
6100
6FE0
FFF0
F070
E038
E038
E038
6038
7038
7030
3870
3FE0
0FC0
ENDCHAR
STARTCHAR 0432
ENCODING 1074
SWIDTH 600 0
DWIDTH 15 0
BBX 12 13 2 0
BITMAP
FFC0
FFE0
E0E0
E0E0
E0E0
FFC0
FFC0
E0E0
E070
E070
E0E0
FFE0
FF80
ENDCHAR
STARTCHAR 0433
ENCODING 1075
SWIDTH 440 0
DWIDTH 11 0
BBX 9 13 2 0
BITMAP
FF80
FF80
E000
E000
E000
E000
E000
E000
E000
E000
E000
E000
E000
ENDCHAR
STARTCHAR 0434
ENCODING 1076
SWIDTH 600 0
DWIDTH 15 0
BBX 15 18 0 -5
BITMAP
07F8
07F8
0638
0E38
0E38
0E38
0C38
1C38
1C38
3838
3838
FFFE
FFFE
E00E
E00E
E00E
E00E
E00E
ENDCHAR
STARTCHAR 0435
ENCODING 1077
SWIDTH 560 0
DWIDTH 14 0
BBX 12 14 1 0
BITMAP
0700
1FC0
39E0
7070
6070
E070
FFF0
FFF0
E000
6000
7000
7820
3FE0
1FE0
ENDCHAR
STARTCHAR 0436
ENCODING 1078
SWIDTH 800 0
DWIDTH 20 0
BBX 20 13 0 0
BITMAP
F060E0
3861C0
1C6380
0E6700
066E00
076C00
07FC00
076E00
0E6700
1C6380
3861C0
7061C0
E060F0
ENDCHAR
STARTCHAR 0437
ENCODING 1079
SWIDTH 520 0
DWIDTH 13 0
BBX 11 14 1 0
BITMAP
1E00
FF80
77C0
00C0
00C0
01C0
1F00
1F80
01C0
00E0
00E0
81C0
FFC0
FF80
ENDCHAR
STARTCHAR 0438
ENCODING 1080
SWIDTH 680 0
DWIDTH 17 0
BBX 13 13 2 0
BITMAP
E078
E0F8
E1F8
E1B8
E3B8
E738
E738
EE38
EC38
DC38
F838
F038
F038
ENDCHAR
STARTCHAR 0439
ENCODING 1081
SWIDTH 680 0
DWIDTH 17 0
BBX 13 19 2 0
BITMAP
7070
30E0
3FE0
0F80
0000
0000
E078
E0F8
E1F8
E1B8
E3B8
E738
E738
EE38
EC38
DC38
F838
F038
F038
ENDCHAR
STARTCHAR 043A
ENCODING 1082
SWIDTH 560 0
DWIDTH 14 0
BBX 12 13 2 0
BITMAP
E1E0
E1C0
E380
E700
EE00
FC00
FC00
EE00
E700
E380
E3C0
E1C0
E0F0
ENDCHAR
STARTCHAR 043B
ENCODING 1083
SWIDTH 600 0
DWIDTH 15 0
BBX 13 13 0 0
BITMAP
0FF8
0FF8
0C38
0C38
0C38
1C38
1C38
1C38
1838
1838
3838
F038
F038
ENDCHAR
STARTCHAR 043C
ENCODING 1084
SWIDTH 760 0
DWIDTH 19 0
BBX 15 13 2 0
BITMAP
F01E
F01E
D81E
D836
DC36
EC76
EC66
EE66
E6E6
E7C6
E3C6
E386
E386
ENDCHAR
STARTCHAR 043D
ENCODING 1085
SWIDTH 640 0
DWIDTH 16 0
BBX 12 13 2 0
BITMAP
E070
E070
E070
E070
E070
FFF0
FFF0
E070
E070
E070
E070
E070
E070
ENDCHAR
STARTCHAR 043E
ENCODING 1086
SWIDTH 600 0
DWIDTH 15 0
BBX 13 14 1 0
BITMAP
0700
1FE0
3DF0
7070
6038
E038
E038
E038
E038
6038
7030
7870
3FE0
1FC0
ENDCHAR
STARTCHAR 043F
ENCODING 1087
SWIDTH 640 0
DWIDTH 16 0
BBX 12 13 2 0
BITMAP
FFF0
FFF0
E070
E070
E070
E070
E070
E070
E070
E070
E070
E070
E070
ENDCHAR
STARTCHAR 0440
ENCODING 1088
SWIDTH 640 0
DWIDTH 16 0
BBX 12 20 2 -6
BITMAP
0700
DFC0
FFE0
F0F0
E070
E070
E070
E070
E070
E070
E070
F0E0
FFE0
EFC0
E000
E000
E000
E000
E000
E000
ENDCHAR
STARTCHAR 0441
ENCODING 1089
SWIDTH 480 0
DWIDTH 12 0
BBX 10 14 1 0
BITMAP
0780
1FC0
3FC0
7000
7000
E000
E000
E000
E000
E000
7000
7840
3FC0
1FC0
ENDCHAR
STARTCHAR 0442
ENCODING 1090
SWIDTH 480 0
DWIDTH 12 0
BBX 11 13 1 0
BITMAP
FFE0
FFE0
0E00
0E00
0E00
0E00
0E00
0E00
0E00
0E00
0E00
0E00
0E00
ENDCHAR
STARTCHAR 0443
ENCODING 1091
SWIDTH 520 0
DWIDTH 13 0
BBX 13 19 0 -6
BITMAP
E038
7030
7070
3070
3860
38E0
18E0
1CC0
0DC0
0D80
0F80
0780
0700
0700
0700
0E00
1E00
FC00
F800
ENDCHAR
STARTCHAR 0444
ENCODING 1092
SWIDTH 760 0
DWIDTH 19 0
BBX 16 25 1 -6
BITMAP
01C0
01C0
01C0
01C0
01C0
03E0
1FF8
3FFE
79CE
71C7
E1C3
E1C3
E1C3
E1C3
61C7
71C7
39CE
1FFC
0FF8
01C0
01C0
01C0
01C0
01C0
01C0
ENDCHAR
STARTCHAR 0445
ENCODING 1093
SWIDTH 560 0
DWIDTH 14 0
BBX 13 13 0 0
BITMAP
7078
3870
1CE0
1DC0
0FC0
0780
0780
0F80
1DC0
1CE0
3860
7070
F038
ENDCHAR
STARTCHAR 0446
ENCODING 1094
SWIDTH 640 0
DWIDTH 16 0
BBX 14 18 2 -5
BITMAP
E070
E070
E070
E070
E070
E070
E070
E070
E070
E070
E070
FFFC
FFFC
001C
001C
001C
001C
001C
ENDCHAR
STARTCHAR 0447
ENCODING 1095
SWIDTH 640 0
DWIDTH 16 0
BBX 12 13 2 0
BITMAP
C070
C070
C070
C070
C070
E070
F7F0
7F70
1870
0070
0070
0070
0070
ENDCHAR
STARTCHAR 0448
ENCODING 1096
SWIDTH 920 0
DWIDTH 23 0
BBX 19 13 2 0
BITMAP
E0E0E0
E0E0E0
E0E0E0
E0E0E0
E0E0E0
E0E0E0
E0E0E0
E0E0E0
E0E0E0
E0E0E0
E0E0E0
FFFFE0
FFFFE0
ENDCHAR
STARTCHAR 0449
ENCODING 1097
SWIDTH 920 0
DWIDTH 23 0
BBX 21 18 2 -5
BITMAP
E0E0E0
E0E0E0
E0E0E0
E0E0E0
E0E0E0
E0E0E0
E0E0E0
E0E0E0
E0E0E0
E0E0E0
E0E0E0
FFFFF8
FFFFF8
000038
000038
000038
000038
000038
ENDCHAR
STARTCHAR 044A
ENCODING 1098
SWIDTH 720 0
DWIDTH 18 0
BBX 16 13 0 0
BITMAP
FE00
FE00
0600
0600
0600
07FC
07FF
0607
0603
0603
0607
07FE
07FC
ENDCHAR
STARTCHAR 044B
ENCODING 1099
SWIDTH 800 0
DWIDTH 20 0
BBX 16 13 2 0
BITMAP
E007
E007
E007
E007
E007
FF87
FFC7
E0E7
E0E7
E0E7
E0E7
FFC7
FF87
ENDCHAR
STARTCHAR 044C
ENCODING 1100
SWIDTH 600 0
DWIDTH 15 0
BBX 12 13 2 0
BITMAP
E000
E000
E000
E000
E000
FFC0
FFE0
E0F0
E070
E070
E0E0
FFE0
FF80
ENDCHAR
STARTCHAR 044D
ENCODING 1101
SWIDTH 480 0
DWIDTH 12 0
BBX 10 14 1 0
BITMAP
3C00
FF00
EF80
01C0
01C0
01C0
7FC0
7FC0
01C0
01C0
01C0
8380
FF00
FE00
ENDCHAR
STARTCHAR 044E
ENCODING 1102
SWIDTH 840 0
DWIDTH 21 0
BBX 18 14 2 0
BITMAP
001C00
E0FF00
E1FF80
E38380
E381C0
E381C0
FF81C0
FF81C0
E381C0
E381C0
E38180
E1C380
E1FF00
E07E00
ENDCHAR
STARTCHAR 044F
ENCODING 1103
SWIDTH 560 0
DWIDTH 14 0
BBX 12 13 0 0
BITMAP
1FF0
3FF0
7070
7070
7070
7870
3FF0
0FF0
1C70
1C70
3870
7070
F070
ENDCHAR
STARTCHAR 0450
ENCODING 1104
SWIDTH 560 0
DWIDTH 14 0
BBX 12 19 1 0
BITMAP
3C00
0E00
0600
0300
0000
0700
1FC0
39E0
7070
6070
E070
FFF0
FFF0
E000
6000
7000
7820
3FE0
1FE0
ENDCHAR
STARTCHAR 0451
ENCODING 1105
SWIDTH 560 0
DWIDTH 14 0
BBX 12 18 1 0
BITMAP
39C0
19C0
0000
0000
0700
1FC0
39E0
7070
6070
E070
FFF0
FFF0
E000
6000
7000
7820
3FE0
1FE0
ENDCHAR
STARTCHAR 0452
ENCODING 1106
SWIDTH 640 0
DWIDTH 16 0
BBX 14 25 0 -6
BITMAP
3800
3800
FF80
FF80
3800
3800
3BF0
3FF8
3C38
381C
381C
381C
381C
381C
381C
381C
381C
381C
381C
001C
001C
001C
003C
00F8
00F0
ENDCHAR
STARTCHAR 0453
ENCODING 1107
SWIDTH 440 0
DWIDTH 11 0
BBX 9 19 2 0
BITMAP
0700
0E00
1C00
1800
0000
0000
FF80
FF80
E000
E000
E000
E000
E000
E000
E000
E000
E000
E000
E000
ENDCHAR
STARTCHAR 0454
ENCODING 1108
SWIDTH 520 0
DWIDTH 13 0
BBX 11 14 1 0
BITMAP
0780
1FE0
3DC0
7000
6000
E000
FF80
FF80
E000
E000
7000
7820
3FE0
1FC0
ENDCHAR
STARTCHAR 0455
ENCODING 1109
SWIDTH 480 0
DWIDTH 12 0
BBX 10 14 1 0
BITMAP
1F00
7FC0
FB80
E000
E000
7800
7E00
1F80
07C0
01C0
01C0
81C0
FF80
FF00
ENDCHAR
STARTCHAR 0456
ENCODING 1110
SWIDTH 280 0
DWIDTH 7 0
BBX 3 19 2 0
BITMAP
40
E0
E0
00
00
00
E0
E0
E0
E0
E0
E0
E0
E0
E0
E0
E0
E0
E0
ENDCHAR
STARTCHAR 0457
ENCODING 1111
SWIDTH 280 0
DWIDTH 7 0
BBX 7 18 0 0
BITMAP
CE
C6
00
00
00
38
38
38
38
38
38
38
38
38
38
38
38
38
ENDCHAR
STARTCHAR 0458
ENCODING 1112
SWIDTH 280 0
DWIDTH 7 0
BBX 6 25 -1 -6
BITMAP
08
1C
1C
00
00
00
1C
1C
1C
1C
1C
1C
1C
1C
1C
1C
1C
1C
1C
1C
1C
1C
38
F8
F0
ENDCHAR
STARTCHAR 0459
ENCODING 1113
SWIDTH 840 0
DWIDTH 21 0
BBX 20 13 0 0
BITMAP
0FF000
0FF000
0C7000
0C7000
0C7000
1C7FC0
1C7FE0
1C7070
187070
187070
387070
F07FE0
F07FC0
ENDCHAR
STARTCHAR 045A
ENCODING 1114
SWIDTH 880 0
DWIDTH 22 0
BBX 19 13 2 0
BITMAP
E0E000
E0E000
E0E000
E0E000
E0E000
FFFF80
FFFFC0
E0E0E0
E0E0E0
E0E0E0
E0E0E0
E0FFC0
E0FF80
ENDCHAR
STARTCHAR 045B
ENCODING 1115
SWIDTH 640 0
DWIDTH 16 0
BBX 14 19 0 0
BITMAP
3800
3800
FFC0
FFC0
3800
3800
3BF0
3FF8
3C38
381C
381C
381C
381C
381C
381C
381C
381C
381C
381C
ENDCHAR
STARTCHAR 045C
ENCODING 1116
SWIDTH 560 0
DWIDTH 14 0
BBX 12 19 2 0
BITMAP
0380
0700
0E00
0C00
0000
0020
E1C0
E1C0
E380
E700
EE00
FC00
FC00
EE00
E700
E380
E3C0
E1C0
E0F0
ENDCHAR
STARTCHAR 045D
ENCODING 1117
SWIDTH 680 0
DWIDTH 17 0
BBX 13 19 2 0
BITMAP
1C00
0E00
0700
0300
0000
0000
E078
E0F8
E1F8
E1B8
E3B8
E738
E738
EE38
EC38
DC38
F838
F038
F038
ENDCHAR
STARTCHAR 045E
ENCODING 1118
SWIDTH 520 0
DWIDTH 13 0
BBX 13 25 0 -6
BITMAP
3070
3860
3FE0
0F80
0000
0000
E038
7030
7070
3070
3860
38E0
18E0
1CC0
0DC0
0D80
0F80
0780
0700
0700
0700
0E00
1E00
FC00
F800
ENDCHAR
STARTCHAR 045F
ENCODING 1119
SWIDTH 640 0
DWIDTH 16 0
BBX 12 18 2 -5
BITMAP
E070
E070
E070
E070
E070
E070
E070
E070
E070
E070
E070
FFF0
FFF0
0600
0600
0600
0600
0600
ENDCHAR
STARTCHAR 0460
ENCODING 1120
SWIDTH 920 0
DWIDTH 23 0
BBX 22 18 1 0
BITMAP
C0701C
C0701C
E0701C
E07018
E07018
E07038
E07838
607838
70F838
70D830
70DC70
39DC70
398C70
198EE0
1F8EE0
0F07C0
0F07C0
070380
ENDCHAR
STARTCHAR 0461
ENCODING 1121
SWIDTH 800 0
DWIDTH 20 0
BBX 20 14 0 0
BITMAP
E06070
E06070
606070
606060
707060
7070E0
7070E0
30F0C0
38F9C0
1999C0
1D9980
1F9F80
0F0F00
070E00
ENDCHAR
STARTCHAR 0462
ENCODING 1122
SWIDTH 680 0
DWIDTH 17 0
BBX 16 18 0 0
BITMAP
0E00
0E00
0E00
FFE0
FFE0
0E00
0E00
0F80
0FF8
0FFE
0E0E
0E06
0E07
0E07
0E0E
0E1E
0FFC
0FF0
ENDCHAR
STARTCHAR 0463
ENCODING 1123
SWIDTH 640 0
DWIDTH 16 0
BBX 15 16 0 0
BITMAP
1C00
1C00
1C00
FFC0
FFC0
1C00
1C00
1C00
1FF8
1FFC
1C1E
1C0E
1C0E
1C1E
1FFC
1FF0
ENDCHAR
STARTCHAR 0464
ENCODING 1124
SWIDTH 920 0
DWIDTH 23 0
BBX 20 18 2 0
BITMAP
E00FE0
E03FF0
E07C70
E0F000
E0E000
E1C000
E1C000
E1C000
FFFFC0
FFFFC0
E1C000
E1C000
E1C000
E1E000
E0E000
E07810
E07FF0
E01FF0
ENDCHAR
STARTCHAR 0465
ENCODING 1125
SWIDTH 760 0
DWIDTH 19 0
BBX 16 14 2 0
BITMAP
003C
E0FF
E1F7
E1C0
E380
E380
FFFE
FFFE
E380
E380
E380
E1C1
E0FF
E07F
ENDCHAR
STARTCHAR 0466
ENCODING 1126
SWIDTH 680 0
DWIDTH 17 0
BBX 17 18 0 0
BITMAP
01C000
01E000
03E000
037000
077000
073000
063800
0E1800
0FFC00
1FFC00
1DCC00
19CE00
39C600
39C700
71C700
71C300
61C380
E1C380
ENDCHAR
STARTCHAR 0467
ENCODING 1127
SWIDTH 600 0
DWIDTH 15 0
BBX 15 13 0 0
BITMAP
0780
06C0
06C0
0CE0
0C60
1FF0
1FF0
3BB0
3BB8
3398
739C
639C
E38E
ENDCHAR
STARTCHAR 0468
ENCODING 1128
SWIDTH 960 0
DWIDTH 24 0
BBX 22 18 2 0
BITMAP
E01E00
E01E00
E01F00
E03F00
E03300
E07380
E07180
E061C0
FFFFC0
FFFFC0
E1CCE0
E1CCE0
E18C70
E38C70
E38C30
E70C38
E70C38
EE0C1C
ENDCHAR
STARTCHAR 0469
ENCODING 1129
SWIDTH 800 0
DWIDTH 20 0
BBX 18 13 2 0
BITMAP
E07800
E07800
E0DC00
E0CC00
E1CE00
FFFE00
FFFF00
E3B700
E33300
E73380
E63180
EE31C0
EE31C0
ENDCHAR
STARTCHAR 046A
ENCODING 1130
SWIDTH 760 0
DWIDTH 19 0
BBX 18 18 0 0
BITMAP
3FFF80
3FFF80
1FFF00
1C0600
0E0E00
071C00
03B800
01F000
0FFC00
1FFE00
1CE700
38E300
38E380
38E380
70E180
70E1C0
70E1C0
E0E0C0
ENDCHAR
STARTCHAR 046B
ENCODING 1131
SWIDTH 640 0
DWIDTH 16 0
BBX 16 13 0 0
BITMAP
3FFC
3FFC
1C38
0E70
06E0
0FF0
1FF8
399C
319C
718C
718E
6186
E187
ENDCHAR
STARTCHAR 046C
ENCODING 1132
SWIDTH 1000 0
DWIDTH 25 0
BBX 23 18 2 0
BITMAP
E1FFF8
E1FFF8
E1FFF8
E0E070
E070E0
E030C0
E03980
E01F80
FFFFE0
FFFFF0
E1C638
E1C638
E18618
E3861C
E3861C
E3060C
E7060E
E7060E
ENDCHAR
STARTCHAR 046D
ENCODING 1133
SWIDTH 840 0
DWIDTH 21 0
BBX 19 13 2 0
BITMAP
E7FFC0
E3FF80
E18300
E0C600
E06E00
FFFE00
FFFF80
E3BB80
E739C0
E739C0
E638C0
EE38E0
EC3860
ENDCHAR
STARTCHAR 046E
ENCODING 1134
SWIDTH 600 0
DWIDTH 15 0
BBX 13 26 1 -5
BITMAP
38E0
1D80
0F00
3FC0
FFE0
F0F0
4070
0030
0070
0070
03E0
3F80
3FE0
00F0
0030
0038
0038
0030
00F0
3FE0
FFC0
E000
C000
E000
FFF0
7FF0
ENDCHAR
STARTCHAR 046F
ENCODING 1135
SWIDTH 520 0
DWIDTH 13 0
BBX 12 22 0 -5
BITMAP
3060
39E0
1F80
1F00
7FC0
3BE0
0060
0060
00E0
0F80
0FC0
00E0
0070
0070
00E0
1FE0
7F80
E000
E000
F080
7FE0
3FE0
ENDCHAR
STARTCHAR 0470
ENCODING 1136
SWIDTH 840 0
DWIDTH 21 0
BBX 17 18 2 0
BITMAP
E1C380
E1C380
E1C380
E1C380
E1C380
E1C380
E1C380
E1C380
E1C300
71C700
79CF00
3FFE00
1FF800
01C000
01C000
01C000
01C000
01C000
ENDCHAR
STARTCHAR 0471
ENCODING 1137
SWIDTH 800 0
DWIDTH 20 0
BBX 16 25 2 -6
BITMAP
0380
0380
0380
0380
0380
0380
E38E
E386
E386
E387
E387
E387
E387
E387
E386
E38E
739E
3FFC
1FF0
0380
0380
0380
0380
0380
0380
ENDCHAR
STARTCHAR 0472
ENCODING 1138
SWIDTH 800 0
DWIDTH 20 0
BBX 17 18 1 0
BITMAP
07F000
0FFC00
3E1E00
380700
700700
700380
700380
600380
FFFF80
FFFF80
600380
700380
700380
700700
380700
3C1E00
1FFC00
07F800
ENDCHAR
STARTCHAR 0473
ENCODING 1139
SWIDTH 600 0
DWIDTH 15 0
BBX 13 14 1 0
BITMAP
0700
1FE0
3DF0
7070
6038
E038
FFF8
FFF8
E038
6038
7030
7870
3FE0
1FC0
ENDCHAR
STARTCHAR 0474
ENCODING 1140
SWIDTH 640 0
DWIDTH 16 0
BBX 17 18 0 0
BITMAP
E00780
E00F80
700E80
701C00
301C00
381800
383800
183800
1C3000
1C7000
0C7000
0E6000
0E6000
06E000
07C000
07C000
03C000
03C000
ENDCHAR
STARTCHAR 0475
ENCODING 1141
SWIDTH 560 0
DWIDTH 14 0
BBX 14 14 0 0
BITMAP
000C
E03C
603C
7070
7060
3860
38E0
18C0
1CC0
1DC0
0D80
0F80
0F80
0700
ENDCHAR
STARTCHAR 0476
ENCODING 1142
SWIDTH 640 0
DWIDTH 16 0
BBX 17 23 0 0
BITMAP
39C000
1CC000
0C6000
063000
000000
E00780
E00F80
700E80
701C00
301C00
381800
383800
183800
1C3000
1C7000
0C7000
0E6000
0E6000
06E000
07C000
07C000
03C000
03C000
ENDCHAR
STARTCHAR 0477
ENCODING 1143
SWIDTH 560 0
DWIDTH 14 0
BBX 14 19 0 0
BITMAP
7700
3380
19C0
0CC0
0000
000C
E03C
603C
7070
7060
3860
38E0
18C0
1CC0
1DC0
0D80
0F80
0F80
0700
ENDCHAR
STARTCHAR 0478
ENCODING 1144
SWIDTH 1240 0
DWIDTH 31 0
BBX 30 24 1 -6
BITMAP
07F00000
1FF80000
3E3C0000
380E0000
700E0000
7007701C
70073818
60073838
E0071838
E0071C30
60071C70
60070C70
70070E60
700E06E0
380E06C0
3C3C07C0
1FF803C0
0FF00380
00000380
00000380
00000700
00000F00
00007E00
00007C00
ENDCHAR
STARTCHAR 0479
ENCODING 1145
SWIDTH 1120 0
DWIDTH 28 0
BBX 27 20 1 -6
BITMAP
07000000
1FE380E0
3DF181C0
7071C1C0
6039C180
E038C380
E038E380
E0386300
E0387700
60387700
70303600
78703E00
3FE01C00
1FC01C00
00001C00
00001800
00003800
00007000
0003F000
0003C000
ENDCHAR
STARTCHAR 047A
ENCODING 1146
SWIDTH 840 0
DWIDTH 21 0
BBX 18 21 1 -2
BITMAP
00E000
03F800
0FFE00
1EFF00
380780
700380
7001C0
7001C0
6001C0
E001C0
E001C0
6001C0
7001C0
7001C0
700380
380780
1EEF00
0FFE00
07F800
00E000
004000
ENDCHAR
STARTCHAR 047B
ENCODING 1147
SWIDTH 680 0
DWIDTH 17 0
BBX 14 16 1 -1
BITMAP
0300
0780
1FF0
3FF8
7138
601C
E01C
E00C
E00C
E01C
601C
701C
7BB8
3FF0
0FE0
0380
ENDCHAR
STARTCHAR 047C
ENCODING 1148
SWIDTH 1040 0
DWIDTH 26 0
BBX 24 26 1 0
BITMAP
007800
00FF80
00C780
003800
001800
000800
003000
000000
0FC3F0
1FE7F8
3C423C
38000E
70000E
70000E
600006
600007
E00007
E00007
601807
601806
70180E
70180E
38181C
3C3C3C
1FFFF8
0FE7F0
ENDCHAR
STARTCHAR 047D
ENCODING 1149
SWIDTH 920 0
DWIDTH 23 0
BBX 21 22 1 0
BITMAP
01F000
03FE00
030E00
006000
007000
002000
00C000
000000
070700
3F8FE0
3F07E0
700070
700070
600030
E00038
E07038
E07030
607030
707070
78F8F0
3FDFE0
1F8FC0
ENDCHAR
STARTCHAR 047E
ENCODING 1150
SWIDTH 920 0
DWIDTH 23 0
BBX 22 22 1 0
BITMAP
03FF00
032200
000000
000000
C0701C
C0701C
E0701C
E07018
E07018
E07038
E07838
607838
70F838
70D830
70DC70
39DC70
398C70
198EE0
1F8EE0
0F07C0
0F07C0
070380
ENDCHAR
STARTCHAR 047F
ENCODING 1151
SWIDTH 800 0
DWIDTH 20 0
BBX 20 18 0 0
BITMAP
07FE00
07FE00
024400
000000
E06070
E06070
606070
606060
707060
7070E0
7070E0
30F0C0
38F9C0
1999C0
1D9980
1F9F80
0F0F00
070E00
ENDCHAR
STARTCHAR 0480
ENCODING 1152
SWIDTH 640 0
DWIDTH 16 0
BBX 15 24 1 -6
BITMAP
03F8
0FFE
1F1C
3C00
7800
7000
7000
6000
E000
E000
7000
7000
7000
7000
3800
3E00
1FF0
07F0
0070
0070
0070
0070
0070
0070
ENDCHAR
STARTCHAR 0481
ENCODING 1153
SWIDTH 520 0
DWIDTH 13 0
BBX 11 20 1 -6
BITMAP
0780
1FE0
3FC0
7000
6000
E000
E000
E000
E000
E000
7000
7800
3F80
1F80
0180
0180
0180
0180
0180
0180
ENDCHAR
STARTCHAR 0482
ENCODING 1154
SWIDTH 600 0
DWIDTH 15 0
BBX 13 16 1 0
BITMAP
0020
0070
0860
0EC0
07C0
01C0
01F0
0338
4600
F600
3C00
0E00
1BC0
1980
3000
2000
ENDCHAR
STARTCHAR 0483
ENCODING 1155
SWIDTH 0 0
DWIDTH 0 0
BBX 10 4 -12 14
BITMAP
0180
7FC0
FF80
6000
ENDCHAR
STARTCHAR 0484
ENCODING 1156
SWIDTH 0 0
DWIDTH 0 0
BBX 9 4 -11 15
BITMAP
0400
3F00
FB80
C180
ENDCHAR
STARTCHAR 0485
ENCODING 1157
SWIDTH 0 0
DWIDTH 0 0
BBX 4 5 -9 15
BITMAP
20
E0
C0
60
30
ENDCHAR
STARTCHAR 0486
ENCODING 1158
SWIDTH 0 0
DWIDTH 0 0
BBX 4 5 -9 15
BITMAP
40
60
30
60
C0
ENDCHAR
STARTCHAR 0487
ENCODING 1159
SWIDTH 0 0
DWIDTH 0 0
BBX 10 3 -5 19
BITMAP
7C00
FFC0
C3C0
ENDCHAR
STARTCHAR 0488
ENCODING 1160
SWIDTH 0 0
DWIDTH 0 0
BBX 28 26 -14 -6
BITMAP
00040000
001F0000
00118000
00000000
00000000
1F000F80
11001880
21801080
00000000
00000000
00000000
00000000
780001E0
CC000330
84000210
00000000
00000000
00000000
00000000
0E000700
1F000F80
31801080
00000000
000E0000
001F0000
00108000
ENDCHAR
STARTCHAR 0489
ENCODING 1161
SWIDTH 0 0
DWIDTH 0 0
BBX 28 28 -14 -7
BITMAP
00030000
00020000
00060000
00060000
0C060000
060E0180
06000F00
03001C00
03000800
02000000
00000000
00000000
00000000
F0000180
780001F0
08000030
00000000
00000000
00000000
00000000
01000C00
03800C00
0F000600
1C070600
00060300
00060000
00040000
000C0000
ENDCHAR
STARTCHAR 048A
ENCODING 1162
SWIDTH 840 0
DWIDTH 21 0
BBX 18 28 2 -5
BITMAP
183800
1C3000
0FF000
07C000
000000
E00E00
E01E00
E01E00
E03E00
E07600
E07600
E0E600
E1C600
E1C600
E38600
E70600
E70600
EE0600
FC0600
FC0600
F80600
F007C0
F007C0
000180
000180
000380
000380
000700
ENDCHAR
STARTCHAR 048B
ENCODING 1163
SWIDTH 720 0
DWIDTH 18 0
BBX 15 24 2 -5
BITMAP
7070
30E0
3FE0
0F80
0000
0000
E078
E0F8
E1F8
E1B8
E3B8
E738
E738
EE38
EC38
DC38
F838
F03E
F03E
000E
000C
000C
001C
001C
ENDCHAR
STARTCHAR 048C
ENCODING 1164
SWIDTH 640 0
DWIDTH 16 0
BBX 13 18 1 0
BITMAP
7000
7000
FF00
FF00
FF00
7000
7000
7C00
7FE0
7FF0
7078
7038
7018
7038
7038
70F8
7FF0
7FC0
ENDCHAR
STARTCHAR 048D
ENCODING 1165
SWIDTH 600 0
DWIDTH 15 0
BBX 14 19 0 0
BITMAP
3800
3800
3800
FF80
FF80
3800
3800
3800
3800
3800
3800
3FF0
3FF8
383C
381C
381C
3838
3FF8
3FE0
ENDCHAR
STARTCHAR 048E
ENCODING 1166
SWIDTH 600 0
DWIDTH 15 0
BBX 12 18 2 0
BITMAP
FF80
FFC0
E3E0
E070
E070
E070
E270
E770
E3E0
FFE0
FFC0
E0E0
E040
E000
E000
E000
E000
E000
ENDCHAR
STARTCHAR 048F
ENCODING 1167
SWIDTH 640 0
DWIDTH 16 0
BBX 12 20 2 -6
BITMAP
0700
DFC0
FFE0
F070
E070
E070
E070
E070
E070
E370
E370
F1E0
FFE0
EFC0
E060
E020
E000
E000
E000
E000
ENDCHAR
STARTCHAR 0490
ENCODING 1168
SWIDTH 560 0
DWIDTH 14 0
BBX 11 22 2 0
BITMAP
0060
0060
0060
0060
FFE0
FFE0
E000
E000
E000
E000
E000
E000
E000
E000
E000
E000
E000
E000
E000
E000
E000
E000
ENDCHAR
STARTCHAR 0491
ENCODING 1169
SWIDTH 440 0
DWIDTH 11 0
BBX 9 17 2 0
BITMAP
0380
0380
0380
0380
FF80
FF80
E000
E000
E000
E000
E000
E000
E000
E000
E000
E000
E000
ENDCHAR
STARTCHAR 0492
ENCODING 1170
SWIDTH 520 0
DWIDTH 13 0
BBX 12 18 1 0
BITMAP
7FF0
7FF0
7000
7000
7000
7000
7000
7000
FF80
FF80
7000
7000
7000
7000
7000
7000
7000
7000
ENDCHAR
STARTCHAR 0493
ENCODING 1171
SWIDTH 440 0
DWIDTH 11 0
BBX 11 13 0 0
BITMAP
3FE0
3FE0
3800
3800
3800
FF80
FF80
3800
3800
3800
3800
3800
3800
ENDCHAR
STARTCHAR 0494
ENCODING 1172
SWIDTH 680 0
DWIDTH 17 0
BBX 14 24 2 -6
BITMAP
FFE0
FFE0
E000
E000
E000
E000
E000
E000
FF80
FFE0
FFF0
E078
E038
E01C
E01C
E01C
E01C
E01C
001C
0018
0038
0878
0FF0
0FC0
ENDCHAR
STARTCHAR 0495
ENCODING 1173
SWIDTH 560 0
DWIDTH 14 0
BBX 11 19 2 -6
BITMAP
FF80
FF80
E000
E000
E000
FC00
FF80
FFC0
E1C0
E0E0
E0E0
E0E0
E0E0
00E0
00E0
00E0
21C0
3F80
1F00
ENDCHAR
STARTCHAR 0496
ENCODING 1174
SWIDTH 960 0
DWIDTH 24 0
BBX 23 23 0 -5
BITMAP
E0301C
703038
383070
1C30E0
0C30C0
0E31C0
073380
03B700
01FE00
03B700
03B700
073380
0E31C0
1C30E0
1C30E0
383070
70303E
E0301E
00000E
00000E
00000E
00000E
00000E
ENDCHAR
STARTCHAR 0497
ENCODING 1175
SWIDTH 840 0
DWIDTH 21 0
BBX 21 18 0 -5
BITMAP
F060E0
3861C0
1C6380
0E6700
066E00
076C00
07FC00
076E00
0E6700
1C6380
3861C0
7061F8
E060F8
000038
000038
000038
000038
000038
ENDCHAR
STARTCHAR 0498
ENCODING 1176
SWIDTH 600 0
DWIDTH 15 0
BBX 13 24 1 -6
BITMAP
1FC0
FFE0
70F0
4070
0030
0070
0070
03E0
3F00
3FE0
00F0
0038
0038
0038
0038
C0F0
FFE0
7FC0
0600
0300
0300
0300
0F00
0E00
ENDCHAR
STARTCHAR 0499
ENCODING 1177
SWIDTH 520 0
DWIDTH 13 0
BBX 11 20 1 -6
BITMAP
1E00
FF80
77C0
00C0
00C0
01C0
1F00
1F80
01C0
00E0
00E0
81C0
FFC0
FF00
0C00
0600
0600
0600
1E00
1C00
ENDCHAR
STARTCHAR 049A
ENCODING 1178
SWIDTH 680 0
DWIDTH 17 0
BBX 15 23 2 -5
BITMAP
E03C
E070
E0F0
E0E0
E1C0
E380
E700
EE00
FC00
EE00
EF00
E700
E380
E1C0
E0E0
E070
E07E
E03E
000E
000E
000E
000E
000E
ENDCHAR
STARTCHAR 049B
ENCODING 1179
SWIDTH 600 0
DWIDTH 15 0
BBX 12 18 2 -5
BITMAP
E1E0
E1C0
E380
E700
EE00
FC00
FC00
EE00
E700
E380
E3C0
E1F0
E0F0
0030
0030
0030
0030
0030
ENDCHAR
STARTCHAR 049C
ENCODING 1180
SWIDTH 640 0
DWIDTH 16 0
BBX 14 18 2 0
BITMAP
E03C
E070
E0F0
E4E0
E5C0
E780
E700
EE00
FC00
EE00
EF00
E700
E780
E5C0
E4E0
E070
E078
E03C
ENDCHAR
STARTCHAR 049D
ENCODING 1181
SWIDTH 560 0
DWIDTH 14 0
BBX 12 13 2 0
BITMAP
E1E0
EDC0
EF80
EF00
EE00
FC00
FC00
EE00
EF00
EF80
EF80
EDC0
E0F0
ENDCHAR
STARTCHAR 049E
ENCODING 1182
SWIDTH 640 0
DWIDTH 16 0
BBX 16 18 0 0
BITMAP
380E
381C
FE38
FE78
3870
38E0
39C0
3B80
3F00
3F80
3B80
39C0
38E0
3870
3838
383C
381C
380F
ENDCHAR
STARTCHAR 049F
ENCODING 1183
SWIDTH 560 0
DWIDTH 14 0
BBX 14 19 0 0
BITMAP
3800
3800
FF80
FF80
3800
3808
3870
3870
38E0
39C0
3B80
3F00
3F00
3B80
39C0
38E0
38F0
3870
383C
ENDCHAR
STARTCHAR 04A0
ENCODING 1184
SWIDTH 720 0
DWIDTH 18 0
BBX 18 18 0 0
BITMAP
FE0380
FE0700
FE0E00
0E1C00
0E1C00
0E3800
0E7000
0EE000
0FC000
0FE000
0EE000
0E7000
0E3800
0E1C00
0E0E00
0E0F00
0E0700
0E03C0
ENDCHAR
STARTCHAR 04A1
ENCODING 1185
SWIDTH 640 0
DWIDTH 16 0
BBX 16 13 0 0
BITMAP
FE0F
FE1C
0638
0670
06E0
06C0
07C0
06E0
0670
0638
061C
060E
0607
ENDCHAR
STARTCHAR 04A2
ENCODING 1186
SWIDTH 800 0
DWIDTH 20 0
BBX 17 23 2 -5
BITMAP
E00C00
E00C00
E00C00
E00C00
E00C00
E00C00
E00C00
E00C00
FFFC00
FFFC00
E00C00
E00C00
E00C00
E00C00
E00C00
E00C00
E00F80
E00F80
000380
000380
000380
000380
000380
ENDCHAR
STARTCHAR 04A3
ENCODING 1187
SWIDTH 680 0
DWIDTH 17 0
BBX 14 18 2 -5
BITMAP
E070
E070
E070
E070
E070
FFF0
FFF0
E070
E070
E070
E070
E07C
E07C
000C
000C
000C
000C
000C
ENDCHAR
STARTCHAR 04A4
ENCODING 1188
SWIDTH 840 0
DWIDTH 21 0
BBX 18 18 2 0
BITMAP
E00FC0
E00FC0
E00FC0
E00C00
E00C00
E00C00
E00C00
E00C00
FFFC00
FFFC00
E00C00
E00C00
E00C00
E00C00
E00C00
E00C00
E00C00
E00C00
ENDCHAR
STARTCHAR 04A5
ENCODING 1189
SWIDTH 760 0
DWIDTH 19 0
BBX 16 13 2 0
BITMAP
E07F
E07F
E070
E070
E070
FFF0
FFF0
E070
E070
E070
E070
E070
E070
ENDCHAR
STARTCHAR 04A6
ENCODING 1190
SWIDTH 1080 0
DWIDTH 27 0
BBX 24 24 2 -6
BITMAP
FFF800
FFF800
FFF800
E01800
E01800
E01800
E01800
E01800
E01FE0
E01FF8
E01FFC
E0181E
E0180E
E01807
E01807
E01807
E01807
E01807
000007
000006
00000E
00021E
0003FC
0003F0
ENDCHAR
STARTCHAR 04A7
ENCODING 1191
SWIDTH 880 0
DWIDTH 22 0
BBX 19 19 2 -6
BITMAP
FFE000
FFE000
E06000
E06000
E06000
E07E00
E07F80
E07FC0
E061C0
E060E0
E060E0
E060E0
E060E0
0000E0
0000E0
0000E0
0011C0
001F80
001F00
ENDCHAR
STARTCHAR 04A8
ENCODING 1192
SWIDTH 760 0
DWIDTH 19 0
BBX 17 19 1 -1
BITMAP
07E000
1FE000
3E2000
380000
703E00
707F00
70E300
60E380
E0C380
E0C380
60C380
70C380
70E380
70E700
387700
3E7E00
1FFC80
07FF80
000780
ENDCHAR
STARTCHAR 04A9
ENCODING 1193
SWIDTH 640 0
DWIDTH 16 0
BBX 14 15 1 -1
BITMAP
0780
1F00
3D00
7020
61F8
E3F8
E39C
E39C
E39C
639C
7198
79F8
3FF0
1FFC
001C
ENDCHAR
STARTCHAR 04AA
ENCODING 1194
SWIDTH 640 0
DWIDTH 16 0
BBX 14 24 1 -6
BITMAP
03F8
0FFC
1F18
3800
7800
7000
7000
6000
E000
E000
6000
7000
7000
7000
3800
3E08
1FF8
07F8
0180
00C0
00C0
00C0
03C0
0180
ENDCHAR
STARTCHAR 04AB
ENCODING 1195
SWIDTH 480 0
DWIDTH 12 0
BBX 10 20 1 -6
BITMAP
0780
1FC0
3FC0
7000
7000
E000
E000
E000
E000
E000
7000
7840
3FC0
1FC0
0600
0300
0300
0380
0F00
0E00
ENDCHAR
STARTCHAR 04AC
ENCODING 1196
SWIDTH 560 0
DWIDTH 14 0
BBX 14 23 0 -5
BITMAP
FFFC
FFFC
FFFC
0300
0300
0300
0300
0300
0300
0300
0300
0300
0300
0300
0300
0300
03E0
03E0
00E0
00E0
00E0
00E0
00E0
ENDCHAR
STARTCHAR 04AD
ENCODING 1197
SWIDTH 480 0
DWIDTH 12 0
BBX 11 18 1 -5
BITMAP
FFE0
FFE0
0E00
0E00
0E00
0E00
0E00
0E00
0E00
0E00
0E00
0F80
0F80
0380
0380
0380
0380
0380
ENDCHAR
STARTCHAR 04AE
ENCODING 1198
SWIDTH 600 0
DWIDTH 15 0
BBX 15 18 0 0
BITMAP
E01E
701C
7038
3838
3870
1C70
1CE0
0EE0
07C0
07C0
0380
0380
0380
0380
0380
0380
0380
0380
ENDCHAR
STARTCHAR 04AF
ENCODING 1199
SWIDTH 520 0
DWIDTH 13 0
BBX 13 19 0 -6
BITMAP
E038
7030
7070
3070
3860
38E0
18C0
1DC0
0DC0
0D80
0F80
0780
0700
0700
0700
0700
0700
0700
0700
ENDCHAR
STARTCHAR 04B0
ENCODING 1200
SWIDTH 600 0
DWIDTH 15 0
BBX 15 18 0 0
BITMAP
E01E
701C
7038
3838
3870
1C70
1CE0
0EE0
07C0
07C0
0380
0380
3FF0
3FF0
0380
0380
0380
0380
ENDCHAR
STARTCHAR 04B1
ENCODING 1201
SWIDTH 520 0
DWIDTH 13 0
BBX 13 19 0 -6
BITMAP
E038
7030
7070
3070
3860
38E0
18C0
1DC0
0DC0
0D80
0F80
0780
0700
3FE0
3FE0
0700
0700
0700
0700
ENDCHAR
STARTCHAR 04B2
ENCODING 1202
SWIDTH 680 0
DWIDTH 17 0
BBX 16 23 0 -5
BITMAP
F00E
701C
3838
1C38
1C70
0E60
06E0
07C0
0380
07C0
07C0
0EE0
0C70
1C70
3838
381C
701F
E00F
0003
0003
0003
0003
0003
ENDCHAR
STARTCHAR 04B3
ENCODING 1203
SWIDTH 560 0
DWIDTH 14 0
BBX 14 18 0 -5
BITMAP
7078
3870
1CE0
1DC0
0FC0
0780
0780
0F80
1DC0
1CE0
3870
707C
F03C
000C
000C
000C
000C
000C
ENDCHAR
STARTCHAR 04B4
ENCODING 1204
SWIDTH 880 0
DWIDTH 22 0
BBX 22 23 0 -5
BITMAP
FFF8E0
FFF8E0
FFF8E0
0700E0
0700E0
0700E0
0700E0
0700E0
0700E0
0700E0
0700E0
0700E0
0700E0
0700E0
0700E0
0700E0
07FFFC
07FFFC
00001C
00001C
00001C
00001C
00001C
ENDCHAR
STARTCHAR 04B5
ENCODING 1205
SWIDTH 760 0
DWIDTH 19 0
BBX 17 18 1 -5
BITMAP
FFCE00
FFCE00
1C0E00
1C0E00
1C0E00
1C0E00
1C0E00
1C0E00
1C0E00
1C0E00
1C0E00
1FFF80
1FFF80
000180
000180
000180
000180
000180
ENDCHAR
STARTCHAR 04B6
ENCODING 1206
SWIDTH 720 0
DWIDTH 18 0
BBX 16 23 2 -5
BITMAP
E018
E018
E018
E018
E018
E018
E018
E018
E018
FBF8
7FF8
1F18
0018
0018
0018
0018
001F
001F
0007
0007
0007
0007
0007
ENDCHAR
STARTCHAR 04B7
ENCODING 1207
SWIDTH 640 0
DWIDTH 16 0
BBX 14 18 2 -5
BITMAP
C070
C070
C070
C070
C070
E070
F7F0
7F70
1870
0070
0070
007C
007C
001C
001C
001C
001C
001C
ENDCHAR
STARTCHAR 04B8
ENCODING 1208
SWIDTH 720 0
DWIDTH 18 0
BBX 13 18 2 0
BITMAP
E018
E018
E018
E018
E018
E218
E218
E218
E218
FBF8
7FF8
1F18
0218
0218
0218
0218
0018
0018
ENDCHAR
STARTCHAR 04B9
ENCODING 1209
SWIDTH 640 0
DWIDTH 16 0
BBX 11 13 2 0
BITMAP
C060
C060
C060
C460
C460
E4E0
F7E0
7F60
1C60
0460
0460
0060
0060
ENDCHAR
STARTCHAR 04BA
ENCODING 1210
SWIDTH 720 0
DWIDTH 18 0
BBX 14 18 2 0
BITMAP
E000
E000
E000
E000
E000
E000
E3E0
FFF8
FFF8
E01C
E01C
E01C
E01C
E01C
E01C
E01C
E01C
E01C
ENDCHAR
STARTCHAR 04BB
ENCODING 1211
SWIDTH 640 0
DWIDTH 16 0
BBX 12 19 2 0
BITMAP
E000
E000
E000
E000
E000
E700
FFE0
FDE0
F070
E070
E070
E070
E070
E070
E070
E070
E070
E070
E070
ENDCHAR
STARTCHAR 04BC
ENCODING 1212
SWIDTH 880 0
DWIDTH 22 0
BBX 20 18 0 0
BITMAP
007F00
01FFC0
01E3E0
0380E0
070070
670070
E70070
E60070
7FFFF0
3FFFF0
060000
070000
070000
070000
038000
03E060
01FFE0
007FC0
ENDCHAR
STARTCHAR 04BD
ENCODING 1213
SWIDTH 680 0
DWIDTH 17 0
BBX 16 14 0 0
BITMAP
0060
03FC
079E
660E
EE07
EE07
7FFF
3FFF
0E00
0E00
0E00
0702
03FE
01FE
ENDCHAR
STARTCHAR 04BE
ENCODING 1214
SWIDTH 880 0
DWIDTH 22 0
BBX 20 23 0 -5
BITMAP
007F00
01FFC0
03E3E0
0380E0
070070
670070
E70070
E60070
7FFFF0
3FFFF0
060000
070000
070000
070000
038000
03E060
01FFE0
007FC0
001C00
001C00
001C00
001C00
001C00
ENDCHAR
STARTCHAR 04BF
ENCODING 1215
SWIDTH 680 0
DWIDTH 17 0
BBX 16 19 0 -5
BITMAP
0060
03FC
079E
660E
EE07
EE07
7FFF
3FFF
0E00
0E00
0E00
0702
03FE
01FE
0060
0060
0060
0060
0060
ENDCHAR
STARTCHAR 04C0
ENCODING 1216
SWIDTH 360 0
DWIDTH 9 0
BBX 7 18 1 0
BITMAP
FE
FE
38
38
38
38
38
38
38
38
38
38
38
38
38
38
FE
FE
ENDCHAR
STARTCHAR 04C1
ENCODING 1217
SWIDTH 880 0
DWIDTH 22 0
BBX 22 24 0 0
BITMAP
038300
038700
01CF00
01FE00
000000
000000
E0301C
703038
383070
1C30E0
0C30C0
0E31C0
073380
03B700
01FE00
03B700
03B700
073380
0E31C0
1C30E0
1C30E0
383070
703038
E0301C
ENDCHAR
STARTCHAR 04C2
ENCODING 1218
SWIDTH 800 0
DWIDTH 20 0
BBX 20 19 0 0
BITMAP
060E00
070E00
03FC00
00F000
000000
800020
7060C0
3861C0
1C6380
0E6700
066E00
076C00
07FC00
076E00
0E6700
1C6380
3861C0
7061C0
E060F0
ENDCHAR
STARTCHAR 04C3
ENCODING 1219
SWIDTH 720 0
DWIDTH 18 0
BBX 15 24 2 -6
BITMAP
E03C
E070
E0F0
E0E0
E1C0
E380
E700
EE00
FC00
FFE0
FFF0
E078
E01C
E01C
E00C
E00E
E00E
E00E
000C
001C
001C
0878
0FF0
0FE0
ENDCHAR
STARTCHAR 04C4
ENCODING 1220
SWIDTH 600 0
DWIDTH 15 0
BBX 12 19 2 -6
BITMAP
E1E0
E1C0
E380
E700
EE00
FC00
FF80
FFC0
E0E0
E060
E070
E070
E070
0070
0070
00E0
11E0
1FC0
1F80
ENDCHAR
STARTCHAR 04C5
ENCODING 1221
SWIDTH 760 0
DWIDTH 19 0
BBX 19 23 0 -5
BITMAP
07FF00
07FF00
070700
060700
060700
060700
060700
0E0700
0E0700
0E0700
0E0700
0C0700
0C0700
1C0700
1C0700
380720
F807C0
F007C0
0001C0
000180
000180
000380
000380
ENDCHAR
STARTCHAR 04C6
ENCODING 1222
SWIDTH 640 0
DWIDTH 16 0
BBX 16 18 0 -5
BITMAP
0FF8
0FF8
0C38
0C38
0C38
1C38
1C38
1C38
1838
1838
3838
F03F
E03E
0006
000E
000C
000C
001C
ENDCHAR
STARTCHAR 04C7
ENCODING 1223
SWIDTH 760 0
DWIDTH 19 0
BBX 14 24 2 -6
BITMAP
E00C
E00C
E00C
E00C
E00C
E00C
E00C
E00C
FFFC
FFFC
E00C
E00C
E00C
E00C
E00C
E00C
E00C
E00C
001C
001C
001C
0878
0FF0
0FE0
ENDCHAR
STARTCHAR 04C8
ENCODING 1224
SWIDTH 640 0
DWIDTH 16 0
BBX 12 19 2 -6
BITMAP
E070
E070
E070
E070
E070
FFF0
FFF0
E070
E070
E070
E070
E070
E070
0070
0070
0070
08E0
0FE0
0F80
ENDCHAR
STARTCHAR 04C9
ENCODING 1225
SWIDTH 800 0
DWIDTH 20 0
BBX 17 23 2 -5
BITMAP
E00C00
E00C00
E00C00
E00C00
E00C00
E00C00
E00C00
E00C00
FFFC00
FFFC00
E00C00
E00C00
E00C00
E00C00
E00C00
E00C00
E00F80
E00F80
000300
000300
000700
000700
000E00
ENDCHAR
STARTCHAR 04CA
ENCODING 1226
SWIDTH 680 0
DWIDTH 17 0
BBX 15 18 2 -5
BITMAP
E070
E070
E070
E070
E070
FFF0
FFF0
E070
E070
E070
E070
E07E
E07C
000C
000C
001C
0018
0038
ENDCHAR
STARTCHAR 04CB
ENCODING 1227
SWIDTH 720 0
DWIDTH 18 0
BBX 13 23 2 -5
BITMAP
E018
E018
E018
E018
E018
E018
E018
E018
E018
FBF8
7FF8
1F18
0018
0018
0018
0018
00F8
00F8
00E0
00E0
00E0
00E0
00E0
ENDCHAR
STARTCHAR 04CC
ENCODING 1228
SWIDTH 640 0
DWIDTH 16 0
BBX 12 18 2 -5
BITMAP
C070
C070
C070
C070
C070
E070
F7F0
7F70
1870
0070
0070
01F0
01F0
0180
0180
0180
0180
0180
ENDCHAR
STARTCHAR 04CD
ENCODING 1229
SWIDTH 960 0
DWIDTH 24 0
BBX 21 23 2 -5
BITMAP
F001E0
F803E0
F803E0
F807E0
FC06E0
EC06E0
EE0EE0
EE0CE0
E60CE0
E71CE0
E718E0
E318E0
E3B8E0
E1B0E0
E1F0E0
E1E0E0
E0E0F8
E0E0F8
000038
000030
000070
000070
0000F0
ENDCHAR
STARTCHAR 04CE
ENCODING 1230
SWIDTH 800 0
DWIDTH 20 0
BBX 18 18 2 -5
BITMAP
F01E00
F01E00
D81E00
D83600
DC3600
EC7600
EC6600
EE6600
E6E600
E7C600
E3C600
E387C0
E387C0
000180
000180
000380
000380
000300
ENDCHAR
STARTCHAR 04CF
ENCODING 1231
SWIDTH 360 0
DWIDTH 9 0
BBX 7 18 1 0
BITMAP
FE
FE
38
38
38
38
38
38
38
38
38
38
38
38
38
38
FE
FE
ENDCHAR
STARTCHAR 04D0
ENCODING 1232
SWIDTH 640 0
DWIDTH 16 0
BBX 16 24 0 0
BITMAP
1C18
1C18
0E78
0FF0
0000
0000
01C0
03C0
03C0
07E0
0760
0670
0E70
0E30
0C38
1C38
1FFC
3FFC
3FFC
300E
700E
7006
6007
E007
ENDCHAR
STARTCHAR 04D1
ENCODING 1233
SWIDTH 560 0
DWIDTH 14 0
BBX 11 19 1 0
BITMAP
7060
30E0
3FC0
0F80
0000
0700
3FC0
39E0
00E0
0060
0060
1FE0
7FE0
F060
E060
E0E0
E1E0
7FE0
3E60
ENDCHAR
STARTCHAR 04D2
ENCODING 1234
SWIDTH 640 0
DWIDTH 16 0
BBX 16 22 0 0
BITMAP
0E70
0670
0000
0000
01C0
03C0
03C0
07E0
0760
0670
0E70
0E30
0C38
1C38
1FFC
3FFC
3FFC
300E
700E
7006
6007
E007
ENDCHAR
STARTCHAR 04D3
ENCODING 1235
SWIDTH 560 0
DWIDTH 14 0
BBX 11 18 1 0
BITMAP
39C0
19C0
0000
0000
0700
3FC0
39E0
00E0
0060
0060
1FE0
7FE0
F060
E060
E0E0
E1E0
7FE0
3E60
ENDCHAR
STARTCHAR 04D4
ENCODING 1236
SWIDTH 920 0
DWIDTH 23 0
BBX 21 18 0 0
BITMAP
00FFF8
00FFF8
01FC00
019C00
039C00
039C00
071C00
071C00
0E1FF8
0E1FF8
1FFC00
1FFC00
1FFC00
381C00
301C00
701C00
601FF8
E01FF8
ENDCHAR
STARTCHAR 04D5
ENCODING 1237
SWIDTH 880 0
DWIDTH 22 0
BBX 20 14 1 0
BITMAP
0E0700
7FDFC0
39F9E0
00F060
00E070
00E070
1FFFF0
7FFFF0
F0E000
E0E000
E0F000
E1F820
7FBFE0
3F0FE0
ENDCHAR
STARTCHAR 04D6
ENCODING 1238
SWIDTH 560 0
DWIDTH 14 0
BBX 11 24 2 0
BITMAP
60E0
60E0
71C0
3F80
0000
0000
FFC0
FFC0
E000
E000
E000
E000
E000
E000
FFC0
FFC0
E000
E000
E000
E000
E000
E000
FFC0
FFC0
ENDCHAR
STARTCHAR 04D7
ENCODING 1239
SWIDTH 560 0
DWIDTH 14 0
BBX 12 19 1 0
BITMAP
7060
30E0
3FC0
0F80
0000
0700
1FC0
39E0
7070
6070
E070
FFF0
FFF0
E000
6000
7000
7820
3FE0
1FE0
ENDCHAR
STARTCHAR 04D8
ENCODING 1240
SWIDTH 760 0
DWIDTH 19 0
BBX 16 18 2 0
BITMAP
3FE0
7FF0
7078
801C
000E
000E
000E
0006
FFFF
FFFF
C006
E006
E00E
E00E
701C
783C
3FF8
0FE0
ENDCHAR
STARTCHAR 04D9
ENCODING 1241
SWIDTH 560 0
DWIDTH 14 0
BBX 12 14 1 0
BITMAP
1E00
7FC0
7BE0
00E0
0070
0070
0070
FFF0
FFF0
E070
6060
70E0
3FC0
1F80
ENDCHAR
STARTCHAR 04DA
ENCODING 1242
SWIDTH 760 0
DWIDTH 19 0
BBX 16 22 2 0
BITMAP
1CE0
0CE0
0000
0000
3FE0
7FF0
7078
801C
000E
000E
000E
0006
FFFF
FFFF
C006
E006
E00E
E00E
701C
783C
3FF8
0FE0
ENDCHAR
STARTCHAR 04DB
ENCODING 1243
SWIDTH 560 0
DWIDTH 14 0
BBX 12 18 1 0
BITMAP
39C0
39C0
0000
0000
1E00
7FC0
7BE0
00E0
0070
0070
0070
FFF0
FFF0
E070
6060
70E0
3FC0
1F80
ENDCHAR
STARTCHAR 04DC
ENCODING 1244
SWIDTH 880 0
DWIDTH 22 0
BBX 22 22 0 0
BITMAP
01CE00
01CE00
000000
000000
E0301C
703038
383070
1C30E0
0C30C0
0E31C0
073380
03B700
01FE00
03B700
03B700
073380
0E31C0
1C30E0
1C30E0
383070
703038
E0301C
ENDCHAR
STARTCHAR 04DD
ENCODING 1245
SWIDTH 800 0
DWIDTH 20 0
BBX 20 18 0 0
BITMAP
039800
039800
000000
000000
800020
7060C0
3861C0
1C6380
0E6700
066E00
076C00
07FC00
076E00
0E6700
1C6380
3861C0
7061C0
E060F0
ENDCHAR
STARTCHAR 04DE
ENCODING 1246
SWIDTH 600 0
DWIDTH 15 0
BBX 13 22 1 0
BITMAP
19C0
18C0
0000
0000
1FC0
FFE0
70F0
4070
0030
0070
0070
03E0
3F00
3FE0
00F0
0038
0038
0038
0038
C0F0
FFE0
7FC0
ENDCHAR
STARTCHAR 04DF
ENCODING 1247
SWIDTH 520 0
DWIDTH 13 0
BBX 11 18 1 0
BITMAP
7380
3380
0000
0000
1E00
FF80
77C0
00C0
00C0
01C0
1F00
1F80
01C0
00E0
00E0
81C0
FFC0
FF80
ENDCHAR
STARTCHAR 04E0
ENCODING 1248
SWIDTH 600 0
DWIDTH 15 0
BBX 12 18 1 0
BITMAP
FFF0
FFF0
00E0
01C0
0380
0700
0E00
1C00
1F80
1FE0
00F0
0070
0030
0030
0070
80F0
FFE0
FF80
ENDCHAR
STARTCHAR 04E1
ENCODING 1249
SWIDTH 520 0
DWIDTH 13 0
BBX 12 19 0 -6
BITMAP
7FF0
7FE0
00C0
01C0
0380
0700
0E00
1F00
1FC0
01E0
0070
0070
0070
0070
0070
0070
E1E0
FFC0
7F00
ENDCHAR
STARTCHAR 04E2
ENCODING 1250
SWIDTH 800 0
DWIDTH 20 0
BBX 15 21 2 0
BITMAP
0FF0
0FF0
0000
E00E
E01E
E01E
E03E
E076
E076
E0E6
E1C6
E1C6
E386
E706
E706
EE06
FC06
FC06
F806
F006
F006
ENDCHAR
STARTCHAR 04E3
ENCODING 1251
SWIDTH 680 0
DWIDTH 17 0
BBX 13 17 2 0
BITMAP
1FC0
1FC0
0000
0000
E078
E0F8
E1F8
E1B8
E3B8
E738
E738
EE38
EC38
DC38
F838
F038
F038
ENDCHAR
STARTCHAR 04E4
ENCODING 1252
SWIDTH 800 0
DWIDTH 20 0
BBX 15 22 2 0
BITMAP
0E70
0E70
0000
0000
E00E
E01E
E01E
E03E
E076
E076
E0E6
E1C6
E1C6
E386
E706
E706
EE06
FC06
FC06
F806
F006
F006
ENDCHAR
STARTCHAR 04E5
ENCODING 1253
SWIDTH 680 0
DWIDTH 17 0
BBX 13 18 2 0
BITMAP
18C0
18C0
0000
0000
0000
E078
E0F8
E1F8
E1B8
E3B8
E738
E738
EE38
EC38
DC38
F838
F038
F038
ENDCHAR
STARTCHAR 04E6
ENCODING 1254
SWIDTH 800 0
DWIDTH 20 0
BBX 17 22 1 0
BITMAP
073800
073000
000000
000000
07F000
0FFC00
3E3E00
380700
700700
700380
700380
600380
E00380
E00380
600380
700380
700380
700700
380700
3C1E00
1FFC00
07F800
ENDCHAR
STARTCHAR 04E7
ENCODING 1255
SWIDTH 600 0
DWIDTH 15 0
BBX 13 18 1 0
BITMAP
1CC0
18C0
0000
0000
0700
1FE0
3DF0
7070
6038
E038
E038
E038
E038
6038
7030
7870
3FE0
1FC0
ENDCHAR
STARTCHAR 04E8
ENCODING 1256
SWIDTH 800 0
DWIDTH 20 0
BBX 17 18 1 0
BITMAP
07F000
0FFC00
3E1E00
380700
700700
700380
700380
600380
FFFF80
FFFF80
600380
700380
700380
700700
380700
3C1E00
1FFC00
07F800
ENDCHAR
STARTCHAR 04E9
ENCODING 1257
SWIDTH 600 0
DWIDTH 15 0
BBX 13 14 1 0
BITMAP
0700
1FE0
3DF0
7070
6038
E038
FFF8
FFF8
E038
6038
7030
7870
3FE0
1FC0
ENDCHAR
STARTCHAR 04EA
ENCODING 1258
SWIDTH 800 0
DWIDTH 20 0
BBX 17 22 1 0
BITMAP
073800
073000
000000
000000
07F000
0FFC00
3E1E00
380700
700700
700380
700380
600380
FFFF80
FFFF80
600380
700380
700380
700700
380700
3C1E00
1FFC00
07F800
ENDCHAR
STARTCHAR 04EB
ENCODING 1259
SWIDTH 600 0
DWIDTH 15 0
BBX 13 18 1 0
BITMAP
1CC0
18C0
0000
0000
0700
1FE0
3DF0
7070
6038
E038
FFF8
FFF8
E038
6038
7030
7870
3FE0
1FC0
ENDCHAR
STARTCHAR 04EC
ENCODING 1260
SWIDTH 640 0
DWIDTH 16 0
BBX 14 22 1 0
BITMAP
7380
3380
0000
0000
7F80
FFC0
E1F0
0070
0038
0038
0038
0018
3FFC
3FFC
0018
0038
0038
0038
0070
81F0
FFE0
FF80
ENDCHAR
STARTCHAR 04ED
ENCODING 1261
SWIDTH 480 0
DWIDTH 12 0
BBX 10 18 1 0
BITMAP
6700
6700
0000
0000
3C00
FF00
EF80
01C0
01C0
01C0
7FC0
7FC0
01C0
01C0
01C0
8380
FF00
FE00
ENDCHAR
STARTCHAR 04EE
ENCODING 1262
SWIDTH 640 0
DWIDTH 16 0
BBX 16 21 0 0
BITMAP
0FF0
0FF0
0000
E007
700E
700E
380C
381C
1C1C
1C38
0E38
0E70
0770
0760
03E0
01C0
01C0
0380
4780
7F00
7E00
ENDCHAR
STARTCHAR 04EF
ENCODING 1263
SWIDTH 520 0
DWIDTH 13 0
BBX 13 23 0 -6
BITMAP
1FC0
1FC0
0000
0000
E038
7030
7070
3070
3860
38E0
18E0
1CC0
0DC0
0D80
0F80
0780
0700
0700
0700
0E00
1E00
FC00
F800
ENDCHAR
STARTCHAR 04F0
ENCODING 1264
SWIDTH 640 0
DWIDTH 16 0
BBX 16 22 0 0
BITMAP
0E70
0670
0000
0000
E007
700E
700E
380C
381C
1C1C
1C38
0E38
0E70
0770
0760
03E0
01C0
01C0
0380
4780
7F00
7E00
ENDCHAR
STARTCHAR 04F1
ENCODING 1265
SWIDTH 520 0
DWIDTH 13 0
BBX 13 24 0 -6
BITMAP
1CC0
18C0
0000
0000
0000
E038
7030
7070
3070
3860
38E0
18E0
1CC0
0DC0
0D80
0F80
0780
0700
0700
0700
0E00
1E00
FC00
F800
ENDCHAR
STARTCHAR 04F2
ENCODING 1266
SWIDTH 640 0
DWIDTH 16 0
BBX 16 23 0 0
BITMAP
01DE
0398
0330
0620
0000
E007
700E
700E
380C
381C
1C1C
1C38
0E38
0E70
0770
0760
03E0
01C0
01C0
0380
4780
7F00
7E00
ENDCHAR
STARTCHAR 04F3
ENCODING 1267
SWIDTH 520 0
DWIDTH 13 0
BBX 13 25 0 -6
BITMAP
0738
0670
0C60
18C0
0000
0000
E038
7030
7070
3070
3860
38E0
18E0
1CC0
0DC0
0D80
0F80
0780
0700
0700
0700
0E00
1E00
FC00
F800
ENDCHAR
STARTCHAR 04F4
ENCODING 1268
SWIDTH 720 0
DWIDTH 18 0
BBX 13 22 2 0
BITMAP
18C0
18C0
0000
0000
E018
E018
E018
E018
E018
E018
E018
E018
E018
FBF8
7FF8
1F18
0018
0018
0018
0018
0018
0018
ENDCHAR
STARTCHAR 04F5
ENCODING 1269
SWIDTH 640 0
DWIDTH 16 0
BBX 12 18 2 0
BITMAP
3980
3180
0000
0000
0000
C070
C070
C070
C070
C070
E070
F7F0
7F70
1870
0070
0070
0070
0070
ENDCHAR
STARTCHAR 04F6
ENCODING 1270
SWIDTH 520 0
DWIDTH 13 0
BBX 11 23 2 -5
BITMAP
FFE0
FFE0
E000
E000
E000
E000
E000
E000
E000
E000
E000
E000
E000
E000
E000
E000
FC00
FC00
1C00
1C00
1C00
1C00
1C00
ENDCHAR
STARTCHAR 04F7
ENCODING 1271
SWIDTH 440 0
DWIDTH 11 0
BBX 9 18 2 -5
BITMAP
FF80
FF80
E000
E000
E000
E000
E000
E000
E000
E000
E000
F800
F800
1800
1800
1800
1800
1800
ENDCHAR
STARTCHAR 04F8
ENCODING 1272
SWIDTH 880 0
DWIDTH 22 0
BBX 17 22 2 0
BITMAP
073800
073800
000000
000000
E00180
E00180
E00180
E00180
E00180
E00180
E00180
FC0180
FFC180
FFE180
E0F180
E07180
E07180
E07180
E07180
E1E180
FFE180
FF8180
ENDCHAR
STARTCHAR 04F9
ENCODING 1273
SWIDTH 800 0
DWIDTH 20 0
BBX 16 18 2 0
BITMAP
0E70
0E70
0000
0000
0000
E007
E007
E007
E007
E007
FF87
FFC7
E0E7
E0E7
E0E7
E0E7
FFC7
FF87
ENDCHAR
STARTCHAR 04FA
ENCODING 1274
SWIDTH 520 0
DWIDTH 13 0
BBX 12 23 1 -5
BITMAP
7FF0
7FF0
7000
7000
7000
7000
7000
7000
FF80
FF80
7000
7000
7000
7000
7000
7000
7E00
7E00
0E00
0E00
0C00
7C00
7800
ENDCHAR
ENDFONT
